<svg width="594" height="60" viewBox="0 0 594 60" fill="none" xmlns="http://www.w3.org/2000/svg">
<g clip-path="url(#clip0_13_2)">
<rect width="594" height="60" fill="white"/>
<rect x="0.25" y="0.25" width="593.5" height="38.5" fill="white" stroke="black" stroke-width="0.5"/>
<path d="M2.85227 13.5881V10.5455H17.1875V13.5881H11.8438V28H8.19602V13.5881H2.85227ZM23.1108 20.4318V28H19.4801V10.5455H23.0085V17.2188H23.1619C23.4574 16.446 23.9347 15.8409 24.5938 15.4034C25.2528 14.9602 26.0795 14.7386 27.0739 14.7386C27.983 14.7386 28.7756 14.9375 29.4517 15.3352C30.1335 15.7273 30.6619 16.2926 31.0369 17.0312C31.4176 17.7642 31.6051 18.642 31.5994 19.6648V28H27.9688V20.3125C27.9744 19.5057 27.7699 18.8778 27.3551 18.429C26.946 17.9801 26.3722 17.7557 25.6335 17.7557C25.1392 17.7557 24.7017 17.8608 24.321 18.071C23.946 18.2812 23.6506 18.5881 23.4347 18.9915C23.2244 19.3892 23.1165 19.8693 23.1108 20.4318ZM34.4567 28V14.9091H38.0874V28H34.4567ZM36.2805 13.2216C35.7408 13.2216 35.2777 13.0426 34.8913 12.6847C34.5107 12.321 34.3203 11.8864 34.3203 11.3807C34.3203 10.8807 34.5107 10.4517 34.8913 10.0938C35.2777 9.73011 35.7408 9.54829 36.2805 9.54829C36.8203 9.54829 37.2805 9.73011 37.6612 10.0938C38.0476 10.4517 38.2408 10.8807 38.2408 11.3807C38.2408 11.8864 38.0476 12.321 37.6612 12.6847C37.2805 13.0426 36.8203 13.2216 36.2805 13.2216ZM51.8878 18.642L48.5639 18.8466C48.5071 18.5625 48.3849 18.3068 48.1974 18.0795C48.0099 17.8466 47.7628 17.6619 47.456 17.5256C47.1548 17.3835 46.794 17.3125 46.3736 17.3125C45.8111 17.3125 45.3366 17.4318 44.9503 17.6705C44.5639 17.9034 44.3707 18.2159 44.3707 18.608C44.3707 18.9205 44.4957 19.1847 44.7457 19.4006C44.9957 19.6165 45.4247 19.7898 46.0327 19.9205L48.402 20.3977C49.6747 20.6591 50.6236 21.0795 51.2486 21.6591C51.8736 22.2386 52.1861 23 52.1861 23.9432C52.1861 24.8011 51.9332 25.554 51.4276 26.2017C50.9276 26.8494 50.2401 27.3551 49.3651 27.7188C48.4957 28.0767 47.4929 28.2557 46.3565 28.2557C44.6236 28.2557 43.2429 27.8949 42.2145 27.1733C41.1918 26.446 40.5923 25.4574 40.4162 24.2074L43.9872 24.0199C44.0952 24.5483 44.3565 24.9517 44.7713 25.2301C45.1861 25.5028 45.7173 25.6392 46.3651 25.6392C47.0014 25.6392 47.5128 25.517 47.8991 25.2727C48.2912 25.0227 48.4901 24.7017 48.4957 24.3097C48.4901 23.9801 48.3509 23.7102 48.0781 23.5C47.8054 23.2841 47.3849 23.1193 46.8168 23.0057L44.5497 22.554C43.2713 22.2983 42.3196 21.8551 41.6946 21.2244C41.0753 20.5937 40.7656 19.7898 40.7656 18.8125C40.7656 17.9716 40.9929 17.2472 41.4474 16.6392C41.9077 16.0312 42.5526 15.5625 43.3821 15.233C44.2173 14.9034 45.1946 14.7386 46.3139 14.7386C47.9673 14.7386 49.2685 15.0881 50.2173 15.7869C51.1719 16.4858 51.7287 17.4375 51.8878 18.642ZM60.027 28V14.9091H63.6577V28H60.027ZM61.8509 13.2216C61.3111 13.2216 60.848 13.0426 60.4616 12.6847C60.081 12.321 59.8906 11.8864 59.8906 11.3807C59.8906 10.8807 60.081 10.4517 60.4616 10.0938C60.848 9.73011 61.3111 9.54829 61.8509 9.54829C62.3906 9.54829 62.8509 9.73011 63.2315 10.0938C63.6179 10.4517 63.8111 10.8807 63.8111 11.3807C63.8111 11.8864 63.6179 12.321 63.2315 12.6847C62.8509 13.0426 62.3906 13.2216 61.8509 13.2216ZM77.4581 18.642L74.1342 18.8466C74.0774 18.5625 73.9553 18.3068 73.7678 18.0795C73.5803 17.8466 73.3331 17.6619 73.0263 17.5256C72.7251 17.3835 72.3643 17.3125 71.9439 17.3125C71.3814 17.3125 70.907 17.4318 70.5206 17.6705C70.1342 17.9034 69.9411 18.2159 69.9411 18.608C69.9411 18.9205 70.0661 19.1847 70.3161 19.4006C70.5661 19.6165 70.995 19.7898 71.603 19.9205L73.9723 20.3977C75.245 20.6591 76.1939 21.0795 76.8189 21.6591C77.4439 22.2386 77.7564 23 77.7564 23.9432C77.7564 24.8011 77.5036 25.554 76.9979 26.2017C76.4979 26.8494 75.8104 27.3551 74.9354 27.7188C74.0661 28.0767 73.0632 28.2557 71.9268 28.2557C70.1939 28.2557 68.8132 27.8949 67.7848 27.1733C66.7621 26.446 66.1626 25.4574 65.9865 24.2074L69.5575 24.0199C69.6655 24.5483 69.9268 24.9517 70.3416 25.2301C70.7564 25.5028 71.2876 25.6392 71.9354 25.6392C72.5717 25.6392 73.0831 25.517 73.4695 25.2727C73.8615 25.0227 74.0604 24.7017 74.0661 24.3097C74.0604 23.9801 73.9212 23.7102 73.6484 23.5C73.3757 23.2841 72.9553 23.1193 72.3871 23.0057L70.12 22.554C68.8416 22.2983 67.8899 21.8551 67.2649 21.2244C66.6456 20.5937 66.3359 19.7898 66.3359 18.8125C66.3359 17.9716 66.5632 17.2472 67.0178 16.6392C67.478 16.0312 68.1229 15.5625 68.9524 15.233C69.7876 14.9034 70.7649 14.7386 71.8842 14.7386C73.5376 14.7386 74.8388 15.0881 75.7876 15.7869C76.7422 16.4858 77.299 17.4375 77.4581 18.642ZM89.3303 28.2472C88.495 28.2472 87.7507 28.1023 87.0973 27.8125C86.4439 27.517 85.9268 27.0824 85.5462 26.5085C85.1712 25.929 84.9837 25.2074 84.9837 24.3438C84.9837 23.6165 85.1172 23.0057 85.3842 22.5114C85.6513 22.017 86.0149 21.6193 86.4751 21.3182C86.9354 21.017 87.4581 20.7898 88.0433 20.6364C88.6342 20.483 89.2536 20.375 89.9013 20.3125C90.6626 20.233 91.2763 20.1591 91.7422 20.0909C92.2081 20.017 92.5462 19.9091 92.7564 19.767C92.9666 19.625 93.0717 19.4148 93.0717 19.1364V19.0852C93.0717 18.5455 92.9013 18.1278 92.5604 17.8324C92.2251 17.5369 91.7479 17.3892 91.1286 17.3892C90.4751 17.3892 89.9553 17.5341 89.5689 17.8239C89.1825 18.108 88.9268 18.4659 88.8018 18.8977L85.4439 18.625C85.6143 17.8295 85.9496 17.142 86.4496 16.5625C86.9496 15.9773 87.5945 15.5284 88.3842 15.2159C89.1797 14.8977 90.1001 14.7386 91.1456 14.7386C91.8729 14.7386 92.5689 14.8239 93.2337 14.9943C93.9041 15.1648 94.4979 15.429 95.0149 15.7869C95.5376 16.1449 95.9496 16.6051 96.2507 17.1676C96.5518 17.7244 96.7024 18.392 96.7024 19.1705V28H93.2592V26.1847H93.157C92.9467 26.5938 92.6655 26.9545 92.3132 27.267C91.9609 27.5739 91.5376 27.8153 91.0433 27.9915C90.549 28.1619 89.978 28.2472 89.3303 28.2472ZM90.37 25.7415C90.9041 25.7415 91.3757 25.6364 91.7848 25.4261C92.1939 25.2102 92.5149 24.9205 92.7479 24.5568C92.9808 24.1932 93.0973 23.7812 93.0973 23.321V21.9318C92.9837 22.0057 92.8274 22.0739 92.6286 22.1364C92.4354 22.1932 92.2166 22.2472 91.9723 22.2983C91.728 22.3437 91.4837 22.3864 91.2393 22.4261C90.995 22.4602 90.7734 22.4915 90.5746 22.5199C90.1484 22.5824 89.7763 22.6818 89.4581 22.8182C89.1399 22.9545 88.8928 23.1392 88.7166 23.3722C88.5405 23.5994 88.4524 23.8835 88.4524 24.2244C88.4524 24.7188 88.6314 25.0966 88.9893 25.358C89.353 25.6136 89.8132 25.7415 90.37 25.7415ZM104.477 13.5881V10.5455H118.812V13.5881H113.469V28H109.821V13.5881H104.477ZM125.173 28.2557C123.826 28.2557 122.667 27.983 121.695 27.4375C120.729 26.8864 119.985 26.108 119.462 25.1023C118.94 24.0909 118.678 22.8949 118.678 21.5142C118.678 20.1676 118.94 18.9858 119.462 17.9688C119.985 16.9517 120.721 16.1591 121.67 15.5909C122.624 15.0227 123.744 14.7386 125.028 14.7386C125.891 14.7386 126.695 14.8778 127.44 15.1562C128.19 15.429 128.843 15.8409 129.4 16.392C129.962 16.9432 130.4 17.6364 130.712 18.4716C131.025 19.3011 131.181 20.2727 131.181 21.3864V22.3835H120.127V20.1335H127.763C127.763 19.6108 127.65 19.1477 127.423 18.7443C127.195 18.3409 126.88 18.0256 126.477 17.7983C126.079 17.5653 125.616 17.4489 125.087 17.4489C124.536 17.4489 124.048 17.5767 123.621 17.8324C123.201 18.0824 122.871 18.4205 122.633 18.8466C122.394 19.267 122.272 19.7358 122.266 20.2528V22.392C122.266 23.0398 122.386 23.5994 122.624 24.071C122.869 24.5426 123.212 24.9062 123.656 25.1619C124.099 25.4176 124.624 25.5455 125.232 25.5455C125.636 25.5455 126.005 25.4886 126.34 25.375C126.675 25.2614 126.962 25.0909 127.201 24.8636C127.44 24.6364 127.621 24.358 127.746 24.0284L131.104 24.25C130.934 25.0568 130.585 25.7614 130.056 26.3636C129.533 26.9602 128.857 27.4261 128.028 27.7614C127.204 28.0909 126.252 28.2557 125.173 28.2557ZM136.35 14.9091L138.754 19.4858L141.217 14.9091H144.941L141.148 21.4545L145.043 28H141.336L138.754 23.4744L136.214 28H132.464L136.35 21.4545L132.6 14.9091H136.35ZM154.06 14.9091V17.6364H146.177V14.9091H154.06ZM147.967 11.7727H151.597V23.9773C151.597 24.3125 151.648 24.5739 151.751 24.7614C151.853 24.9432 151.995 25.071 152.177 25.1449C152.364 25.2187 152.58 25.2557 152.825 25.2557C152.995 25.2557 153.165 25.2415 153.336 25.2131C153.506 25.179 153.637 25.1534 153.728 25.1364L154.299 27.8381C154.117 27.8949 153.862 27.9602 153.532 28.0341C153.202 28.1136 152.802 28.1619 152.33 28.179C151.455 28.2131 150.688 28.0966 150.029 27.8295C149.376 27.5625 148.867 27.1477 148.504 26.5852C148.14 26.0227 147.961 25.3125 147.967 24.4545V11.7727ZM167.895 28.2557C166.554 28.2557 165.401 27.9716 164.435 27.4034C163.474 26.8295 162.736 26.0341 162.219 25.017C161.707 24 161.452 22.8295 161.452 21.5057C161.452 20.1648 161.71 18.9886 162.227 17.9773C162.75 16.9602 163.491 16.1676 164.452 15.5994C165.412 15.0256 166.554 14.7386 167.878 14.7386C169.02 14.7386 170.02 14.946 170.878 15.3608C171.736 15.7756 172.415 16.358 172.915 17.108C173.415 17.858 173.69 18.7386 173.741 19.75H170.315C170.219 19.0966 169.963 18.571 169.548 18.1733C169.139 17.7699 168.602 17.5682 167.938 17.5682C167.375 17.5682 166.884 17.7216 166.463 18.0284C166.048 18.3295 165.724 18.7699 165.491 19.3494C165.259 19.929 165.142 20.6307 165.142 21.4545C165.142 22.2898 165.256 23 165.483 23.5852C165.716 24.1705 166.043 24.6165 166.463 24.9233C166.884 25.2301 167.375 25.3835 167.938 25.3835C168.352 25.3835 168.724 25.2983 169.054 25.1278C169.389 24.9574 169.665 24.7102 169.881 24.3864C170.102 24.0568 170.247 23.6619 170.315 23.2017H173.741C173.685 24.2017 173.412 25.0824 172.923 25.8438C172.44 26.5994 171.773 27.1903 170.92 27.6165C170.068 28.0426 169.06 28.2557 167.895 28.2557ZM181.981 28.2557C180.657 28.2557 179.512 27.9744 178.546 27.4119C177.586 26.8437 176.844 26.054 176.322 25.0426C175.799 24.0256 175.538 22.8466 175.538 21.5057C175.538 20.1534 175.799 18.9716 176.322 17.9602C176.844 16.9432 177.586 16.1534 178.546 15.5909C179.512 15.0227 180.657 14.7386 181.981 14.7386C183.305 14.7386 184.447 15.0227 185.407 15.5909C186.373 16.1534 187.117 16.9432 187.64 17.9602C188.163 18.9716 188.424 20.1534 188.424 21.5057C188.424 22.8466 188.163 24.0256 187.64 25.0426C187.117 26.054 186.373 26.8437 185.407 27.4119C184.447 27.9744 183.305 28.2557 181.981 28.2557ZM181.998 25.4432C182.6 25.4432 183.103 25.2727 183.506 24.9318C183.91 24.5852 184.214 24.1136 184.418 23.517C184.629 22.9205 184.734 22.2415 184.734 21.4801C184.734 20.7188 184.629 20.0398 184.418 19.4432C184.214 18.8466 183.91 18.375 183.506 18.0284C183.103 17.6818 182.6 17.5085 181.998 17.5085C181.39 17.5085 180.879 17.6818 180.464 18.0284C180.055 18.375 179.745 18.8466 179.535 19.4432C179.33 20.0398 179.228 20.7188 179.228 21.4801C179.228 22.2415 179.33 22.9205 179.535 23.517C179.745 24.1136 180.055 24.5852 180.464 24.9318C180.879 25.2727 181.39 25.4432 181.998 25.4432ZM190.785 28V14.9091H194.245V17.2188H194.398C194.671 16.4517 195.126 15.8466 195.762 15.4034C196.398 14.9602 197.16 14.7386 198.046 14.7386C198.944 14.7386 199.708 14.9631 200.339 15.4119C200.969 15.8551 201.39 16.4574 201.6 17.2188H201.737C202.004 16.4688 202.487 15.8693 203.185 15.4205C203.89 14.9659 204.722 14.7386 205.683 14.7386C206.904 14.7386 207.896 15.1278 208.657 15.9062C209.424 16.679 209.808 17.7756 209.808 19.196V28H206.185V19.9119C206.185 19.1847 205.992 18.6392 205.606 18.2756C205.219 17.9119 204.737 17.7301 204.157 17.7301C203.498 17.7301 202.984 17.9403 202.614 18.3608C202.245 18.7756 202.06 19.3239 202.06 20.0057V28H198.54V19.8352C198.54 19.1932 198.356 18.6818 197.987 18.3011C197.623 17.9205 197.143 17.7301 196.546 17.7301C196.143 17.7301 195.779 17.8324 195.455 18.0369C195.137 18.2358 194.884 18.517 194.697 18.8807C194.509 19.2386 194.415 19.6591 194.415 20.142V28H190.785ZM212.675 32.9091V14.9091H216.255V17.108H216.417C216.576 16.7557 216.806 16.3977 217.107 16.0341C217.414 15.6648 217.812 15.358 218.3 15.1136C218.795 14.8636 219.408 14.7386 220.141 14.7386C221.096 14.7386 221.977 14.9886 222.783 15.4886C223.59 15.983 224.235 16.7301 224.718 17.7301C225.201 18.7244 225.442 19.9716 225.442 21.4716C225.442 22.9318 225.207 24.1648 224.735 25.1705C224.269 26.1705 223.633 26.929 222.826 27.446C222.025 27.9574 221.127 28.2131 220.133 28.2131C219.428 28.2131 218.829 28.0966 218.335 27.8636C217.846 27.6307 217.445 27.3381 217.133 26.9858C216.82 26.6278 216.582 26.267 216.417 25.9034H216.306V32.9091H212.675ZM216.229 21.4545C216.229 22.233 216.337 22.9119 216.553 23.4915C216.769 24.071 217.082 24.5227 217.491 24.8466C217.9 25.1648 218.397 25.3239 218.982 25.3239C219.573 25.3239 220.073 25.1619 220.482 24.8381C220.891 24.5085 221.201 24.054 221.411 23.4744C221.627 22.8892 221.735 22.2159 221.735 21.4545C221.735 20.6989 221.63 20.0341 221.42 19.4602C221.21 18.8864 220.9 18.4375 220.491 18.1136C220.082 17.7898 219.579 17.6278 218.982 17.6278C218.391 17.6278 217.891 17.7841 217.482 18.0966C217.079 18.4091 216.769 18.8523 216.553 19.4261C216.337 20 216.229 20.6761 216.229 21.4545ZM233.778 28.2557C232.454 28.2557 231.309 27.9744 230.343 27.4119C229.383 26.8437 228.641 26.054 228.119 25.0426C227.596 24.0256 227.335 22.8466 227.335 21.5057C227.335 20.1534 227.596 18.9716 228.119 17.9602C228.641 16.9432 229.383 16.1534 230.343 15.5909C231.309 15.0227 232.454 14.7386 233.778 14.7386C235.102 14.7386 236.244 15.0227 237.204 15.5909C238.17 16.1534 238.914 16.9432 239.437 17.9602C239.96 18.9716 240.221 20.1534 240.221 21.5057C240.221 22.8466 239.96 24.0256 239.437 25.0426C238.914 26.054 238.17 26.8437 237.204 27.4119C236.244 27.9744 235.102 28.2557 233.778 28.2557ZM233.795 25.4432C234.397 25.4432 234.9 25.2727 235.303 24.9318C235.707 24.5852 236.011 24.1136 236.215 23.517C236.425 22.9205 236.531 22.2415 236.531 21.4801C236.531 20.7188 236.425 20.0398 236.215 19.4432C236.011 18.8466 235.707 18.375 235.303 18.0284C234.9 17.6818 234.397 17.5085 233.795 17.5085C233.187 17.5085 232.675 17.6818 232.261 18.0284C231.852 18.375 231.542 18.8466 231.332 19.4432C231.127 20.0398 231.025 20.7188 231.025 21.4801C231.025 22.2415 231.127 22.9205 231.332 23.517C231.542 24.1136 231.852 24.5852 232.261 24.9318C232.675 25.2727 233.187 25.4432 233.795 25.4432ZM253.474 18.642L250.15 18.8466C250.093 18.5625 249.971 18.3068 249.783 18.0795C249.596 17.8466 249.349 17.6619 249.042 17.5256C248.741 17.3835 248.38 17.3125 247.96 17.3125C247.397 17.3125 246.923 17.4318 246.536 17.6705C246.15 17.9034 245.957 18.2159 245.957 18.608C245.957 18.9205 246.082 19.1847 246.332 19.4006C246.582 19.6165 247.011 19.7898 247.619 19.9205L249.988 20.3977C251.261 20.6591 252.21 21.0795 252.835 21.6591C253.46 22.2386 253.772 23 253.772 23.9432C253.772 24.8011 253.519 25.554 253.013 26.2017C252.513 26.8494 251.826 27.3551 250.951 27.7188C250.082 28.0767 249.079 28.2557 247.942 28.2557C246.21 28.2557 244.829 27.8949 243.8 27.1733C242.778 26.446 242.178 25.4574 242.002 24.2074L245.573 24.0199C245.681 24.5483 245.942 24.9517 246.357 25.2301C246.772 25.5028 247.303 25.6392 247.951 25.6392C248.587 25.6392 249.099 25.517 249.485 25.2727C249.877 25.0227 250.076 24.7017 250.082 24.3097C250.076 23.9801 249.937 23.7102 249.664 23.5C249.391 23.2841 248.971 23.1193 248.403 23.0057L246.136 22.554C244.857 22.2983 243.906 21.8551 243.281 21.2244C242.661 20.5937 242.352 19.7898 242.352 18.8125C242.352 17.9716 242.579 17.2472 243.033 16.6392C243.494 16.0312 244.138 15.5625 244.968 15.233C245.803 14.9034 246.781 14.7386 247.9 14.7386C249.553 14.7386 250.854 15.0881 251.803 15.7869C252.758 16.4858 253.315 17.4375 253.474 18.642ZM259.791 28.2472C258.956 28.2472 258.212 28.1023 257.558 27.8125C256.905 27.517 256.388 27.0824 256.007 26.5085C255.632 25.929 255.445 25.2074 255.445 24.3438C255.445 23.6165 255.578 23.0057 255.845 22.5114C256.112 22.017 256.476 21.6193 256.936 21.3182C257.396 21.017 257.919 20.7898 258.504 20.6364C259.095 20.483 259.714 20.375 260.362 20.3125C261.124 20.233 261.737 20.1591 262.203 20.0909C262.669 20.017 263.007 19.9091 263.217 19.767C263.428 19.625 263.533 19.4148 263.533 19.1364V19.0852C263.533 18.5455 263.362 18.1278 263.021 17.8324C262.686 17.5369 262.209 17.3892 261.589 17.3892C260.936 17.3892 260.416 17.5341 260.03 17.8239C259.643 18.108 259.388 18.4659 259.263 18.8977L255.905 18.625C256.075 17.8295 256.411 17.142 256.911 16.5625C257.411 15.9773 258.055 15.5284 258.845 15.2159C259.641 14.8977 260.561 14.7386 261.607 14.7386C262.334 14.7386 263.03 14.8239 263.695 14.9943C264.365 15.1648 264.959 15.429 265.476 15.7869C265.999 16.1449 266.411 16.6051 266.712 17.1676C267.013 17.7244 267.163 18.392 267.163 19.1705V28H263.72V26.1847H263.618C263.408 26.5938 263.126 26.9545 262.774 27.267C262.422 27.5739 261.999 27.8153 261.504 27.9915C261.01 28.1619 260.439 28.2472 259.791 28.2472ZM260.831 25.7415C261.365 25.7415 261.837 25.6364 262.246 25.4261C262.655 25.2102 262.976 24.9205 263.209 24.5568C263.442 24.1932 263.558 23.7812 263.558 23.321V21.9318C263.445 22.0057 263.288 22.0739 263.089 22.1364C262.896 22.1932 262.678 22.2472 262.433 22.2983C262.189 22.3437 261.945 22.3864 261.7 22.4261C261.456 22.4602 261.234 22.4915 261.036 22.5199C260.609 22.5824 260.237 22.6818 259.919 22.8182C259.601 22.9545 259.354 23.1392 259.178 23.3722C259.001 23.5994 258.913 23.8835 258.913 24.2244C258.913 24.7188 259.092 25.0966 259.45 25.358C259.814 25.6136 260.274 25.7415 260.831 25.7415ZM270.048 28V10.5455H273.679V17.108H273.79C273.949 16.7557 274.179 16.3977 274.48 16.0341C274.787 15.6648 275.185 15.358 275.673 15.1136C276.168 14.8636 276.781 14.7386 277.514 14.7386C278.469 14.7386 279.349 14.9886 280.156 15.4886C280.963 15.983 281.608 16.7301 282.091 17.7301C282.574 18.7244 282.815 19.9716 282.815 21.4716C282.815 22.9318 282.58 24.1648 282.108 25.1705C281.642 26.1705 281.006 26.929 280.199 27.446C279.398 27.9574 278.5 28.2131 277.506 28.2131C276.801 28.2131 276.202 28.0966 275.707 27.8636C275.219 27.6307 274.818 27.3381 274.506 26.9858C274.193 26.6278 273.955 26.267 273.79 25.9034H273.628V28H270.048ZM273.602 21.4545C273.602 22.233 273.71 22.9119 273.926 23.4915C274.142 24.071 274.455 24.5227 274.864 24.8466C275.273 25.1648 275.77 25.3239 276.355 25.3239C276.946 25.3239 277.446 25.1619 277.855 24.8381C278.264 24.5085 278.574 24.054 278.784 23.4744C279 22.8892 279.108 22.2159 279.108 21.4545C279.108 20.6989 279.003 20.0341 278.793 19.4602C278.582 18.8864 278.273 18.4375 277.864 18.1136C277.455 17.7898 276.952 17.6278 276.355 17.6278C275.764 17.6278 275.264 17.7841 274.855 18.0966C274.452 18.4091 274.142 18.8523 273.926 19.4261C273.71 20 273.602 20.6761 273.602 21.4545ZM288.869 10.5455V28H285.238V10.5455H288.869ZM297.743 28.2557C296.396 28.2557 295.237 27.983 294.266 27.4375C293.3 26.8864 292.555 26.108 292.033 25.1023C291.51 24.0909 291.249 22.8949 291.249 21.5142C291.249 20.1676 291.51 18.9858 292.033 17.9688C292.555 16.9517 293.291 16.1591 294.24 15.5909C295.195 15.0227 296.314 14.7386 297.598 14.7386C298.462 14.7386 299.266 14.8778 300.01 15.1562C300.76 15.429 301.413 15.8409 301.97 16.392C302.533 16.9432 302.97 17.6364 303.283 18.4716C303.595 19.3011 303.751 20.2727 303.751 21.3864V22.3835H292.697V20.1335H300.334C300.334 19.6108 300.22 19.1477 299.993 18.7443C299.766 18.3409 299.45 18.0256 299.047 17.7983C298.649 17.5653 298.186 17.4489 297.658 17.4489C297.107 17.4489 296.618 17.5767 296.192 17.8324C295.771 18.0824 295.442 18.4205 295.203 18.8466C294.964 19.267 294.842 19.7358 294.837 20.2528V22.392C294.837 23.0398 294.956 23.5994 295.195 24.071C295.439 24.5426 295.783 24.9062 296.226 25.1619C296.669 25.4176 297.195 25.5455 297.803 25.5455C298.206 25.5455 298.575 25.4886 298.911 25.375C299.246 25.2614 299.533 25.0909 299.771 24.8636C300.01 24.6364 300.192 24.358 300.317 24.0284L303.675 24.25C303.504 25.0568 303.155 25.7614 302.626 26.3636C302.104 26.9602 301.428 27.4261 300.598 27.7614C299.774 28.0909 298.822 28.2557 297.743 28.2557ZM317.59 28.2557C316.249 28.2557 315.096 27.9716 314.13 27.4034C313.17 26.8295 312.431 26.0341 311.914 25.017C311.403 24 311.147 22.8295 311.147 21.5057C311.147 20.1648 311.406 18.9886 311.923 17.9773C312.445 16.9602 313.187 16.1676 314.147 15.5994C315.107 15.0256 316.249 14.7386 317.573 14.7386C318.715 14.7386 319.715 14.946 320.573 15.3608C321.431 15.7756 322.11 16.358 322.61 17.108C323.11 17.858 323.386 18.7386 323.437 19.75H320.011C319.914 19.0966 319.658 18.571 319.244 18.1733C318.835 17.7699 318.298 17.5682 317.633 17.5682C317.07 17.5682 316.579 17.7216 316.158 18.0284C315.744 18.3295 315.42 18.7699 315.187 19.3494C314.954 19.929 314.837 20.6307 314.837 21.4545C314.837 22.2898 314.951 23 315.178 23.5852C315.411 24.1705 315.738 24.6165 316.158 24.9233C316.579 25.2301 317.07 25.3835 317.633 25.3835C318.048 25.3835 318.42 25.2983 318.749 25.1278C319.085 24.9574 319.36 24.7102 319.576 24.3864C319.798 24.0568 319.942 23.6619 320.011 23.2017H323.437C323.38 24.2017 323.107 25.0824 322.619 25.8438C322.136 26.5994 321.468 27.1903 320.616 27.6165C319.763 28.0426 318.755 28.2557 317.59 28.2557ZM331.676 28.2557C330.352 28.2557 329.207 27.9744 328.241 27.4119C327.281 26.8437 326.54 26.054 326.017 25.0426C325.494 24.0256 325.233 22.8466 325.233 21.5057C325.233 20.1534 325.494 18.9716 326.017 17.9602C326.54 16.9432 327.281 16.1534 328.241 15.5909C329.207 15.0227 330.352 14.7386 331.676 14.7386C333 14.7386 334.142 15.0227 335.102 15.5909C336.068 16.1534 336.812 16.9432 337.335 17.9602C337.858 18.9716 338.119 20.1534 338.119 21.5057C338.119 22.8466 337.858 24.0256 337.335 25.0426C336.812 26.054 336.068 26.8437 335.102 27.4119C334.142 27.9744 333 28.2557 331.676 28.2557ZM331.693 25.4432C332.295 25.4432 332.798 25.2727 333.202 24.9318C333.605 24.5852 333.909 24.1136 334.114 23.517C334.324 22.9205 334.429 22.2415 334.429 21.4801C334.429 20.7188 334.324 20.0398 334.114 19.4432C333.909 18.8466 333.605 18.375 333.202 18.0284C332.798 17.6818 332.295 17.5085 331.693 17.5085C331.085 17.5085 330.574 17.6818 330.159 18.0284C329.75 18.375 329.44 18.8466 329.23 19.4432C329.026 20.0398 328.923 20.7188 328.923 21.4801C328.923 22.2415 329.026 22.9205 329.23 23.517C329.44 24.1136 329.75 24.5852 330.159 24.9318C330.574 25.2727 331.085 25.4432 331.693 25.4432ZM344.111 20.4318V28H340.48V14.9091H343.94V17.2188H344.094C344.384 16.4574 344.869 15.8551 345.551 15.4119C346.233 14.9631 347.06 14.7386 348.031 14.7386C348.94 14.7386 349.733 14.9375 350.409 15.3352C351.085 15.733 351.611 16.3011 351.986 17.0398C352.361 17.7727 352.548 18.6477 352.548 19.6648V28H348.918V20.3125C348.923 19.5114 348.719 18.8864 348.304 18.4375C347.889 17.983 347.318 17.7557 346.591 17.7557C346.102 17.7557 345.67 17.8608 345.295 18.071C344.926 18.2812 344.636 18.5881 344.426 18.9915C344.222 19.3892 344.116 19.8693 344.111 20.4318ZM362.373 14.9091V17.6364H354.489V14.9091H362.373ZM356.279 11.7727H359.91V23.9773C359.91 24.3125 359.961 24.5739 360.063 24.7614C360.165 24.9432 360.308 25.071 360.489 25.1449C360.677 25.2187 360.893 25.2557 361.137 25.2557C361.308 25.2557 361.478 25.2415 361.648 25.2131C361.819 25.179 361.95 25.1534 362.04 25.1364L362.612 27.8381C362.43 27.8949 362.174 27.9602 361.844 28.0341C361.515 28.1136 361.114 28.1619 360.643 28.179C359.768 28.2131 359.001 28.0966 358.342 27.8295C357.688 27.5625 357.18 27.1477 356.816 26.5852C356.452 26.0227 356.273 25.3125 356.279 24.4545V11.7727ZM368.471 28.2472C367.636 28.2472 366.891 28.1023 366.238 27.8125C365.585 27.517 365.067 27.0824 364.687 26.5085C364.312 25.929 364.124 25.2074 364.124 24.3438C364.124 23.6165 364.258 23.0057 364.525 22.5114C364.792 22.017 365.156 21.6193 365.616 21.3182C366.076 21.017 366.599 20.7898 367.184 20.6364C367.775 20.483 368.394 20.375 369.042 20.3125C369.803 20.233 370.417 20.1591 370.883 20.0909C371.349 20.017 371.687 19.9091 371.897 19.767C372.107 19.625 372.212 19.4148 372.212 19.1364V19.0852C372.212 18.5455 372.042 18.1278 371.701 17.8324C371.366 17.5369 370.888 17.3892 370.269 17.3892C369.616 17.3892 369.096 17.5341 368.71 17.8239C368.323 18.108 368.067 18.4659 367.942 18.8977L364.585 18.625C364.755 17.8295 365.09 17.142 365.59 16.5625C366.09 15.9773 366.735 15.5284 367.525 15.2159C368.32 14.8977 369.241 14.7386 370.286 14.7386C371.013 14.7386 371.71 14.8239 372.374 14.9943C373.045 15.1648 373.638 15.429 374.156 15.7869C374.678 16.1449 375.09 16.6051 375.391 17.1676C375.692 17.7244 375.843 18.392 375.843 19.1705V28H372.4V26.1847H372.298C372.087 26.5938 371.806 26.9545 371.454 27.267C371.102 27.5739 370.678 27.8153 370.184 27.9915C369.69 28.1619 369.119 28.2472 368.471 28.2472ZM369.511 25.7415C370.045 25.7415 370.516 25.6364 370.925 25.4261C371.335 25.2102 371.656 24.9205 371.888 24.5568C372.121 24.1932 372.238 23.7812 372.238 23.321V21.9318C372.124 22.0057 371.968 22.0739 371.769 22.1364C371.576 22.1932 371.357 22.2472 371.113 22.2983C370.869 22.3437 370.624 22.3864 370.38 22.4261C370.136 22.4602 369.914 22.4915 369.715 22.5199C369.289 22.5824 368.917 22.6818 368.599 22.8182C368.281 22.9545 368.033 23.1392 367.857 23.3722C367.681 23.5994 367.593 23.8835 367.593 24.2244C367.593 24.7188 367.772 25.0966 368.13 25.358C368.494 25.6136 368.954 25.7415 369.511 25.7415ZM378.66 28V14.9091H382.29V28H378.66ZM380.484 13.2216C379.944 13.2216 379.481 13.0426 379.094 12.6847C378.714 12.321 378.523 11.8864 378.523 11.3807C378.523 10.8807 378.714 10.4517 379.094 10.0938C379.481 9.73011 379.944 9.54829 380.484 9.54829C381.023 9.54829 381.484 9.73011 381.864 10.0938C382.251 10.4517 382.444 10.8807 382.444 11.3807C382.444 11.8864 382.251 12.321 381.864 12.6847C381.484 13.0426 381.023 13.2216 380.484 13.2216ZM388.83 20.4318V28H385.199V14.9091H388.659V17.2188H388.812C389.102 16.4574 389.588 15.8551 390.27 15.4119C390.952 14.9631 391.778 14.7386 392.75 14.7386C393.659 14.7386 394.452 14.9375 395.128 15.3352C395.804 15.733 396.33 16.3011 396.705 17.0398C397.08 17.7727 397.267 18.6477 397.267 19.6648V28H393.636V20.3125C393.642 19.5114 393.438 18.8864 393.023 18.4375C392.608 17.983 392.037 17.7557 391.31 17.7557C390.821 17.7557 390.389 17.8608 390.014 18.071C389.645 18.2812 389.355 18.5881 389.145 18.9915C388.94 19.3892 388.835 19.8693 388.83 20.4318ZM400.129 28V14.9091H403.759V28H400.129ZM401.952 13.2216C401.413 13.2216 400.95 13.0426 400.563 12.6847C400.183 12.321 399.992 11.8864 399.992 11.3807C399.992 10.8807 400.183 10.4517 400.563 10.0938C400.95 9.73011 401.413 9.54829 401.952 9.54829C402.492 9.54829 402.952 9.73011 403.333 10.0938C403.719 10.4517 403.913 10.8807 403.913 11.3807C403.913 11.8864 403.719 12.321 403.333 12.6847C402.952 13.0426 402.492 13.2216 401.952 13.2216ZM410.298 20.4318V28H406.668V14.9091H410.128V17.2188H410.281C410.571 16.4574 411.057 15.8551 411.739 15.4119C412.42 14.9631 413.247 14.7386 414.219 14.7386C415.128 14.7386 415.92 14.9375 416.597 15.3352C417.273 15.733 417.798 16.3011 418.173 17.0398C418.548 17.7727 418.736 18.6477 418.736 19.6648V28H415.105V20.3125C415.111 19.5114 414.906 18.8864 414.491 18.4375C414.077 17.983 413.506 17.7557 412.778 17.7557C412.29 17.7557 411.858 17.8608 411.483 18.071C411.114 18.2812 410.824 18.5881 410.614 18.9915C410.409 19.3892 410.304 19.8693 410.298 20.4318ZM427.495 33.1818C426.319 33.1818 425.31 33.0199 424.469 32.696C423.634 32.3778 422.969 31.9432 422.475 31.392C421.981 30.8409 421.66 30.2216 421.512 29.5341L424.87 29.0824C424.972 29.3438 425.134 29.5881 425.356 29.8153C425.577 30.0426 425.87 30.2244 426.234 30.3608C426.603 30.5028 427.052 30.5739 427.58 30.5739C428.37 30.5739 429.021 30.3807 429.532 29.9943C430.049 29.6136 430.308 28.9744 430.308 28.0767V25.6818H430.154C429.995 26.0455 429.756 26.3892 429.438 26.7131C429.12 27.0369 428.711 27.3011 428.211 27.5057C427.711 27.7102 427.114 27.8125 426.421 27.8125C425.438 27.8125 424.543 27.5852 423.737 27.1307C422.935 26.6705 422.296 25.9687 421.819 25.0256C421.347 24.0767 421.112 22.8778 421.112 21.429C421.112 19.946 421.353 18.7074 421.836 17.7131C422.319 16.7187 422.961 15.9744 423.762 15.4801C424.569 14.9858 425.452 14.7386 426.413 14.7386C427.146 14.7386 427.759 14.8636 428.254 15.1136C428.748 15.358 429.146 15.6648 429.447 16.0341C429.754 16.3977 429.989 16.7557 430.154 17.108H430.29V14.9091H433.896V28.1278C433.896 29.2415 433.623 30.1733 433.077 30.9233C432.532 31.6733 431.776 32.2358 430.81 32.6108C429.85 32.9915 428.745 33.1818 427.495 33.1818ZM427.572 25.0852C428.157 25.0852 428.651 24.9403 429.055 24.6506C429.464 24.3551 429.776 23.9347 429.992 23.3892C430.214 22.8381 430.325 22.179 430.325 21.4119C430.325 20.6449 430.217 19.9801 430.001 19.4176C429.785 18.8494 429.472 18.4091 429.063 18.0966C428.654 17.7841 428.157 17.6278 427.572 17.6278C426.975 17.6278 426.472 17.7898 426.063 18.1136C425.654 18.4318 425.344 18.875 425.134 19.4432C424.924 20.0114 424.819 20.6676 424.819 21.4119C424.819 22.1676 424.924 22.821 425.134 23.3722C425.35 23.9176 425.66 24.3409 426.063 24.642C426.472 24.9375 426.975 25.0852 427.572 25.0852ZM446.072 28.2472C445.237 28.2472 444.493 28.1023 443.839 27.8125C443.186 27.517 442.669 27.0824 442.288 26.5085C441.913 25.929 441.726 25.2074 441.726 24.3438C441.726 23.6165 441.859 23.0057 442.126 22.5114C442.393 22.017 442.757 21.6193 443.217 21.3182C443.678 21.017 444.2 20.7898 444.786 20.6364C445.376 20.483 445.996 20.375 446.643 20.3125C447.405 20.233 448.018 20.1591 448.484 20.0909C448.95 20.017 449.288 19.9091 449.499 19.767C449.709 19.625 449.814 19.4148 449.814 19.1364V19.0852C449.814 18.5455 449.643 18.1278 449.303 17.8324C448.967 17.5369 448.49 17.3892 447.871 17.3892C447.217 17.3892 446.697 17.5341 446.311 17.8239C445.925 18.108 445.669 18.4659 445.544 18.8977L442.186 18.625C442.357 17.8295 442.692 17.142 443.192 16.5625C443.692 15.9773 444.337 15.5284 445.126 15.2159C445.922 14.8977 446.842 14.7386 447.888 14.7386C448.615 14.7386 449.311 14.8239 449.976 14.9943C450.646 15.1648 451.24 15.429 451.757 15.7869C452.28 16.1449 452.692 16.6051 452.993 17.1676C453.294 17.7244 453.445 18.392 453.445 19.1705V28H450.001V26.1847H449.899C449.689 26.5938 449.408 26.9545 449.055 27.267C448.703 27.5739 448.28 27.8153 447.786 27.9915C447.291 28.1619 446.72 28.2472 446.072 28.2472ZM447.112 25.7415C447.646 25.7415 448.118 25.6364 448.527 25.4261C448.936 25.2102 449.257 24.9205 449.49 24.5568C449.723 24.1932 449.839 23.7812 449.839 23.321V21.9318C449.726 22.0057 449.57 22.0739 449.371 22.1364C449.178 22.1932 448.959 22.2472 448.714 22.2983C448.47 22.3437 448.226 22.3864 447.982 22.4261C447.737 22.4602 447.516 22.4915 447.317 22.5199C446.891 22.5824 446.518 22.6818 446.2 22.8182C445.882 22.9545 445.635 23.1392 445.459 23.3722C445.283 23.5994 445.195 23.8835 445.195 24.2244C445.195 24.7188 445.374 25.0966 445.732 25.358C446.095 25.6136 446.555 25.7415 447.112 25.7415ZM465.447 10.5455V28H461.816V10.5455H465.447ZM468.355 28V14.9091H471.986V28H468.355ZM470.179 13.2216C469.639 13.2216 469.176 13.0426 468.79 12.6847C468.409 12.321 468.219 11.8864 468.219 11.3807C468.219 10.8807 468.409 10.4517 468.79 10.0938C469.176 9.73011 469.639 9.54829 470.179 9.54829C470.719 9.54829 471.179 9.73011 471.56 10.0938C471.946 10.4517 472.139 10.8807 472.139 11.3807C472.139 11.8864 471.946 12.321 471.56 12.6847C471.179 13.0426 470.719 13.2216 470.179 13.2216ZM478.525 20.4318V28H474.894V14.9091H478.354V17.2188H478.508C478.798 16.4574 479.283 15.8551 479.965 15.4119C480.647 14.9631 481.474 14.7386 482.445 14.7386C483.354 14.7386 484.147 14.9375 484.823 15.3352C485.499 15.733 486.025 16.3011 486.4 17.0398C486.775 17.7727 486.962 18.6477 486.962 19.6648V28H483.332V20.3125C483.337 19.5114 483.133 18.8864 482.718 18.4375C482.303 17.983 481.732 17.7557 481.005 17.7557C480.516 17.7557 480.085 17.8608 479.71 18.071C479.34 18.2812 479.05 18.5881 478.84 18.9915C478.636 19.3892 478.531 19.8693 478.525 20.4318ZM495.79 28.2557C494.443 28.2557 493.284 27.983 492.312 27.4375C491.347 26.8864 490.602 26.108 490.08 25.1023C489.557 24.0909 489.295 22.8949 489.295 21.5142C489.295 20.1676 489.557 18.9858 490.08 17.9688C490.602 16.9517 491.338 16.1591 492.287 15.5909C493.241 15.0227 494.361 14.7386 495.645 14.7386C496.509 14.7386 497.313 14.8778 498.057 15.1562C498.807 15.429 499.46 15.8409 500.017 16.392C500.58 16.9432 501.017 17.6364 501.33 18.4716C501.642 19.3011 501.798 20.2727 501.798 21.3864V22.3835H490.744V20.1335H498.381C498.381 19.6108 498.267 19.1477 498.04 18.7443C497.813 18.3409 497.497 18.0256 497.094 17.7983C496.696 17.5653 496.233 17.4489 495.705 17.4489C495.153 17.4489 494.665 17.5767 494.239 17.8324C493.818 18.0824 493.489 18.4205 493.25 18.8466C493.011 19.267 492.889 19.7358 492.884 20.2528V22.392C492.884 23.0398 493.003 23.5994 493.241 24.071C493.486 24.5426 493.83 24.9062 494.273 25.1619C494.716 25.4176 495.241 25.5455 495.849 25.5455C496.253 25.5455 496.622 25.4886 496.957 25.375C497.293 25.2614 497.58 25.0909 497.818 24.8636C498.057 24.6364 498.239 24.358 498.364 24.0284L501.722 24.25C501.551 25.0568 501.202 25.7614 500.673 26.3636C500.151 26.9602 499.474 27.4261 498.645 27.7614C497.821 28.0909 496.869 28.2557 495.79 28.2557ZM515.637 28.2557C514.313 28.2557 513.168 27.9744 512.202 27.4119C511.242 26.8437 510.501 26.054 509.978 25.0426C509.455 24.0256 509.194 22.8466 509.194 21.5057C509.194 20.1534 509.455 18.9716 509.978 17.9602C510.501 16.9432 511.242 16.1534 512.202 15.5909C513.168 15.0227 514.313 14.7386 515.637 14.7386C516.961 14.7386 518.103 15.0227 519.063 15.5909C520.029 16.1534 520.773 16.9432 521.296 17.9602C521.819 18.9716 522.08 20.1534 522.08 21.5057C522.08 22.8466 521.819 24.0256 521.296 25.0426C520.773 26.054 520.029 26.8437 519.063 27.4119C518.103 27.9744 516.961 28.2557 515.637 28.2557ZM515.654 25.4432C516.256 25.4432 516.759 25.2727 517.163 24.9318C517.566 24.5852 517.87 24.1136 518.075 23.517C518.285 22.9205 518.39 22.2415 518.39 21.4801C518.39 20.7188 518.285 20.0398 518.075 19.4432C517.87 18.8466 517.566 18.375 517.163 18.0284C516.759 17.6818 516.256 17.5085 515.654 17.5085C515.046 17.5085 514.535 17.6818 514.12 18.0284C513.711 18.375 513.401 18.8466 513.191 19.4432C512.987 20.0398 512.884 20.7188 512.884 21.4801C512.884 22.2415 512.987 22.9205 513.191 23.517C513.401 24.1136 513.711 24.5852 514.12 24.9318C514.535 25.2727 515.046 25.4432 515.654 25.4432ZM531.481 14.9091V17.6364H523.401V14.9091H531.481ZM525.251 28V13.9631C525.251 13.0142 525.435 12.2273 525.805 11.6023C526.18 10.9773 526.691 10.5085 527.339 10.196C527.987 9.88352 528.722 9.72727 529.546 9.72727C530.103 9.72727 530.612 9.76989 531.072 9.85511C531.538 9.94034 531.884 10.017 532.112 10.0852L531.464 12.8125C531.322 12.767 531.146 12.7244 530.935 12.6847C530.731 12.6449 530.521 12.625 530.305 12.625C529.771 12.625 529.398 12.75 529.188 13C528.978 13.2443 528.873 13.5881 528.873 14.0312V28H525.251ZM546.217 14.9091V17.6364H538.333V14.9091H546.217ZM540.123 11.7727H543.754V23.9773C543.754 24.3125 543.805 24.5739 543.907 24.7614C544.009 24.9432 544.151 25.071 544.333 25.1449C544.521 25.2187 544.737 25.2557 544.981 25.2557C545.151 25.2557 545.322 25.2415 545.492 25.2131C545.663 25.179 545.793 25.1534 545.884 25.1364L546.455 27.8381C546.273 27.8949 546.018 27.9602 545.688 28.0341C545.359 28.1136 544.958 28.1619 544.487 28.179C543.612 28.2131 542.844 28.0966 542.185 27.8295C541.532 27.5625 541.023 27.1477 540.66 26.5852C540.296 26.0227 540.117 25.3125 540.123 24.4545V11.7727ZM554.407 28.2557C553.06 28.2557 551.901 27.983 550.93 27.4375C549.964 26.8864 549.219 26.108 548.697 25.1023C548.174 24.0909 547.913 22.8949 547.913 21.5142C547.913 20.1676 548.174 18.9858 548.697 17.9688C549.219 16.9517 549.955 16.1591 550.904 15.5909C551.859 15.0227 552.978 14.7386 554.262 14.7386C555.126 14.7386 555.93 14.8778 556.674 15.1562C557.424 15.429 558.077 15.8409 558.634 16.392C559.197 16.9432 559.634 17.6364 559.947 18.4716C560.259 19.3011 560.415 20.2727 560.415 21.3864V22.3835H549.362V20.1335H556.998C556.998 19.6108 556.884 19.1477 556.657 18.7443C556.43 18.3409 556.114 18.0256 555.711 17.7983C555.313 17.5653 554.85 17.4489 554.322 17.4489C553.771 17.4489 553.282 17.5767 552.856 17.8324C552.435 18.0824 552.106 18.4205 551.867 18.8466C551.629 19.267 551.506 19.7358 551.501 20.2528V22.392C551.501 23.0398 551.62 23.5994 551.859 24.071C552.103 24.5426 552.447 24.9062 552.89 25.1619C553.333 25.4176 553.859 25.5455 554.467 25.5455C554.87 25.5455 555.239 25.4886 555.575 25.375C555.91 25.2614 556.197 25.0909 556.435 24.8636C556.674 24.6364 556.856 24.358 556.981 24.0284L560.339 24.25C560.168 25.0568 559.819 25.7614 559.29 26.3636C558.768 26.9602 558.092 27.4261 557.262 27.7614C556.438 28.0909 555.487 28.2557 554.407 28.2557ZM565.585 14.9091L567.988 19.4858L570.451 14.9091H574.175L570.383 21.4545L574.278 28H570.57L567.988 23.4744L565.448 28H561.698L565.585 21.4545L561.835 14.9091H565.585ZM583.295 14.9091V17.6364H575.411V14.9091H583.295ZM577.201 11.7727H580.832V23.9773C580.832 24.3125 580.883 24.5739 580.985 24.7614C581.087 24.9432 581.229 25.071 581.411 25.1449C581.599 25.2187 581.815 25.2557 582.059 25.2557C582.229 25.2557 582.4 25.2415 582.57 25.2131C582.741 25.179 582.871 25.1534 582.962 25.1364L583.533 27.8381C583.352 27.8949 583.096 27.9602 582.766 28.0341C582.437 28.1136 582.036 28.1619 581.565 28.179C580.69 28.2131 579.923 28.0966 579.263 27.8295C578.61 27.5625 578.102 27.1477 577.738 26.5852C577.374 26.0227 577.195 25.3125 577.201 24.4545V11.7727ZM587.782 28.2216C587.219 28.2216 586.737 28.0227 586.333 27.625C585.935 27.2216 585.737 26.7386 585.737 26.1761C585.737 25.6193 585.935 25.142 586.333 24.7443C586.737 24.3466 587.219 24.1477 587.782 24.1477C588.327 24.1477 588.805 24.3466 589.214 24.7443C589.623 25.142 589.827 25.6193 589.827 26.1761C589.827 26.5511 589.731 26.8949 589.538 27.2074C589.35 27.5142 589.103 27.7614 588.796 27.9489C588.489 28.1307 588.151 28.2216 587.782 28.2216Z" fill="black"/>
<path d="M261.831 52.4545V59H260.646V52.4545H261.831ZM264.221 56.1236V59H263.064V54.0909H264.17V54.9251H264.228C264.34 54.6502 264.521 54.4318 264.768 54.2699C265.017 54.108 265.325 54.027 265.691 54.027C266.03 54.027 266.325 54.0994 266.577 54.2443C266.83 54.3892 267.026 54.5991 267.165 54.8739C267.305 55.1488 267.375 55.4822 267.372 55.8743V59H266.215V56.0533C266.215 55.7251 266.13 55.4684 265.96 55.283C265.791 55.0977 265.558 55.005 265.26 55.005C265.057 55.005 264.877 55.0497 264.72 55.1392C264.564 55.2266 264.442 55.3533 264.352 55.5195C264.265 55.6857 264.221 55.8871 264.221 56.1236ZM271 54.0909V54.9858H268.178V54.0909H271ZM268.875 52.9148H270.032V57.5234C270.032 57.679 270.055 57.7983 270.102 57.8814C270.151 57.9624 270.215 58.0178 270.294 58.0476C270.372 58.0774 270.46 58.0923 270.556 58.0923C270.628 58.0923 270.694 58.087 270.754 58.0763C270.816 58.0657 270.862 58.0561 270.894 58.0476L271.089 58.9521C271.028 58.9734 270.939 58.9968 270.824 59.0224C270.711 59.0479 270.573 59.0629 270.409 59.0671C270.119 59.0756 269.858 59.032 269.626 58.9361C269.393 58.8381 269.209 58.6868 269.073 58.4822C268.938 58.2777 268.872 58.022 268.875 57.7152V52.9148ZM271.968 59V54.0909H273.089V54.9091H273.14C273.23 54.6257 273.383 54.4073 273.601 54.2539C273.82 54.0984 274.07 54.0206 274.352 54.0206C274.416 54.0206 274.487 54.0238 274.566 54.0302C274.647 54.0344 274.714 54.0419 274.767 54.0526V55.1168C274.718 55.0998 274.64 55.0849 274.534 55.0721C274.43 55.0572 274.328 55.0497 274.23 55.0497C274.019 55.0497 273.83 55.0955 273.661 55.1871C273.495 55.2766 273.364 55.4013 273.268 55.5611C273.172 55.7209 273.124 55.9052 273.124 56.114V59H271.968ZM275.536 59V54.0909H276.693V59H275.536ZM276.118 53.3942C275.934 53.3942 275.777 53.3335 275.645 53.212C275.512 53.0884 275.446 52.9403 275.446 52.7678C275.446 52.593 275.512 52.445 275.645 52.3235C275.777 52.1999 275.934 52.1381 276.118 52.1381C276.303 52.1381 276.461 52.1999 276.591 52.3235C276.723 52.445 276.789 52.593 276.789 52.7678C276.789 52.9403 276.723 53.0884 276.591 53.212C276.461 53.3335 276.303 53.3942 276.118 53.3942ZM280.024 59.0959C279.534 59.0959 279.113 58.9883 278.761 58.7731C278.412 58.5579 278.142 58.2607 277.953 57.8814C277.765 57.5 277.672 57.0611 277.672 56.5646C277.672 56.0661 277.767 55.6261 277.959 55.2447C278.151 54.8612 278.422 54.5629 278.771 54.3498C279.123 54.1346 279.538 54.027 280.017 54.027C280.416 54.027 280.769 54.1005 281.075 54.2475C281.384 54.3924 281.63 54.598 281.814 54.8643C281.997 55.1286 282.101 55.4375 282.127 55.7912H281.021C280.976 55.5547 280.87 55.3576 280.701 55.1999C280.535 55.0401 280.313 54.9602 280.033 54.9602C279.797 54.9602 279.589 55.0241 279.41 55.152C279.231 55.2777 279.092 55.4588 278.992 55.6953C278.894 55.9318 278.845 56.2152 278.845 56.5455C278.845 56.88 278.894 57.1676 278.992 57.4084C279.09 57.647 279.227 57.8313 279.404 57.9613C279.583 58.0891 279.793 58.1531 280.033 58.1531C280.204 58.1531 280.356 58.1211 280.491 58.0572C280.627 57.9911 280.741 57.8963 280.832 57.7727C280.924 57.6491 280.987 57.4989 281.021 57.3221H282.127C282.099 57.6694 281.997 57.9773 281.82 58.2457C281.643 58.5121 281.402 58.7209 281.098 58.8722C280.793 59.0213 280.435 59.0959 280.024 59.0959ZM286.957 55.3885L285.902 55.5036C285.872 55.397 285.82 55.2969 285.746 55.2031C285.673 55.1094 285.575 55.0337 285.452 54.9762C285.328 54.9187 285.177 54.8899 284.998 54.8899C284.757 54.8899 284.555 54.9421 284.39 55.0465C284.229 55.1509 284.149 55.2862 284.151 55.4524C284.149 55.5952 284.201 55.7113 284.307 55.8008C284.416 55.8903 284.595 55.9638 284.844 56.0213L285.682 56.2003C286.146 56.3004 286.491 56.4592 286.717 56.6765C286.945 56.8938 287.06 57.1783 287.062 57.5298C287.06 57.8388 286.97 58.1115 286.791 58.348C286.614 58.5824 286.368 58.7656 286.052 58.8977C285.737 59.0298 285.375 59.0959 284.966 59.0959C284.365 59.0959 283.881 58.9702 283.515 58.7188C283.148 58.4652 282.93 58.1126 282.86 57.6609L283.988 57.5522C284.039 57.7738 284.148 57.9411 284.314 58.054C284.48 58.1669 284.696 58.2234 284.963 58.2234C285.237 58.2234 285.458 58.1669 285.624 58.054C285.792 57.9411 285.877 57.8015 285.877 57.6353C285.877 57.4947 285.822 57.3786 285.714 57.2869C285.607 57.1953 285.441 57.125 285.215 57.076L284.378 56.9002C283.907 56.8022 283.558 56.6371 283.333 56.4048C283.107 56.1705 282.995 55.8743 282.997 55.5163C282.995 55.2138 283.077 54.9517 283.243 54.7301C283.411 54.5064 283.645 54.3338 283.943 54.2124C284.243 54.0888 284.59 54.027 284.982 54.027C285.557 54.027 286.01 54.1495 286.34 54.3945C286.672 54.6396 286.878 54.9709 286.957 55.3885ZM288.016 59V54.0909H289.173V59H288.016ZM288.598 53.3942C288.415 53.3942 288.257 53.3335 288.125 53.212C287.993 53.0884 287.927 52.9403 287.927 52.7678C287.927 52.593 287.993 52.445 288.125 52.3235C288.257 52.1999 288.415 52.1381 288.598 52.1381C288.783 52.1381 288.941 52.1999 289.071 52.3235C289.203 52.445 289.269 52.593 289.269 52.7678C289.269 52.9403 289.203 53.0884 289.071 53.212C288.941 53.3335 288.783 53.3942 288.598 53.3942ZM292.504 59.0959C292.014 59.0959 291.593 58.9883 291.242 58.7731C290.892 58.5579 290.623 58.2607 290.433 57.8814C290.246 57.5 290.152 57.0611 290.152 56.5646C290.152 56.0661 290.248 55.6261 290.44 55.2447C290.631 54.8612 290.902 54.5629 291.252 54.3498C291.603 54.1346 292.019 54.027 292.498 54.027C292.896 54.027 293.249 54.1005 293.556 54.2475C293.865 54.3924 294.111 54.598 294.294 54.8643C294.477 55.1286 294.582 55.4375 294.607 55.7912H293.502C293.457 55.5547 293.35 55.3576 293.182 55.1999C293.016 55.0401 292.793 54.9602 292.514 54.9602C292.277 54.9602 292.07 55.0241 291.891 55.152C291.712 55.2777 291.572 55.4588 291.472 55.6953C291.374 55.9318 291.325 56.2152 291.325 56.5455C291.325 56.88 291.374 57.1676 291.472 57.4084C291.57 57.647 291.707 57.8313 291.884 57.9613C292.063 58.0891 292.273 58.1531 292.514 58.1531C292.684 58.1531 292.837 58.1211 292.971 58.0572C293.107 57.9911 293.221 57.8963 293.313 57.7727C293.405 57.6491 293.467 57.4989 293.502 57.3221H294.607C294.58 57.6694 294.477 57.9773 294.301 58.2457C294.124 58.5121 293.883 58.7209 293.578 58.8722C293.274 59.0213 292.916 59.0959 292.504 59.0959ZM299.166 54.2539C299.136 53.9748 299.01 53.7575 298.789 53.6019C298.569 53.4464 298.284 53.3686 297.932 53.3686C297.685 53.3686 297.473 53.4059 297.296 53.4805C297.119 53.555 296.984 53.6562 296.89 53.7841C296.796 53.9119 296.748 54.0579 296.746 54.2219C296.746 54.3583 296.777 54.4766 296.839 54.5767C296.903 54.6768 296.989 54.7621 297.098 54.8324C297.206 54.9006 297.327 54.9581 297.459 55.005C297.591 55.0518 297.724 55.0913 297.858 55.1232L298.472 55.2766C298.719 55.3342 298.957 55.4119 299.185 55.5099C299.415 55.608 299.621 55.7315 299.802 55.8807C299.985 56.0298 300.13 56.2099 300.236 56.4208C300.343 56.6317 300.396 56.8789 300.396 57.1623C300.396 57.5458 300.298 57.8835 300.102 58.1754C299.906 58.4652 299.623 58.6921 299.252 58.8562C298.883 59.0181 298.437 59.0991 297.913 59.0991C297.404 59.0991 296.961 59.0202 296.586 58.8626C296.214 58.7049 295.922 58.4748 295.711 58.1722C295.502 57.8697 295.389 57.5011 295.372 57.0664H296.539C296.556 57.2944 296.626 57.484 296.749 57.6353C296.873 57.7866 297.034 57.8995 297.232 57.9741C297.432 58.0487 297.656 58.0859 297.903 58.0859C298.161 58.0859 298.387 58.0476 298.581 57.9709C298.777 57.892 298.93 57.7834 299.041 57.6449C299.152 57.5043 299.208 57.3402 299.21 57.1527C299.208 56.9822 299.158 56.8416 299.06 56.7308C298.962 56.6179 298.825 56.5241 298.648 56.4496C298.473 56.3729 298.269 56.3047 298.034 56.245L297.29 56.0533C296.751 55.9148 296.324 55.7049 296.011 55.4237C295.7 55.1403 295.545 54.7642 295.545 54.2955C295.545 53.9098 295.649 53.5721 295.858 53.2823C296.069 52.9925 296.355 52.7678 296.718 52.608C297.08 52.446 297.49 52.3651 297.948 52.3651C298.412 52.3651 298.819 52.446 299.169 52.608C299.52 52.7678 299.796 52.9904 299.997 53.2759C300.197 53.5593 300.3 53.8853 300.307 54.2539H299.166ZM301.402 59V54.0909H302.559V59H301.402ZM301.984 53.3942C301.801 53.3942 301.643 53.3335 301.511 53.212C301.379 53.0884 301.313 52.9403 301.313 52.7678C301.313 52.593 301.379 52.445 301.511 52.3235C301.643 52.1999 301.801 52.1381 301.984 52.1381C302.169 52.1381 302.327 52.1999 302.457 52.3235C302.589 52.445 302.655 52.593 302.655 52.7678C302.655 52.9403 302.589 53.0884 302.457 53.212C302.327 53.3335 302.169 53.3942 301.984 53.3942ZM303.685 59V58.2649L306.216 55.0913V55.0497H303.768V54.0909H307.632V54.8803L305.222 57.9996V58.0412H307.715V59H303.685ZM310.835 59.0959C310.343 59.0959 309.918 58.9936 309.56 58.7891C309.204 58.5824 308.93 58.2905 308.739 57.9134C308.547 57.5341 308.451 57.0877 308.451 56.5742C308.451 56.0692 308.547 55.6261 308.739 55.2447C308.932 54.8612 309.203 54.5629 309.55 54.3498C309.898 54.1346 310.306 54.027 310.774 54.027C311.077 54.027 311.362 54.076 311.631 54.174C311.902 54.2699 312.14 54.419 312.347 54.6214C312.556 54.8239 312.72 55.0817 312.839 55.3949C312.958 55.706 313.018 56.0767 313.018 56.5071V56.8619H308.994V56.082H311.909C311.907 55.8604 311.859 55.6634 311.765 55.4908C311.671 55.3161 311.54 55.1786 311.372 55.0785C311.206 54.9783 311.012 54.9283 310.79 54.9283C310.554 54.9283 310.346 54.9858 310.167 55.1009C309.988 55.2138 309.849 55.3629 309.748 55.5483C309.65 55.7315 309.6 55.9329 309.598 56.1523V56.8331C309.598 57.1186 309.65 57.3636 309.755 57.5682C309.859 57.7706 310.005 57.9261 310.193 58.0348C310.38 58.1413 310.6 58.1946 310.851 58.1946C311.019 58.1946 311.172 58.1712 311.308 58.1243C311.445 58.0753 311.563 58.0039 311.663 57.9102C311.763 57.8164 311.839 57.7003 311.89 57.5618L312.97 57.6832C312.902 57.9687 312.772 58.218 312.58 58.4311C312.391 58.642 312.148 58.8061 311.851 58.9233C311.555 59.0384 311.217 59.0959 310.835 59.0959ZM314.71 59.0703C314.516 59.0703 314.349 59.0021 314.211 58.8658C314.072 58.7294 314.004 58.5632 314.006 58.3672C314.004 58.1754 314.072 58.0114 314.211 57.875C314.349 57.7386 314.516 57.6705 314.71 57.6705C314.897 57.6705 315.06 57.7386 315.199 57.875C315.339 58.0114 315.411 58.1754 315.413 58.3672C315.411 58.4972 315.376 58.6154 315.31 58.7219C315.246 58.8285 315.161 58.9137 315.055 58.9776C314.95 59.0394 314.835 59.0703 314.71 59.0703ZM316.658 52.4545H318.109L320.052 57.1974H320.129L322.072 52.4545H323.523V59H322.386V54.5032H322.325L320.516 58.9808H319.666L317.857 54.4936H317.796V59H316.658V52.4545ZM326.176 59.0991C325.865 59.0991 325.585 59.0437 325.335 58.9329C325.088 58.82 324.892 58.6538 324.747 58.4343C324.605 58.2148 324.533 57.9442 324.533 57.6225C324.533 57.3455 324.584 57.1165 324.687 56.9354C324.789 56.7543 324.929 56.6094 325.105 56.5007C325.282 56.392 325.481 56.31 325.703 56.2546C325.927 56.1971 326.158 56.1555 326.397 56.13C326.684 56.1001 326.918 56.0735 327.097 56.0501C327.275 56.0245 327.405 55.9862 327.486 55.935C327.57 55.8817 327.611 55.7997 327.611 55.6889V55.6697C327.611 55.429 327.54 55.2425 327.397 55.1104C327.254 54.9783 327.049 54.9123 326.78 54.9123C326.497 54.9123 326.272 54.9741 326.106 55.0977C325.942 55.2212 325.831 55.3672 325.773 55.5355L324.693 55.3821C324.778 55.0838 324.919 54.8345 325.115 54.6342C325.311 54.4318 325.551 54.2805 325.834 54.1804C326.117 54.0781 326.431 54.027 326.774 54.027C327.01 54.027 327.246 54.0547 327.48 54.1101C327.714 54.1655 327.929 54.2571 328.122 54.3849C328.316 54.5107 328.472 54.6822 328.589 54.8995C328.708 55.1168 328.768 55.3885 328.768 55.7145V59H327.656V58.3256H327.617C327.547 58.462 327.448 58.5898 327.32 58.7092C327.195 58.8263 327.036 58.9212 326.844 58.9936C326.654 59.0639 326.432 59.0991 326.176 59.0991ZM326.476 58.2489C326.709 58.2489 326.91 58.2031 327.081 58.1115C327.251 58.0178 327.382 57.8942 327.474 57.7408C327.567 57.5874 327.614 57.4201 327.614 57.239V56.6605C327.578 56.6903 327.516 56.718 327.429 56.7436C327.344 56.7692 327.248 56.7915 327.141 56.8107C327.035 56.8299 326.929 56.8469 326.825 56.8619C326.72 56.8768 326.63 56.8896 326.553 56.9002C326.381 56.9237 326.226 56.962 326.09 57.0153C325.953 57.0685 325.846 57.1431 325.767 57.239C325.688 57.3327 325.649 57.4542 325.649 57.6033C325.649 57.8164 325.726 57.9773 325.882 58.0859C326.038 58.1946 326.236 58.2489 326.476 58.2489ZM330.877 54.0909L331.868 55.9031L332.875 54.0909H334.099L332.619 56.5455L334.125 59H332.907L331.868 57.2326L330.839 59H329.612L331.108 56.5455L329.65 54.0909H330.877Z" fill="black"/>
<path d="M-0.000534058 46.7504L7.49947 51.0806V42.4203L-0.000534058 46.7504ZM594 46.7504L586.5 42.4203V51.0806L594 46.7504ZM6.74947 47.5004H587.25V46.0004H6.74947V47.5004Z" fill="black"/>
</g>
<defs>
<clipPath id="clip0_13_2">
<rect width="594" height="60" fill="white"/>
</clipPath>
</defs>
</svg>
