<svg width="200" height="205" viewBox="0 0 200 205" fill="none" xmlns="http://www.w3.org/2000/svg">
<g clip-path="url(#clip0_14_7)">
<rect width="200" height="205" fill="white"/>
<rect x="53.25" y="0.25" width="146.5" height="176.5" fill="white" stroke="black" stroke-width="0.5"/>
<path d="M55.8523 10.5881V7.54545H70.1875V10.5881H64.8438V25H61.196V10.5881H55.8523ZM76.1108 17.4318V25H72.4801V7.54545H76.0085V14.2188H76.1619C76.4574 13.446 76.9347 12.8409 77.5938 12.4034C78.2528 11.9602 79.0795 11.7386 80.0739 11.7386C80.983 11.7386 81.7756 11.9375 82.4517 12.3352C83.1335 12.7273 83.6619 13.2926 84.0369 14.0312C84.4176 14.7642 84.6051 15.642 84.5994 16.6648V25H80.9688V17.3125C80.9744 16.5057 80.7699 15.8778 80.3551 15.429C79.946 14.9801 79.3722 14.7557 78.6335 14.7557C78.1392 14.7557 77.7017 14.8608 77.321 15.071C76.946 15.2812 76.6506 15.5881 76.4347 15.9915C76.2244 16.3892 76.1165 16.8693 76.1108 17.4318ZM87.4567 25V11.9091H91.0874V25H87.4567ZM89.2805 10.2216C88.7408 10.2216 88.2777 10.0426 87.8913 9.68466C87.5107 9.32102 87.3203 8.88636 87.3203 8.38068C87.3203 7.88068 87.5107 7.4517 87.8913 7.09375C88.2777 6.73011 88.7408 6.54829 89.2805 6.54829C89.8203 6.54829 90.2805 6.73011 90.6612 7.09375C91.0476 7.4517 91.2408 7.88068 91.2408 8.38068C91.2408 8.88636 91.0476 9.32102 90.6612 9.68466C90.2805 10.0426 89.8203 10.2216 89.2805 10.2216ZM104.888 15.642L101.564 15.8466C101.507 15.5625 101.385 15.3068 101.197 15.0795C101.01 14.8466 100.763 14.6619 100.456 14.5256C100.155 14.3835 99.794 14.3125 99.3736 14.3125C98.8111 14.3125 98.3366 14.4318 97.9503 14.6705C97.5639 14.9034 97.3707 15.2159 97.3707 15.608C97.3707 15.9205 97.4957 16.1847 97.7457 16.4006C97.9957 16.6165 98.4247 16.7898 99.0327 16.9205L101.402 17.3977C102.675 17.6591 103.624 18.0795 104.249 18.6591C104.874 19.2386 105.186 20 105.186 20.9432C105.186 21.8011 104.933 22.554 104.428 23.2017C103.928 23.8494 103.24 24.3551 102.365 24.7188C101.496 25.0767 100.493 25.2557 99.3565 25.2557C97.6236 25.2557 96.2429 24.8949 95.2145 24.1733C94.1918 23.446 93.5923 22.4574 93.4162 21.2074L96.9872 21.0199C97.0952 21.5483 97.3565 21.9517 97.7713 22.2301C98.1861 22.5028 98.7173 22.6392 99.3651 22.6392C100.001 22.6392 100.513 22.517 100.899 22.2727C101.291 22.0227 101.49 21.7017 101.496 21.3097C101.49 20.9801 101.351 20.7102 101.078 20.5C100.805 20.2841 100.385 20.1193 99.8168 20.0057L97.5497 19.554C96.2713 19.2983 95.3196 18.8551 94.6946 18.2244C94.0753 17.5937 93.7656 16.7898 93.7656 15.8125C93.7656 14.9716 93.9929 14.2472 94.4474 13.6392C94.9077 13.0312 95.5526 12.5625 96.3821 12.233C97.2173 11.9034 98.1946 11.7386 99.3139 11.7386C100.967 11.7386 102.268 12.0881 103.217 12.7869C104.172 13.4858 104.729 14.4375 104.888 15.642ZM113.027 25V11.9091H116.658V25H113.027ZM114.851 10.2216C114.311 10.2216 113.848 10.0426 113.462 9.68466C113.081 9.32102 112.891 8.88636 112.891 8.38068C112.891 7.88068 113.081 7.4517 113.462 7.09375C113.848 6.73011 114.311 6.54829 114.851 6.54829C115.391 6.54829 115.851 6.73011 116.232 7.09375C116.618 7.4517 116.811 7.88068 116.811 8.38068C116.811 8.88636 116.618 9.32102 116.232 9.68466C115.851 10.0426 115.391 10.2216 114.851 10.2216ZM130.458 15.642L127.134 15.8466C127.077 15.5625 126.955 15.3068 126.768 15.0795C126.58 14.8466 126.333 14.6619 126.026 14.5256C125.725 14.3835 125.364 14.3125 124.944 14.3125C124.381 14.3125 123.907 14.4318 123.521 14.6705C123.134 14.9034 122.941 15.2159 122.941 15.608C122.941 15.9205 123.066 16.1847 123.316 16.4006C123.566 16.6165 123.995 16.7898 124.603 16.9205L126.972 17.3977C128.245 17.6591 129.194 18.0795 129.819 18.6591C130.444 19.2386 130.756 20 130.756 20.9432C130.756 21.8011 130.504 22.554 129.998 23.2017C129.498 23.8494 128.81 24.3551 127.935 24.7188C127.066 25.0767 126.063 25.2557 124.927 25.2557C123.194 25.2557 121.813 24.8949 120.785 24.1733C119.762 23.446 119.163 22.4574 118.987 21.2074L122.558 21.0199C122.665 21.5483 122.927 21.9517 123.342 22.2301C123.756 22.5028 124.288 22.6392 124.935 22.6392C125.572 22.6392 126.083 22.517 126.469 22.2727C126.862 22.0227 127.06 21.7017 127.066 21.3097C127.06 20.9801 126.921 20.7102 126.648 20.5C126.376 20.2841 125.955 20.1193 125.387 20.0057L123.12 19.554C121.842 19.2983 120.89 18.8551 120.265 18.2244C119.646 17.5937 119.336 16.7898 119.336 15.8125C119.336 14.9716 119.563 14.2472 120.018 13.6392C120.478 13.0312 121.123 12.5625 121.952 12.233C122.788 11.9034 123.765 11.7386 124.884 11.7386C126.538 11.7386 127.839 12.0881 128.788 12.7869C129.742 13.4858 130.299 14.4375 130.458 15.642ZM142.33 25.2472C141.495 25.2472 140.751 25.1023 140.097 24.8125C139.444 24.517 138.927 24.0824 138.546 23.5085C138.171 22.929 137.984 22.2074 137.984 21.3438C137.984 20.6165 138.117 20.0057 138.384 19.5114C138.651 19.017 139.015 18.6193 139.475 18.3182C139.935 18.017 140.458 17.7898 141.043 17.6364C141.634 17.483 142.254 17.375 142.901 17.3125C143.663 17.233 144.276 17.1591 144.742 17.0909C145.208 17.017 145.546 16.9091 145.756 16.767C145.967 16.625 146.072 16.4148 146.072 16.1364V16.0852C146.072 15.5455 145.901 15.1278 145.56 14.8324C145.225 14.5369 144.748 14.3892 144.129 14.3892C143.475 14.3892 142.955 14.5341 142.569 14.8239C142.183 15.108 141.927 15.4659 141.802 15.8977L138.444 15.625C138.614 14.8295 138.95 14.142 139.45 13.5625C139.95 12.9773 140.594 12.5284 141.384 12.2159C142.18 11.8977 143.1 11.7386 144.146 11.7386C144.873 11.7386 145.569 11.8239 146.234 11.9943C146.904 12.1648 147.498 12.429 148.015 12.7869C148.538 13.1449 148.95 13.6051 149.251 14.1676C149.552 14.7244 149.702 15.392 149.702 16.1705V25H146.259V23.1847H146.157C145.947 23.5938 145.665 23.9545 145.313 24.267C144.961 24.5739 144.538 24.8153 144.043 24.9915C143.549 25.1619 142.978 25.2472 142.33 25.2472ZM143.37 22.7415C143.904 22.7415 144.376 22.6364 144.785 22.4261C145.194 22.2102 145.515 21.9205 145.748 21.5568C145.981 21.1932 146.097 20.7812 146.097 20.321V18.9318C145.984 19.0057 145.827 19.0739 145.629 19.1364C145.435 19.1932 145.217 19.2472 144.972 19.2983C144.728 19.3437 144.484 19.3864 144.239 19.4261C143.995 19.4602 143.773 19.4915 143.575 19.5199C143.148 19.5824 142.776 19.6818 142.458 19.8182C142.14 19.9545 141.893 20.1392 141.717 20.3722C141.54 20.5994 141.452 20.8835 141.452 21.2244C141.452 21.7188 141.631 22.0966 141.989 22.358C142.353 22.6136 142.813 22.7415 143.37 22.7415ZM55.8523 39.5881V36.5455H70.1875V39.5881H64.8438V54H61.196V39.5881H55.8523ZM76.5476 54.2557C75.201 54.2557 74.0419 53.983 73.0703 53.4375C72.1044 52.8864 71.3601 52.108 70.8374 51.1023C70.3146 50.0909 70.0533 48.8949 70.0533 47.5142C70.0533 46.1676 70.3146 44.9858 70.8374 43.9688C71.3601 42.9517 72.0959 42.1591 73.0447 41.5909C73.9993 41.0227 75.1186 40.7386 76.4027 40.7386C77.2663 40.7386 78.0703 40.8778 78.8146 41.1562C79.5646 41.429 80.218 41.8409 80.7749 42.392C81.3374 42.9432 81.7749 43.6364 82.0874 44.4716C82.3999 45.3011 82.5561 46.2727 82.5561 47.3864V48.3835H71.5021V46.1335H79.1385C79.1385 45.6108 79.0249 45.1477 78.7976 44.7443C78.5703 44.3409 78.255 44.0256 77.8516 43.7983C77.4538 43.5653 76.9908 43.4489 76.4624 43.4489C75.9112 43.4489 75.4226 43.5767 74.9964 43.8324C74.576 44.0824 74.2464 44.4205 74.0078 44.8466C73.7692 45.267 73.647 45.7358 73.6413 46.2528V48.392C73.6413 49.0398 73.7607 49.5994 73.9993 50.071C74.2436 50.5426 74.5874 50.9062 75.0305 51.1619C75.4737 51.4176 75.9993 51.5455 76.6072 51.5455C77.0107 51.5455 77.38 51.4886 77.7152 51.375C78.0504 51.2614 78.3374 51.0909 78.576 50.8636C78.8146 50.6364 78.9964 50.358 79.1214 50.0284L82.4794 50.25C82.3089 51.0568 81.9595 51.7614 81.4311 52.3636C80.9084 52.9602 80.2322 53.4261 79.4027 53.7614C78.5788 54.0909 77.6271 54.2557 76.5476 54.2557ZM87.7251 40.9091L90.1286 45.4858L92.5916 40.9091H96.3161L92.5234 47.4545L96.4183 54H92.7109L90.1286 49.4744L87.5888 54H83.8388L87.7251 47.4545L83.9751 40.9091H87.7251ZM105.435 40.9091V43.6364H97.5518V40.9091H105.435ZM99.3416 37.7727H102.972V49.9773C102.972 50.3125 103.023 50.5739 103.126 50.7614C103.228 50.9432 103.37 51.071 103.552 51.1449C103.739 51.2187 103.955 51.2557 104.2 51.2557C104.37 51.2557 104.54 51.2415 104.711 51.2131C104.881 51.179 105.012 51.1534 105.103 51.1364L105.674 53.8381C105.492 53.8949 105.237 53.9602 104.907 54.0341C104.577 54.1136 104.177 54.1619 103.705 54.179C102.83 54.2131 102.063 54.0966 101.404 53.8295C100.751 53.5625 100.242 53.1477 99.8786 52.5852C99.5149 52.0227 99.3359 51.3125 99.3416 50.4545V37.7727ZM62.3636 83.2557C61.0227 83.2557 59.8693 82.9716 58.9034 82.4034C57.9432 81.8295 57.2045 81.0341 56.6875 80.017C56.1761 79 55.9205 77.8295 55.9205 76.5057C55.9205 75.1648 56.179 73.9886 56.696 72.9773C57.2188 71.9602 57.9602 71.1676 58.9205 70.5994C59.8807 70.0256 61.0227 69.7386 62.3466 69.7386C63.4886 69.7386 64.4886 69.946 65.3466 70.3608C66.2045 70.7756 66.8835 71.358 67.3835 72.108C67.8835 72.858 68.1591 73.7386 68.2102 74.75H64.7841C64.6875 74.0966 64.4318 73.571 64.017 73.1733C63.608 72.7699 63.071 72.5682 62.4062 72.5682C61.8438 72.5682 61.3523 72.7216 60.9318 73.0284C60.517 73.3295 60.1932 73.7699 59.9602 74.3494C59.7273 74.929 59.6108 75.6307 59.6108 76.4545C59.6108 77.2898 59.7244 78 59.9517 78.5852C60.1847 79.1705 60.5114 79.6165 60.9318 79.9233C61.3523 80.2301 61.8438 80.3835 62.4062 80.3835C62.821 80.3835 63.1932 80.2983 63.5227 80.1278C63.858 79.9574 64.1335 79.7102 64.3494 79.3864C64.571 79.0568 64.7159 78.6619 64.7841 78.2017H68.2102C68.1534 79.2017 67.8807 80.0824 67.392 80.8438C66.9091 81.5994 66.2415 82.1903 65.3892 82.6165C64.5369 83.0426 63.5284 83.2557 62.3636 83.2557ZM76.4496 83.2557C75.1257 83.2557 73.9808 82.9744 73.0149 82.4119C72.0547 81.8437 71.3132 81.054 70.7905 80.0426C70.2678 79.0256 70.0064 77.8466 70.0064 76.5057C70.0064 75.1534 70.2678 73.9716 70.7905 72.9602C71.3132 71.9432 72.0547 71.1534 73.0149 70.5909C73.9808 70.0227 75.1257 69.7386 76.4496 69.7386C77.7734 69.7386 78.9155 70.0227 79.8757 70.5909C80.8416 71.1534 81.5859 71.9432 82.1087 72.9602C82.6314 73.9716 82.8928 75.1534 82.8928 76.5057C82.8928 77.8466 82.6314 79.0256 82.1087 80.0426C81.5859 81.054 80.8416 81.8437 79.8757 82.4119C78.9155 82.9744 77.7734 83.2557 76.4496 83.2557ZM76.4666 80.4432C77.0689 80.4432 77.5717 80.2727 77.9751 79.9318C78.3786 79.5852 78.6825 79.1136 78.8871 78.517C79.0973 77.9205 79.2024 77.2415 79.2024 76.4801C79.2024 75.7188 79.0973 75.0398 78.8871 74.4432C78.6825 73.8466 78.3786 73.375 77.9751 73.0284C77.5717 72.6818 77.0689 72.5085 76.4666 72.5085C75.8587 72.5085 75.3473 72.6818 74.9325 73.0284C74.5234 73.375 74.2138 73.8466 74.0036 74.4432C73.799 75.0398 73.6967 75.7188 73.6967 76.4801C73.6967 77.2415 73.799 77.9205 74.0036 78.517C74.2138 79.1136 74.5234 79.5852 74.9325 79.9318C75.3473 80.2727 75.8587 80.4432 76.4666 80.4432ZM85.2536 83V69.9091H88.7138V72.2188H88.8672C89.1399 71.4517 89.5945 70.8466 90.2308 70.4034C90.8672 69.9602 91.6286 69.7386 92.5149 69.7386C93.4126 69.7386 94.1768 69.9631 94.8075 70.4119C95.4382 70.8551 95.8587 71.4574 96.0689 72.2188H96.2053C96.4723 71.4688 96.9553 70.8693 97.6541 70.4205C98.3587 69.9659 99.1911 69.7386 100.151 69.7386C101.373 69.7386 102.364 70.1278 103.126 70.9062C103.893 71.679 104.276 72.7756 104.276 74.196V83H100.654V74.9119C100.654 74.1847 100.461 73.6392 100.075 73.2756C99.6882 72.9119 99.2053 72.7301 98.6257 72.7301C97.9666 72.7301 97.4524 72.9403 97.0831 73.3608C96.7138 73.7756 96.5291 74.3239 96.5291 75.0057V83H93.0092V74.8352C93.0092 74.1932 92.8246 73.6818 92.4553 73.3011C92.0916 72.9205 91.6115 72.7301 91.0149 72.7301C90.6115 72.7301 90.2479 72.8324 89.924 73.0369C89.6058 73.2358 89.353 73.517 89.1655 73.8807C88.978 74.2386 88.8842 74.6591 88.8842 75.142V83H85.2536ZM107.144 87.9091V69.9091H110.724V72.108H110.886C111.045 71.7557 111.275 71.3977 111.576 71.0341C111.883 70.6648 112.281 70.358 112.769 70.1136C113.263 69.8636 113.877 69.7386 114.61 69.7386C115.565 69.7386 116.445 69.9886 117.252 70.4886C118.059 70.983 118.704 71.7301 119.187 72.7301C119.67 73.7244 119.911 74.9716 119.911 76.4716C119.911 77.9318 119.675 79.1648 119.204 80.1705C118.738 81.1705 118.102 81.929 117.295 82.446C116.494 82.9574 115.596 83.2131 114.602 83.2131C113.897 83.2131 113.298 83.0966 112.803 82.8636C112.315 82.6307 111.914 82.3381 111.602 81.9858C111.289 81.6278 111.05 81.267 110.886 80.9034H110.775V87.9091H107.144ZM110.698 76.4545C110.698 77.233 110.806 77.9119 111.022 78.4915C111.238 79.071 111.55 79.5227 111.96 79.8466C112.369 80.1648 112.866 80.3239 113.451 80.3239C114.042 80.3239 114.542 80.1619 114.951 79.8381C115.36 79.5085 115.67 79.054 115.88 78.4744C116.096 77.8892 116.204 77.2159 116.204 76.4545C116.204 75.6989 116.099 75.0341 115.888 74.4602C115.678 73.8864 115.369 73.4375 114.96 73.1136C114.55 72.7898 114.048 72.6278 113.451 72.6278C112.86 72.6278 112.36 72.7841 111.951 73.0966C111.548 73.4091 111.238 73.8523 111.022 74.4261C110.806 75 110.698 75.6761 110.698 76.4545ZM128.246 83.2557C126.923 83.2557 125.778 82.9744 124.812 82.4119C123.852 81.8437 123.11 81.054 122.587 80.0426C122.065 79.0256 121.803 77.8466 121.803 76.5057C121.803 75.1534 122.065 73.9716 122.587 72.9602C123.11 71.9432 123.852 71.1534 124.812 70.5909C125.778 70.0227 126.923 69.7386 128.246 69.7386C129.57 69.7386 130.712 70.0227 131.673 70.5909C132.638 71.1534 133.383 71.9432 133.906 72.9602C134.428 73.9716 134.69 75.1534 134.69 76.5057C134.69 77.8466 134.428 79.0256 133.906 80.0426C133.383 81.054 132.638 81.8437 131.673 82.4119C130.712 82.9744 129.57 83.2557 128.246 83.2557ZM128.263 80.4432C128.866 80.4432 129.369 80.2727 129.772 79.9318C130.175 79.5852 130.479 79.1136 130.684 78.517C130.894 77.9205 130.999 77.2415 130.999 76.4801C130.999 75.7188 130.894 75.0398 130.684 74.4432C130.479 73.8466 130.175 73.375 129.772 73.0284C129.369 72.6818 128.866 72.5085 128.263 72.5085C127.656 72.5085 127.144 72.6818 126.729 73.0284C126.32 73.375 126.011 73.8466 125.8 74.4432C125.596 75.0398 125.494 75.7188 125.494 76.4801C125.494 77.2415 125.596 77.9205 125.8 78.517C126.011 79.1136 126.32 79.5852 126.729 79.9318C127.144 80.2727 127.656 80.4432 128.263 80.4432ZM147.942 73.642L144.619 73.8466C144.562 73.5625 144.44 73.3068 144.252 73.0795C144.065 72.8466 143.817 72.6619 143.511 72.5256C143.21 72.3835 142.849 72.3125 142.428 72.3125C141.866 72.3125 141.391 72.4318 141.005 72.6705C140.619 72.9034 140.425 73.2159 140.425 73.608C140.425 73.9205 140.55 74.1847 140.8 74.4006C141.05 74.6165 141.479 74.7898 142.087 74.9205L144.457 75.3977C145.729 75.6591 146.678 76.0795 147.303 76.6591C147.928 77.2386 148.241 78 148.241 78.9432C148.241 79.8011 147.988 80.554 147.482 81.2017C146.982 81.8494 146.295 82.3551 145.42 82.7188C144.55 83.0767 143.548 83.2557 142.411 83.2557C140.678 83.2557 139.298 82.8949 138.269 82.1733C137.246 81.446 136.647 80.4574 136.471 79.2074L140.042 79.0199C140.15 79.5483 140.411 79.9517 140.826 80.2301C141.241 80.5028 141.772 80.6392 142.42 80.6392C143.056 80.6392 143.567 80.517 143.954 80.2727C144.346 80.0227 144.545 79.7017 144.55 79.3097C144.545 78.9801 144.406 78.7102 144.133 78.5C143.86 78.2841 143.44 78.1193 142.871 78.0057L140.604 77.554C139.326 77.2983 138.374 76.8551 137.749 76.2244C137.13 75.5937 136.82 74.7898 136.82 73.8125C136.82 72.9716 137.048 72.2472 137.502 71.6392C137.962 71.0312 138.607 70.5625 139.437 70.233C140.272 69.9034 141.249 69.7386 142.369 69.7386C144.022 69.7386 145.323 70.0881 146.272 70.7869C147.227 71.4858 147.783 72.4375 147.942 73.642ZM154.26 83.2472C153.425 83.2472 152.68 83.1023 152.027 82.8125C151.374 82.517 150.857 82.0824 150.476 81.5085C150.101 80.929 149.913 80.2074 149.913 79.3438C149.913 78.6165 150.047 78.0057 150.314 77.5114C150.581 77.017 150.945 76.6193 151.405 76.3182C151.865 76.017 152.388 75.7898 152.973 75.6364C153.564 75.483 154.183 75.375 154.831 75.3125C155.592 75.233 156.206 75.1591 156.672 75.0909C157.138 75.017 157.476 74.9091 157.686 74.767C157.896 74.625 158.001 74.4148 158.001 74.1364V74.0852C158.001 73.5455 157.831 73.1278 157.49 72.8324C157.155 72.5369 156.678 72.3892 156.058 72.3892C155.405 72.3892 154.885 72.5341 154.499 72.8239C154.112 73.108 153.857 73.4659 153.732 73.8977L150.374 73.625C150.544 72.8295 150.879 72.142 151.379 71.5625C151.879 70.9773 152.524 70.5284 153.314 70.2159C154.109 69.8977 155.03 69.7386 156.075 69.7386C156.803 69.7386 157.499 69.8239 158.163 69.9943C158.834 70.1648 159.428 70.429 159.945 70.7869C160.467 71.1449 160.879 71.6051 161.18 72.1676C161.482 72.7244 161.632 73.392 161.632 74.1705V83H158.189V81.1847H158.087C157.876 81.5938 157.595 81.9545 157.243 82.267C156.891 82.5739 156.467 82.8153 155.973 82.9915C155.479 83.1619 154.908 83.2472 154.26 83.2472ZM155.3 80.7415C155.834 80.7415 156.305 80.6364 156.714 80.4261C157.124 80.2102 157.445 79.9205 157.678 79.5568C157.911 79.1932 158.027 78.7812 158.027 78.321V76.9318C157.913 77.0057 157.757 77.0739 157.558 77.1364C157.365 77.1932 157.146 77.2472 156.902 77.2983C156.658 77.3437 156.413 77.3864 156.169 77.4261C155.925 77.4602 155.703 77.4915 155.504 77.5199C155.078 77.5824 154.706 77.6818 154.388 77.8182C154.07 77.9545 153.822 78.1392 153.646 78.3722C153.47 78.5994 153.382 78.8835 153.382 79.2244C153.382 79.7188 153.561 80.0966 153.919 80.358C154.283 80.6136 154.743 80.7415 155.3 80.7415ZM164.517 83V65.5455H168.148V72.108H168.259C168.418 71.7557 168.648 71.3977 168.949 71.0341C169.256 70.6648 169.653 70.358 170.142 70.1136C170.636 69.8636 171.25 69.7386 171.983 69.7386C172.938 69.7386 173.818 69.9886 174.625 70.4886C175.432 70.983 176.077 71.7301 176.56 72.7301C177.043 73.7244 177.284 74.9716 177.284 76.4716C177.284 77.9318 177.048 79.1648 176.577 80.1705C176.111 81.1705 175.474 81.929 174.668 82.446C173.866 82.9574 172.969 83.2131 171.974 83.2131C171.27 83.2131 170.67 83.0966 170.176 82.8636C169.688 82.6307 169.287 82.3381 168.974 81.9858C168.662 81.6278 168.423 81.267 168.259 80.9034H168.097V83H164.517ZM168.071 76.4545C168.071 77.233 168.179 77.9119 168.395 78.4915C168.611 79.071 168.923 79.5227 169.332 79.8466C169.741 80.1648 170.239 80.3239 170.824 80.3239C171.415 80.3239 171.915 80.1619 172.324 79.8381C172.733 79.5085 173.043 79.054 173.253 78.4744C173.469 77.8892 173.577 77.2159 173.577 76.4545C173.577 75.6989 173.472 75.0341 173.261 74.4602C173.051 73.8864 172.741 73.4375 172.332 73.1136C171.923 72.7898 171.42 72.6278 170.824 72.6278C170.233 72.6278 169.733 72.7841 169.324 73.0966C168.92 73.4091 168.611 73.8523 168.395 74.4261C168.179 75 168.071 75.6761 168.071 76.4545ZM183.337 65.5455V83H179.707V65.5455H183.337ZM192.212 83.2557C190.865 83.2557 189.706 82.983 188.734 82.4375C187.768 81.8864 187.024 81.108 186.501 80.1023C185.979 79.0909 185.717 77.8949 185.717 76.5142C185.717 75.1676 185.979 73.9858 186.501 72.9688C187.024 71.9517 187.76 71.1591 188.709 70.5909C189.663 70.0227 190.783 69.7386 192.067 69.7386C192.93 69.7386 193.734 69.8778 194.479 70.1562C195.229 70.429 195.882 70.8409 196.439 71.392C197.001 71.9432 197.439 72.6364 197.751 73.4716C198.064 74.3011 198.22 75.2727 198.22 76.3864V77.3835H187.166V75.1335H194.803C194.803 74.6108 194.689 74.1477 194.462 73.7443C194.234 73.3409 193.919 73.0256 193.516 72.7983C193.118 72.5653 192.655 72.4489 192.126 72.4489C191.575 72.4489 191.087 72.5767 190.661 72.8324C190.24 73.0824 189.911 73.4205 189.672 73.8466C189.433 74.267 189.311 74.7358 189.305 75.2528V77.392C189.305 78.0398 189.425 78.5994 189.663 79.071C189.908 79.5426 190.251 79.9062 190.695 80.1619C191.138 80.4176 191.663 80.5455 192.271 80.5455C192.675 80.5455 193.044 80.4886 193.379 80.375C193.714 80.2614 194.001 80.0909 194.24 79.8636C194.479 79.6364 194.661 79.358 194.786 79.0284L198.143 79.25C197.973 80.0568 197.624 80.7614 197.095 81.3636C196.572 81.9602 195.896 82.4261 195.067 82.7614C194.243 83.0909 193.291 83.2557 192.212 83.2557ZM62.3636 112.256C61.0227 112.256 59.8693 111.972 58.9034 111.403C57.9432 110.83 57.2045 110.034 56.6875 109.017C56.1761 108 55.9205 106.83 55.9205 105.506C55.9205 104.165 56.179 102.989 56.696 101.977C57.2188 100.96 57.9602 100.168 58.9205 99.5994C59.8807 99.0256 61.0227 98.7386 62.3466 98.7386C63.4886 98.7386 64.4886 98.946 65.3466 99.3608C66.2045 99.7756 66.8835 100.358 67.3835 101.108C67.8835 101.858 68.1591 102.739 68.2102 103.75H64.7841C64.6875 103.097 64.4318 102.571 64.017 102.173C63.608 101.77 63.071 101.568 62.4062 101.568C61.8438 101.568 61.3523 101.722 60.9318 102.028C60.517 102.33 60.1932 102.77 59.9602 103.349C59.7273 103.929 59.6108 104.631 59.6108 105.455C59.6108 106.29 59.7244 107 59.9517 107.585C60.1847 108.17 60.5114 108.616 60.9318 108.923C61.3523 109.23 61.8438 109.384 62.4062 109.384C62.821 109.384 63.1932 109.298 63.5227 109.128C63.858 108.957 64.1335 108.71 64.3494 108.386C64.571 108.057 64.7159 107.662 64.7841 107.202H68.2102C68.1534 108.202 67.8807 109.082 67.392 109.844C66.9091 110.599 66.2415 111.19 65.3892 111.616C64.5369 112.043 63.5284 112.256 62.3636 112.256ZM76.4496 112.256C75.1257 112.256 73.9808 111.974 73.0149 111.412C72.0547 110.844 71.3132 110.054 70.7905 109.043C70.2678 108.026 70.0064 106.847 70.0064 105.506C70.0064 104.153 70.2678 102.972 70.7905 101.96C71.3132 100.943 72.0547 100.153 73.0149 99.5909C73.9808 99.0227 75.1257 98.7386 76.4496 98.7386C77.7734 98.7386 78.9155 99.0227 79.8757 99.5909C80.8416 100.153 81.5859 100.943 82.1087 101.96C82.6314 102.972 82.8928 104.153 82.8928 105.506C82.8928 106.847 82.6314 108.026 82.1087 109.043C81.5859 110.054 80.8416 110.844 79.8757 111.412C78.9155 111.974 77.7734 112.256 76.4496 112.256ZM76.4666 109.443C77.0689 109.443 77.5717 109.273 77.9751 108.932C78.3786 108.585 78.6825 108.114 78.8871 107.517C79.0973 106.92 79.2024 106.241 79.2024 105.48C79.2024 104.719 79.0973 104.04 78.8871 103.443C78.6825 102.847 78.3786 102.375 77.9751 102.028C77.5717 101.682 77.0689 101.509 76.4666 101.509C75.8587 101.509 75.3473 101.682 74.9325 102.028C74.5234 102.375 74.2138 102.847 74.0036 103.443C73.799 104.04 73.6967 104.719 73.6967 105.48C73.6967 106.241 73.799 106.92 74.0036 107.517C74.2138 108.114 74.5234 108.585 74.9325 108.932C75.3473 109.273 75.8587 109.443 76.4666 109.443ZM88.8842 104.432V112H85.2536V98.9091H88.7138V101.219H88.8672C89.157 100.457 89.6428 99.8551 90.3246 99.4119C91.0064 98.9631 91.8331 98.7386 92.8047 98.7386C93.7138 98.7386 94.5064 98.9375 95.1825 99.3352C95.8587 99.733 96.3842 100.301 96.7592 101.04C97.1342 101.773 97.3217 102.648 97.3217 103.665V112H93.6911V104.312C93.6967 103.511 93.4922 102.886 93.0774 102.438C92.6626 101.983 92.0916 101.756 91.3643 101.756C90.8757 101.756 90.4439 101.861 90.0689 102.071C89.6996 102.281 89.4098 102.588 89.1996 102.991C88.995 103.389 88.8899 103.869 88.8842 104.432ZM107.146 98.9091V101.636H99.2628V98.9091H107.146ZM101.053 95.7727H104.683V107.977C104.683 108.312 104.734 108.574 104.837 108.761C104.939 108.943 105.081 109.071 105.263 109.145C105.45 109.219 105.666 109.256 105.911 109.256C106.081 109.256 106.251 109.241 106.422 109.213C106.592 109.179 106.723 109.153 106.814 109.136L107.385 111.838C107.203 111.895 106.947 111.96 106.618 112.034C106.288 112.114 105.888 112.162 105.416 112.179C104.541 112.213 103.774 112.097 103.115 111.83C102.462 111.562 101.953 111.148 101.589 110.585C101.226 110.023 101.047 109.312 101.053 108.455V95.7727ZM113.244 112.247C112.409 112.247 111.665 112.102 111.011 111.812C110.358 111.517 109.841 111.082 109.46 110.509C109.085 109.929 108.898 109.207 108.898 108.344C108.898 107.616 109.031 107.006 109.298 106.511C109.565 106.017 109.929 105.619 110.389 105.318C110.849 105.017 111.372 104.79 111.957 104.636C112.548 104.483 113.168 104.375 113.815 104.312C114.577 104.233 115.19 104.159 115.656 104.091C116.122 104.017 116.46 103.909 116.67 103.767C116.881 103.625 116.986 103.415 116.986 103.136V103.085C116.986 102.545 116.815 102.128 116.474 101.832C116.139 101.537 115.662 101.389 115.043 101.389C114.389 101.389 113.869 101.534 113.483 101.824C113.097 102.108 112.841 102.466 112.716 102.898L109.358 102.625C109.528 101.83 109.864 101.142 110.364 100.562C110.864 99.9773 111.509 99.5284 112.298 99.2159C113.094 98.8977 114.014 98.7386 115.06 98.7386C115.787 98.7386 116.483 98.8239 117.148 98.9943C117.818 99.1648 118.412 99.429 118.929 99.7869C119.452 100.145 119.864 100.605 120.165 101.168C120.466 101.724 120.616 102.392 120.616 103.17V112H117.173V110.185H117.071C116.861 110.594 116.58 110.955 116.227 111.267C115.875 111.574 115.452 111.815 114.957 111.991C114.463 112.162 113.892 112.247 113.244 112.247ZM114.284 109.741C114.818 109.741 115.29 109.636 115.699 109.426C116.108 109.21 116.429 108.92 116.662 108.557C116.895 108.193 117.011 107.781 117.011 107.321V105.932C116.898 106.006 116.741 106.074 116.543 106.136C116.349 106.193 116.131 106.247 115.886 106.298C115.642 106.344 115.398 106.386 115.153 106.426C114.909 106.46 114.688 106.491 114.489 106.52C114.063 106.582 113.69 106.682 113.372 106.818C113.054 106.955 112.807 107.139 112.631 107.372C112.455 107.599 112.366 107.884 112.366 108.224C112.366 108.719 112.545 109.097 112.903 109.358C113.267 109.614 113.727 109.741 114.284 109.741ZM123.433 112V98.9091H127.064V112H123.433ZM125.257 97.2216C124.717 97.2216 124.254 97.0426 123.868 96.6847C123.487 96.321 123.297 95.8864 123.297 95.3807C123.297 94.8807 123.487 94.4517 123.868 94.0938C124.254 93.7301 124.717 93.5483 125.257 93.5483C125.797 93.5483 126.257 93.7301 126.638 94.0938C127.024 94.4517 127.217 94.8807 127.217 95.3807C127.217 95.8864 127.024 96.321 126.638 96.6847C126.257 97.0426 125.797 97.2216 125.257 97.2216ZM133.603 104.432V112H129.972V98.9091H133.433V101.219H133.586C133.876 100.457 134.362 99.8551 135.043 99.4119C135.725 98.9631 136.552 98.7386 137.523 98.7386C138.433 98.7386 139.225 98.9375 139.901 99.3352C140.577 99.733 141.103 100.301 141.478 101.04C141.853 101.773 142.04 102.648 142.04 103.665V112H138.41V104.312C138.415 103.511 138.211 102.886 137.796 102.438C137.381 101.983 136.81 101.756 136.083 101.756C135.594 101.756 135.163 101.861 134.788 102.071C134.418 102.281 134.129 102.588 133.918 102.991C133.714 103.389 133.609 103.869 133.603 104.432ZM144.902 112V98.9091H148.533V112H144.902ZM146.726 97.2216C146.186 97.2216 145.723 97.0426 145.337 96.6847C144.956 96.321 144.766 95.8864 144.766 95.3807C144.766 94.8807 144.956 94.4517 145.337 94.0938C145.723 93.7301 146.186 93.5483 146.726 93.5483C147.266 93.5483 147.726 93.7301 148.107 94.0938C148.493 94.4517 148.686 94.8807 148.686 95.3807C148.686 95.8864 148.493 96.321 148.107 96.6847C147.726 97.0426 147.266 97.2216 146.726 97.2216ZM155.072 104.432V112H151.441V98.9091H154.901V101.219H155.055C155.344 100.457 155.83 99.8551 156.512 99.4119C157.194 98.9631 158.021 98.7386 158.992 98.7386C159.901 98.7386 160.694 98.9375 161.37 99.3352C162.046 99.733 162.572 100.301 162.947 101.04C163.322 101.773 163.509 102.648 163.509 103.665V112H159.879V104.312C159.884 103.511 159.68 102.886 159.265 102.438C158.85 101.983 158.279 101.756 157.552 101.756C157.063 101.756 156.631 101.861 156.256 102.071C155.887 102.281 155.597 102.588 155.387 102.991C155.183 103.389 155.077 103.869 155.072 104.432ZM172.268 117.182C171.092 117.182 170.084 117.02 169.243 116.696C168.408 116.378 167.743 115.943 167.249 115.392C166.754 114.841 166.433 114.222 166.286 113.534L169.643 113.082C169.746 113.344 169.908 113.588 170.129 113.815C170.351 114.043 170.643 114.224 171.007 114.361C171.376 114.503 171.825 114.574 172.354 114.574C173.143 114.574 173.794 114.381 174.305 113.994C174.822 113.614 175.081 112.974 175.081 112.077V109.682H174.928C174.768 110.045 174.53 110.389 174.212 110.713C173.893 111.037 173.484 111.301 172.984 111.506C172.484 111.71 171.888 111.812 171.195 111.812C170.212 111.812 169.317 111.585 168.51 111.131C167.709 110.67 167.07 109.969 166.592 109.026C166.121 108.077 165.885 106.878 165.885 105.429C165.885 103.946 166.126 102.707 166.609 101.713C167.092 100.719 167.734 99.9744 168.536 99.4801C169.342 98.9858 170.226 98.7386 171.186 98.7386C171.919 98.7386 172.533 98.8636 173.027 99.1136C173.521 99.358 173.919 99.6648 174.22 100.034C174.527 100.398 174.763 100.756 174.928 101.108H175.064V98.9091H178.669V112.128C178.669 113.241 178.396 114.173 177.851 114.923C177.305 115.673 176.55 116.236 175.584 116.611C174.624 116.991 173.518 117.182 172.268 117.182ZM172.345 109.085C172.93 109.085 173.425 108.94 173.828 108.651C174.237 108.355 174.55 107.935 174.766 107.389C174.987 106.838 175.098 106.179 175.098 105.412C175.098 104.645 174.99 103.98 174.774 103.418C174.558 102.849 174.246 102.409 173.837 102.097C173.428 101.784 172.93 101.628 172.345 101.628C171.749 101.628 171.246 101.79 170.837 102.114C170.428 102.432 170.118 102.875 169.908 103.443C169.697 104.011 169.592 104.668 169.592 105.412C169.592 106.168 169.697 106.821 169.908 107.372C170.124 107.918 170.433 108.341 170.837 108.642C171.246 108.937 171.749 109.085 172.345 109.085ZM60.1818 141.247C59.3466 141.247 58.6023 141.102 57.9489 140.812C57.2955 140.517 56.7784 140.082 56.3977 139.509C56.0227 138.929 55.8352 138.207 55.8352 137.344C55.8352 136.616 55.9688 136.006 56.2358 135.511C56.5028 135.017 56.8665 134.619 57.3267 134.318C57.7869 134.017 58.3097 133.79 58.8949 133.636C59.4858 133.483 60.1051 133.375 60.7528 133.312C61.5142 133.233 62.1278 133.159 62.5938 133.091C63.0597 133.017 63.3977 132.909 63.608 132.767C63.8182 132.625 63.9233 132.415 63.9233 132.136V132.085C63.9233 131.545 63.7528 131.128 63.4119 130.832C63.0767 130.537 62.5994 130.389 61.9801 130.389C61.3267 130.389 60.8068 130.534 60.4205 130.824C60.0341 131.108 59.7784 131.466 59.6534 131.898L56.2955 131.625C56.4659 130.83 56.8011 130.142 57.3011 129.562C57.8011 128.977 58.446 128.528 59.2358 128.216C60.0313 127.898 60.9517 127.739 61.9972 127.739C62.7244 127.739 63.4205 127.824 64.0852 127.994C64.7557 128.165 65.3494 128.429 65.8665 128.787C66.3892 129.145 66.8011 129.605 67.1023 130.168C67.4034 130.724 67.554 131.392 67.554 132.17V141H64.1108V139.185H64.0085C63.7983 139.594 63.517 139.955 63.1648 140.267C62.8125 140.574 62.3892 140.815 61.8949 140.991C61.4006 141.162 60.8295 141.247 60.1818 141.247ZM61.2216 138.741C61.7557 138.741 62.2273 138.636 62.6364 138.426C63.0455 138.21 63.3665 137.92 63.5994 137.557C63.8324 137.193 63.9489 136.781 63.9489 136.321V134.932C63.8352 135.006 63.679 135.074 63.4801 135.136C63.2869 135.193 63.0682 135.247 62.8239 135.298C62.5795 135.344 62.3352 135.386 62.0909 135.426C61.8466 135.46 61.625 135.491 61.4261 135.52C61 135.582 60.6278 135.682 60.3097 135.818C59.9915 135.955 59.7443 136.139 59.5682 136.372C59.392 136.599 59.304 136.884 59.304 137.224C59.304 137.719 59.483 138.097 59.8409 138.358C60.2045 138.614 60.6648 138.741 61.2216 138.741ZM79.5561 123.545V141H75.9254V123.545H79.5561ZM82.4645 141V127.909H86.0952V141H82.4645ZM84.2884 126.222C83.7486 126.222 83.2855 126.043 82.8991 125.685C82.5185 125.321 82.3281 124.886 82.3281 124.381C82.3281 123.881 82.5185 123.452 82.8991 123.094C83.2855 122.73 83.7486 122.548 84.2884 122.548C84.8281 122.548 85.2884 122.73 85.669 123.094C86.0554 123.452 86.2486 123.881 86.2486 124.381C86.2486 124.886 86.0554 125.321 85.669 125.685C85.2884 126.043 84.8281 126.222 84.2884 126.222ZM92.6342 133.432V141H89.0036V127.909H92.4638V130.219H92.6172C92.907 129.457 93.3928 128.855 94.0746 128.412C94.7564 127.963 95.5831 127.739 96.5547 127.739C97.4638 127.739 98.2564 127.938 98.9325 128.335C99.6087 128.733 100.134 129.301 100.509 130.04C100.884 130.773 101.072 131.648 101.072 132.665V141H97.4411V133.312C97.4467 132.511 97.2422 131.886 96.8274 131.438C96.4126 130.983 95.8416 130.756 95.1143 130.756C94.6257 130.756 94.1939 130.861 93.8189 131.071C93.4496 131.281 93.1598 131.588 92.9496 131.991C92.745 132.389 92.6399 132.869 92.6342 133.432ZM109.899 141.256C108.553 141.256 107.393 140.983 106.422 140.438C105.456 139.886 104.712 139.108 104.189 138.102C103.666 137.091 103.405 135.895 103.405 134.514C103.405 133.168 103.666 131.986 104.189 130.969C104.712 129.952 105.447 129.159 106.396 128.591C107.351 128.023 108.47 127.739 109.754 127.739C110.618 127.739 111.422 127.878 112.166 128.156C112.916 128.429 113.57 128.841 114.126 129.392C114.689 129.943 115.126 130.636 115.439 131.472C115.751 132.301 115.908 133.273 115.908 134.386V135.384H104.854V133.134H112.49C112.49 132.611 112.376 132.148 112.149 131.744C111.922 131.341 111.607 131.026 111.203 130.798C110.805 130.565 110.342 130.449 109.814 130.449C109.263 130.449 108.774 130.577 108.348 130.832C107.928 131.082 107.598 131.42 107.359 131.847C107.121 132.267 106.999 132.736 106.993 133.253V135.392C106.993 136.04 107.112 136.599 107.351 137.071C107.595 137.543 107.939 137.906 108.382 138.162C108.825 138.418 109.351 138.545 109.959 138.545C110.362 138.545 110.732 138.489 111.067 138.375C111.402 138.261 111.689 138.091 111.928 137.864C112.166 137.636 112.348 137.358 112.473 137.028L115.831 137.25C115.661 138.057 115.311 138.761 114.783 139.364C114.26 139.96 113.584 140.426 112.754 140.761C111.93 141.091 110.979 141.256 109.899 141.256ZM129.746 141.256C128.423 141.256 127.278 140.974 126.312 140.412C125.352 139.844 124.61 139.054 124.087 138.043C123.565 137.026 123.303 135.847 123.303 134.506C123.303 133.153 123.565 131.972 124.087 130.96C124.61 129.943 125.352 129.153 126.312 128.591C127.278 128.023 128.423 127.739 129.746 127.739C131.07 127.739 132.212 128.023 133.173 128.591C134.138 129.153 134.883 129.943 135.406 130.96C135.928 131.972 136.19 133.153 136.19 134.506C136.19 135.847 135.928 137.026 135.406 138.043C134.883 139.054 134.138 139.844 133.173 140.412C132.212 140.974 131.07 141.256 129.746 141.256ZM129.763 138.443C130.366 138.443 130.869 138.273 131.272 137.932C131.675 137.585 131.979 137.114 132.184 136.517C132.394 135.92 132.499 135.241 132.499 134.48C132.499 133.719 132.394 133.04 132.184 132.443C131.979 131.847 131.675 131.375 131.272 131.028C130.869 130.682 130.366 130.509 129.763 130.509C129.156 130.509 128.644 130.682 128.229 131.028C127.82 131.375 127.511 131.847 127.3 132.443C127.096 133.04 126.994 133.719 126.994 134.48C126.994 135.241 127.096 135.92 127.3 136.517C127.511 137.114 127.82 137.585 128.229 137.932C128.644 138.273 129.156 138.443 129.763 138.443ZM145.59 127.909V130.636H137.511V127.909H145.59ZM139.36 141V126.963C139.36 126.014 139.545 125.227 139.914 124.602C140.289 123.977 140.8 123.509 141.448 123.196C142.096 122.884 142.832 122.727 143.656 122.727C144.212 122.727 144.721 122.77 145.181 122.855C145.647 122.94 145.994 123.017 146.221 123.085L145.573 125.812C145.431 125.767 145.255 125.724 145.045 125.685C144.84 125.645 144.63 125.625 144.414 125.625C143.88 125.625 143.508 125.75 143.298 126C143.087 126.244 142.982 126.588 142.982 127.031V141H139.36ZM63.4119 156.909V159.636H55.5284V156.909H63.4119ZM57.3182 153.773H60.9489V165.977C60.9489 166.312 61 166.574 61.1023 166.761C61.2045 166.943 61.3466 167.071 61.5284 167.145C61.7159 167.219 61.9318 167.256 62.1761 167.256C62.3466 167.256 62.517 167.241 62.6875 167.213C62.858 167.179 62.9886 167.153 63.0795 167.136L63.6506 169.838C63.4688 169.895 63.2131 169.96 62.8835 170.034C62.554 170.114 62.1534 170.162 61.6818 170.179C60.8068 170.213 60.0398 170.097 59.3807 169.83C58.7273 169.562 58.2188 169.148 57.8551 168.585C57.4915 168.023 57.3125 167.312 57.3182 166.455V153.773ZM71.6023 170.256C70.2557 170.256 69.0966 169.983 68.125 169.438C67.1591 168.886 66.4148 168.108 65.892 167.102C65.3693 166.091 65.108 164.895 65.108 163.514C65.108 162.168 65.3693 160.986 65.892 159.969C66.4148 158.952 67.1506 158.159 68.0994 157.591C69.054 157.023 70.1733 156.739 71.4574 156.739C72.321 156.739 73.125 156.878 73.8693 157.156C74.6193 157.429 75.2727 157.841 75.8295 158.392C76.392 158.943 76.8295 159.636 77.142 160.472C77.4545 161.301 77.6108 162.273 77.6108 163.386V164.384H66.5568V162.134H74.1932C74.1932 161.611 74.0795 161.148 73.8523 160.744C73.625 160.341 73.3097 160.026 72.9062 159.798C72.5085 159.565 72.0455 159.449 71.517 159.449C70.9659 159.449 70.4773 159.577 70.0511 159.832C69.6307 160.082 69.3011 160.42 69.0625 160.847C68.8239 161.267 68.7017 161.736 68.696 162.253V164.392C68.696 165.04 68.8153 165.599 69.054 166.071C69.2983 166.543 69.642 166.906 70.0852 167.162C70.5284 167.418 71.054 167.545 71.6619 167.545C72.0653 167.545 72.4347 167.489 72.7699 167.375C73.1051 167.261 73.392 167.091 73.6307 166.864C73.8693 166.636 74.0511 166.358 74.1761 166.028L77.5341 166.25C77.3636 167.057 77.0142 167.761 76.4858 168.364C75.9631 168.96 75.2869 169.426 74.4574 169.761C73.6335 170.091 72.6818 170.256 71.6023 170.256ZM82.7798 156.909L85.1832 161.486L87.6463 156.909H91.3707L87.5781 163.455L91.473 170H87.7656L85.1832 165.474L82.6435 170H78.8935L82.7798 163.455L79.0298 156.909H82.7798ZM100.49 156.909V159.636H92.6065V156.909H100.49ZM94.3963 153.773H98.027V165.977C98.027 166.312 98.0781 166.574 98.1804 166.761C98.2827 166.943 98.4247 167.071 98.6065 167.145C98.794 167.219 99.0099 167.256 99.2543 167.256C99.4247 167.256 99.5952 167.241 99.7656 167.213C99.9361 167.179 100.067 167.153 100.158 167.136L100.729 169.838C100.547 169.895 100.291 169.96 99.9616 170.034C99.6321 170.114 99.2315 170.162 98.7599 170.179C97.8849 170.213 97.1179 170.097 96.4588 169.83C95.8054 169.562 95.2969 169.148 94.9332 168.585C94.5696 168.023 94.3906 167.312 94.3963 166.455V153.773ZM104.977 170.222C104.415 170.222 103.932 170.023 103.528 169.625C103.131 169.222 102.932 168.739 102.932 168.176C102.932 167.619 103.131 167.142 103.528 166.744C103.932 166.347 104.415 166.148 104.977 166.148C105.523 166.148 106 166.347 106.409 166.744C106.818 167.142 107.023 167.619 107.023 168.176C107.023 168.551 106.926 168.895 106.733 169.207C106.545 169.514 106.298 169.761 105.991 169.949C105.685 170.131 105.347 170.222 104.977 170.222Z" fill="black"/>
<path d="M53 187L60.5 191.33V182.67L53 187ZM200 187L192.5 182.67V191.33L200 187ZM59.75 187.75H193.25V186.25H59.75V187.75Z" fill="black"/>
<path d="M47 176L51.3301 168.5L42.6699 168.5L47 176ZM47 0L42.6699 7.5L51.3301 7.5L47 0ZM47.75 169.25L47.75 6.75L46.25 6.75L46.25 169.25L47.75 169.25Z" fill="black"/>
<path d="M95.8313 194.455V201H94.6456V194.455H95.8313ZM98.2211 198.124V201H97.0642V196.091H98.17V196.925H98.2275C98.3405 196.65 98.5205 196.432 98.7677 196.27C99.017 196.108 99.3248 196.027 99.6913 196.027C100.03 196.027 100.325 196.099 100.577 196.244C100.83 196.389 101.026 196.599 101.165 196.874C101.305 197.149 101.375 197.482 101.372 197.874V201H100.215V198.053C100.215 197.725 100.13 197.468 99.9598 197.283C99.7915 197.098 99.5581 197.005 99.2599 197.005C99.0574 197.005 98.8774 197.05 98.7197 197.139C98.5642 197.227 98.4417 197.353 98.3522 197.52C98.2648 197.686 98.2211 197.887 98.2211 198.124ZM105 196.091V196.986H102.178V196.091H105ZM102.875 194.915H104.032V199.523C104.032 199.679 104.055 199.798 104.102 199.881C104.151 199.962 104.215 200.018 104.294 200.048C104.372 200.077 104.46 200.092 104.556 200.092C104.628 200.092 104.694 200.087 104.754 200.076C104.816 200.066 104.862 200.056 104.894 200.048L105.089 200.952C105.028 200.973 104.939 200.997 104.824 201.022C104.711 201.048 104.573 201.063 104.409 201.067C104.119 201.076 103.858 201.032 103.626 200.936C103.393 200.838 103.209 200.687 103.073 200.482C102.938 200.278 102.872 200.022 102.875 199.715V194.915ZM105.968 201V196.091H107.089V196.909H107.14C107.23 196.626 107.383 196.407 107.601 196.254C107.82 196.098 108.07 196.021 108.352 196.021C108.416 196.021 108.487 196.024 108.566 196.03C108.647 196.034 108.714 196.042 108.767 196.053V197.117C108.718 197.1 108.64 197.085 108.534 197.072C108.43 197.057 108.328 197.05 108.23 197.05C108.019 197.05 107.83 197.096 107.661 197.187C107.495 197.277 107.364 197.401 107.268 197.561C107.172 197.721 107.124 197.905 107.124 198.114V201H105.968ZM109.536 201V196.091H110.693V201H109.536ZM110.118 195.394C109.934 195.394 109.777 195.333 109.645 195.212C109.512 195.088 109.446 194.94 109.446 194.768C109.446 194.593 109.512 194.445 109.645 194.324C109.777 194.2 109.934 194.138 110.118 194.138C110.303 194.138 110.461 194.2 110.591 194.324C110.723 194.445 110.789 194.593 110.789 194.768C110.789 194.94 110.723 195.088 110.591 195.212C110.461 195.333 110.303 195.394 110.118 195.394ZM114.024 201.096C113.534 201.096 113.113 200.988 112.761 200.773C112.412 200.558 112.142 200.261 111.953 199.881C111.765 199.5 111.672 199.061 111.672 198.565C111.672 198.066 111.767 197.626 111.959 197.245C112.151 196.861 112.422 196.563 112.771 196.35C113.123 196.135 113.538 196.027 114.017 196.027C114.416 196.027 114.769 196.1 115.075 196.248C115.384 196.392 115.63 196.598 115.814 196.864C115.997 197.129 116.101 197.437 116.127 197.791H115.021C114.976 197.555 114.87 197.358 114.701 197.2C114.535 197.04 114.313 196.96 114.033 196.96C113.797 196.96 113.589 197.024 113.41 197.152C113.231 197.278 113.092 197.459 112.992 197.695C112.894 197.932 112.845 198.215 112.845 198.545C112.845 198.88 112.894 199.168 112.992 199.408C113.09 199.647 113.227 199.831 113.404 199.961C113.583 200.089 113.793 200.153 114.033 200.153C114.204 200.153 114.356 200.121 114.491 200.057C114.627 199.991 114.741 199.896 114.832 199.773C114.924 199.649 114.987 199.499 115.021 199.322H116.127C116.099 199.669 115.997 199.977 115.82 200.246C115.643 200.512 115.402 200.721 115.098 200.872C114.793 201.021 114.435 201.096 114.024 201.096ZM120.957 197.388L119.902 197.504C119.872 197.397 119.82 197.297 119.746 197.203C119.673 197.109 119.575 197.034 119.452 196.976C119.328 196.919 119.177 196.89 118.998 196.89C118.757 196.89 118.555 196.942 118.39 197.047C118.229 197.151 118.149 197.286 118.151 197.452C118.149 197.595 118.201 197.711 118.307 197.801C118.416 197.89 118.595 197.964 118.844 198.021L119.682 198.2C120.146 198.3 120.491 198.459 120.717 198.676C120.945 198.894 121.06 199.178 121.062 199.53C121.06 199.839 120.97 200.112 120.791 200.348C120.614 200.582 120.368 200.766 120.052 200.898C119.737 201.03 119.375 201.096 118.966 201.096C118.365 201.096 117.881 200.97 117.515 200.719C117.148 200.465 116.93 200.113 116.86 199.661L117.988 199.552C118.039 199.774 118.148 199.941 118.314 200.054C118.48 200.167 118.696 200.223 118.963 200.223C119.237 200.223 119.458 200.167 119.624 200.054C119.792 199.941 119.877 199.801 119.877 199.635C119.877 199.495 119.822 199.379 119.714 199.287C119.607 199.195 119.441 199.125 119.215 199.076L118.378 198.9C117.907 198.802 117.558 198.637 117.333 198.405C117.107 198.17 116.995 197.874 116.997 197.516C116.995 197.214 117.077 196.952 117.243 196.73C117.411 196.506 117.645 196.334 117.943 196.212C118.243 196.089 118.59 196.027 118.982 196.027C119.557 196.027 120.01 196.15 120.34 196.395C120.672 196.64 120.878 196.971 120.957 197.388ZM122.016 201V196.091H123.173V201H122.016ZM122.598 195.394C122.415 195.394 122.257 195.333 122.125 195.212C121.993 195.088 121.927 194.94 121.927 194.768C121.927 194.593 121.993 194.445 122.125 194.324C122.257 194.2 122.415 194.138 122.598 194.138C122.783 194.138 122.941 194.2 123.071 194.324C123.203 194.445 123.269 194.593 123.269 194.768C123.269 194.94 123.203 195.088 123.071 195.212C122.941 195.333 122.783 195.394 122.598 195.394ZM126.504 201.096C126.014 201.096 125.593 200.988 125.242 200.773C124.892 200.558 124.623 200.261 124.433 199.881C124.246 199.5 124.152 199.061 124.152 198.565C124.152 198.066 124.248 197.626 124.44 197.245C124.631 196.861 124.902 196.563 125.252 196.35C125.603 196.135 126.019 196.027 126.498 196.027C126.896 196.027 127.249 196.1 127.556 196.248C127.865 196.392 128.111 196.598 128.294 196.864C128.477 197.129 128.582 197.437 128.607 197.791H127.502C127.457 197.555 127.35 197.358 127.182 197.2C127.016 197.04 126.793 196.96 126.514 196.96C126.277 196.96 126.07 197.024 125.891 197.152C125.712 197.278 125.572 197.459 125.472 197.695C125.374 197.932 125.325 198.215 125.325 198.545C125.325 198.88 125.374 199.168 125.472 199.408C125.57 199.647 125.707 199.831 125.884 199.961C126.063 200.089 126.273 200.153 126.514 200.153C126.684 200.153 126.837 200.121 126.971 200.057C127.107 199.991 127.221 199.896 127.313 199.773C127.405 199.649 127.467 199.499 127.502 199.322H128.607C128.58 199.669 128.477 199.977 128.301 200.246C128.124 200.512 127.883 200.721 127.578 200.872C127.274 201.021 126.916 201.096 126.504 201.096ZM133.166 196.254C133.136 195.975 133.01 195.757 132.789 195.602C132.569 195.446 132.284 195.369 131.932 195.369C131.685 195.369 131.473 195.406 131.296 195.48C131.119 195.555 130.984 195.656 130.89 195.784C130.796 195.912 130.748 196.058 130.746 196.222C130.746 196.358 130.777 196.477 130.839 196.577C130.903 196.677 130.989 196.762 131.098 196.832C131.206 196.901 131.327 196.958 131.459 197.005C131.591 197.052 131.724 197.091 131.858 197.123L132.472 197.277C132.719 197.334 132.957 197.412 133.185 197.51C133.415 197.608 133.621 197.732 133.802 197.881C133.985 198.03 134.13 198.21 134.236 198.421C134.343 198.632 134.396 198.879 134.396 199.162C134.396 199.546 134.298 199.884 134.102 200.175C133.906 200.465 133.623 200.692 133.252 200.856C132.883 201.018 132.437 201.099 131.913 201.099C131.404 201.099 130.961 201.02 130.586 200.863C130.214 200.705 129.922 200.475 129.711 200.172C129.502 199.87 129.389 199.501 129.372 199.066H130.539C130.556 199.294 130.626 199.484 130.749 199.635C130.873 199.787 131.034 199.9 131.232 199.974C131.432 200.049 131.656 200.086 131.903 200.086C132.161 200.086 132.387 200.048 132.581 199.971C132.777 199.892 132.93 199.783 133.041 199.645C133.152 199.504 133.208 199.34 133.21 199.153C133.208 198.982 133.158 198.842 133.06 198.731C132.962 198.618 132.825 198.524 132.648 198.45C132.473 198.373 132.269 198.305 132.034 198.245L131.29 198.053C130.751 197.915 130.324 197.705 130.011 197.424C129.7 197.14 129.545 196.764 129.545 196.295C129.545 195.91 129.649 195.572 129.858 195.282C130.069 194.993 130.355 194.768 130.718 194.608C131.08 194.446 131.49 194.365 131.948 194.365C132.412 194.365 132.819 194.446 133.169 194.608C133.52 194.768 133.796 194.99 133.997 195.276C134.197 195.559 134.3 195.885 134.307 196.254H133.166ZM135.402 201V196.091H136.559V201H135.402ZM135.984 195.394C135.801 195.394 135.643 195.333 135.511 195.212C135.379 195.088 135.313 194.94 135.313 194.768C135.313 194.593 135.379 194.445 135.511 194.324C135.643 194.2 135.801 194.138 135.984 194.138C136.169 194.138 136.327 194.2 136.457 194.324C136.589 194.445 136.655 194.593 136.655 194.768C136.655 194.94 136.589 195.088 136.457 195.212C136.327 195.333 136.169 195.394 135.984 195.394ZM137.685 201V200.265L140.216 197.091V197.05H137.768V196.091H141.632V196.88L139.222 200V200.041H141.715V201H137.685ZM144.835 201.096C144.343 201.096 143.918 200.994 143.56 200.789C143.204 200.582 142.93 200.29 142.739 199.913C142.547 199.534 142.451 199.088 142.451 198.574C142.451 198.069 142.547 197.626 142.739 197.245C142.932 196.861 143.203 196.563 143.55 196.35C143.898 196.135 144.306 196.027 144.774 196.027C145.077 196.027 145.362 196.076 145.631 196.174C145.902 196.27 146.14 196.419 146.347 196.621C146.556 196.824 146.72 197.082 146.839 197.395C146.958 197.706 147.018 198.077 147.018 198.507V198.862H142.994V198.082H145.909C145.907 197.86 145.859 197.663 145.765 197.491C145.671 197.316 145.54 197.179 145.372 197.078C145.206 196.978 145.012 196.928 144.79 196.928C144.554 196.928 144.346 196.986 144.167 197.101C143.988 197.214 143.849 197.363 143.748 197.548C143.65 197.732 143.6 197.933 143.598 198.152V198.833C143.598 199.119 143.65 199.364 143.755 199.568C143.859 199.771 144.005 199.926 144.193 200.035C144.38 200.141 144.6 200.195 144.851 200.195C145.019 200.195 145.172 200.171 145.308 200.124C145.445 200.075 145.563 200.004 145.663 199.91C145.763 199.816 145.839 199.7 145.89 199.562L146.97 199.683C146.902 199.969 146.772 200.218 146.58 200.431C146.391 200.642 146.148 200.806 145.851 200.923C145.555 201.038 145.217 201.096 144.835 201.096ZM148.71 201.07C148.516 201.07 148.349 201.002 148.211 200.866C148.072 200.729 148.004 200.563 148.006 200.367C148.004 200.175 148.072 200.011 148.211 199.875C148.349 199.739 148.516 199.67 148.71 199.67C148.897 199.67 149.06 199.739 149.199 199.875C149.339 200.011 149.411 200.175 149.413 200.367C149.411 200.497 149.376 200.615 149.31 200.722C149.246 200.828 149.161 200.914 149.055 200.978C148.95 201.039 148.835 201.07 148.71 201.07ZM150.658 194.455H152.109L154.052 199.197H154.129L156.072 194.455H157.523V201H156.386V196.503H156.325L154.516 200.981H153.666L151.857 196.494H151.796V201H150.658V194.455ZM158.763 201V196.091H159.92V201H158.763ZM159.345 195.394C159.162 195.394 159.004 195.333 158.872 195.212C158.74 195.088 158.674 194.94 158.674 194.768C158.674 194.593 158.74 194.445 158.872 194.324C159.004 194.2 159.162 194.138 159.345 194.138C159.53 194.138 159.688 194.2 159.818 194.324C159.95 194.445 160.016 194.593 160.016 194.768C160.016 194.94 159.95 195.088 159.818 195.212C159.688 195.333 159.53 195.394 159.345 195.394ZM162.267 198.124V201H161.11V196.091H162.216V196.925H162.273C162.386 196.65 162.566 196.432 162.814 196.27C163.063 196.108 163.371 196.027 163.737 196.027C164.076 196.027 164.371 196.099 164.623 196.244C164.876 196.389 165.072 196.599 165.211 196.874C165.351 197.149 165.42 197.482 165.418 197.874V201H164.261V198.053C164.261 197.725 164.176 197.468 164.006 197.283C163.837 197.098 163.604 197.005 163.306 197.005C163.103 197.005 162.923 197.05 162.766 197.139C162.61 197.227 162.488 197.353 162.398 197.52C162.311 197.686 162.267 197.887 162.267 198.124Z" fill="black"/>
<path d="M11.4443 86.24H16.3563V86.776H11.4443V86.24ZM11.4443 84.552H12.1003V86.584H11.4443V84.552ZM10.5563 87.688H17.0923V88.216H10.5563V87.688ZM13.4923 86.592H14.1483V88.048H13.4923V86.592ZM11.2843 88.936H16.3723V89.472H11.2843V88.936ZM11.2122 90.992H16.4363V91.528H11.2122V90.992ZM12.3803 89.096H13.0363V91.24H12.3803V89.096ZM14.6123 89.096H15.2683V91.24H14.6123V89.096ZM23.1636 84.384H23.8276V91.632H23.1636V84.384ZM20.0116 84.944C21.0836 84.944 21.8516 85.928 21.8516 87.464C21.8516 89.008 21.0836 89.992 20.0116 89.992C18.9476 89.992 18.1796 89.008 18.1796 87.464C18.1796 85.928 18.9476 84.944 20.0116 84.944ZM20.0116 85.544C19.3076 85.544 18.8116 86.296 18.8116 87.464C18.8116 88.64 19.3076 89.408 20.0116 89.408C20.7236 89.408 21.2116 88.64 21.2116 87.464C21.2116 86.296 20.7236 85.544 20.0116 85.544ZM33.021 84.392H33.661V91.624H33.021V84.392ZM30.389 86.984H31.773V87.536H30.389V86.984ZM31.573 84.56H32.197V91.256H31.573V84.56ZM28.997 85.512H29.509V86.432C29.509 88.016 28.901 89.512 27.837 90.184L27.429 89.688C28.437 89.08 28.997 87.76 28.997 86.432V85.512ZM29.133 85.512H29.645V86.432C29.645 87.688 30.189 88.944 31.181 89.52L30.773 90.008C29.717 89.368 29.133 87.944 29.133 86.432V85.512ZM27.629 85.232H30.933V85.784H27.629V85.232ZM39.8284 84.4H40.4924V89.824H39.8284V84.4ZM40.2844 86.768H41.5644V87.328H40.2844V86.768ZM34.9004 85.272H39.1724V85.808H34.9004V85.272ZM37.0364 86.208C38.0604 86.208 38.7644 86.744 38.7644 87.56C38.7644 88.368 38.0604 88.904 37.0364 88.904C36.0044 88.904 35.3004 88.368 35.3004 87.56C35.3004 86.744 36.0044 86.208 37.0364 86.208ZM37.0364 86.728C36.3804 86.728 35.9324 87.056 35.9324 87.56C35.9324 88.056 36.3804 88.384 37.0364 88.384C37.6844 88.384 38.1324 88.056 38.1324 87.56C38.1324 87.056 37.6844 86.728 37.0364 86.728ZM36.7004 84.392H37.3644V85.552H36.7004V84.392ZM35.9884 90.92H40.8204V91.464H35.9884V90.92ZM35.9884 89.392H36.6524V91.152H35.9884V89.392ZM19.8646 98.632H20.4886V99.536H21.7526V98.632H22.3686V101.528H19.8646V98.632ZM20.4886 100.032V101.008H21.7526V100.032H20.4886ZM23.7686 98.592H24.2806V99.192C24.2806 100.176 23.7846 101.168 22.7846 101.592L22.4486 101.088C23.3206 100.72 23.7686 99.928 23.7686 99.192V98.592ZM23.9046 98.592H24.4166V99.192C24.4166 99.968 24.8646 100.752 25.7366 101.088L25.4006 101.592C24.3926 101.176 23.9046 100.216 23.9046 99.192V98.592ZM22.6726 96.088H24.6166V96.64H22.6726V96.088ZM21.0086 94.712C22.0886 94.712 22.8726 95.384 22.8726 96.376C22.8726 97.36 22.0886 98.04 21.0086 98.04C19.9286 98.04 19.1446 97.36 19.1446 96.376C19.1446 95.384 19.9286 94.712 21.0086 94.712ZM21.0086 95.264C20.2966 95.264 19.7846 95.72 19.7846 96.376C19.7846 97.024 20.2966 97.488 21.0086 97.488C21.7206 97.488 22.2326 97.024 22.2326 96.376C22.2326 95.72 21.7206 95.264 21.0086 95.264ZM24.3206 94.392H24.9846V98.224H24.3206V94.392ZM29.664 94.552C31.224 94.552 32.208 95.064 32.208 95.92C32.208 96.776 31.224 97.28 29.664 97.28C28.096 97.28 27.12 96.776 27.12 95.92C27.12 95.064 28.096 94.552 29.664 94.552ZM29.664 95.08C28.512 95.08 27.8 95.384 27.8 95.92C27.8 96.448 28.512 96.76 29.664 96.76C30.808 96.76 31.528 96.448 31.528 95.92C31.528 95.384 30.808 95.08 29.664 95.08ZM27.192 99.144H32.128V101.528H27.192V99.144ZM31.48 99.68H27.848V100.992H31.48V99.68ZM26.392 97.904H32.928V98.44H26.392V97.904Z" fill="black"/>
</g>
<defs>
<clipPath id="clip0_14_7">
<rect width="200" height="205" fill="white"/>
</clipPath>
</defs>
</svg>
