<svg width="283" height="152" viewBox="0 0 283 152" fill="none" xmlns="http://www.w3.org/2000/svg">
<rect width="283" height="152" fill="white"/>
<rect x="53.25" y="0.25" width="229.5" height="119.5" fill="white" stroke="black" stroke-width="0.5"/>
<path d="M58.8523 10.5881V7.54545H73.1875V10.5881H67.8438V25H64.196V10.5881H58.8523ZM79.1108 17.4318V25H75.4801V7.54545H79.0085V14.2188H79.1619C79.4574 13.446 79.9347 12.8409 80.5938 12.4034C81.2528 11.9602 82.0795 11.7386 83.0739 11.7386C83.983 11.7386 84.7756 11.9375 85.4517 12.3352C86.1335 12.7273 86.6619 13.2926 87.0369 14.0312C87.4176 14.7642 87.6051 15.642 87.5994 16.6648V25H83.9688V17.3125C83.9744 16.5057 83.7699 15.8778 83.3551 15.429C82.946 14.9801 82.3722 14.7557 81.6335 14.7557C81.1392 14.7557 80.7017 14.8608 80.321 15.071C79.946 15.2812 79.6506 15.5881 79.4347 15.9915C79.2244 16.3892 79.1165 16.8693 79.1108 17.4318ZM90.4567 25V11.9091H94.0874V25H90.4567ZM92.2805 10.2216C91.7408 10.2216 91.2777 10.0426 90.8913 9.68466C90.5107 9.32102 90.3203 8.88636 90.3203 8.38068C90.3203 7.88068 90.5107 7.4517 90.8913 7.09375C91.2777 6.73011 91.7408 6.54829 92.2805 6.54829C92.8203 6.54829 93.2805 6.73011 93.6612 7.09375C94.0476 7.4517 94.2408 7.88068 94.2408 8.38068C94.2408 8.88636 94.0476 9.32102 93.6612 9.68466C93.2805 10.0426 92.8203 10.2216 92.2805 10.2216ZM107.888 15.642L104.564 15.8466C104.507 15.5625 104.385 15.3068 104.197 15.0795C104.01 14.8466 103.763 14.6619 103.456 14.5256C103.155 14.3835 102.794 14.3125 102.374 14.3125C101.811 14.3125 101.337 14.4318 100.95 14.6705C100.564 14.9034 100.371 15.2159 100.371 15.608C100.371 15.9205 100.496 16.1847 100.746 16.4006C100.996 16.6165 101.425 16.7898 102.033 16.9205L104.402 17.3977C105.675 17.6591 106.624 18.0795 107.249 18.6591C107.874 19.2386 108.186 20 108.186 20.9432C108.186 21.8011 107.933 22.554 107.428 23.2017C106.928 23.8494 106.24 24.3551 105.365 24.7188C104.496 25.0767 103.493 25.2557 102.357 25.2557C100.624 25.2557 99.2429 24.8949 98.2145 24.1733C97.1918 23.446 96.5923 22.4574 96.4162 21.2074L99.9872 21.0199C100.095 21.5483 100.357 21.9517 100.771 22.2301C101.186 22.5028 101.717 22.6392 102.365 22.6392C103.001 22.6392 103.513 22.517 103.899 22.2727C104.291 22.0227 104.49 21.7017 104.496 21.3097C104.49 20.9801 104.351 20.7102 104.078 20.5C103.805 20.2841 103.385 20.1193 102.817 20.0057L100.55 19.554C99.2713 19.2983 98.3196 18.8551 97.6946 18.2244C97.0753 17.5937 96.7656 16.7898 96.7656 15.8125C96.7656 14.9716 96.9929 14.2472 97.4474 13.6392C97.9077 13.0312 98.5526 12.5625 99.3821 12.233C100.217 11.9034 101.195 11.7386 102.314 11.7386C103.967 11.7386 105.268 12.0881 106.217 12.7869C107.172 13.4858 107.729 14.4375 107.888 15.642ZM116.027 25V11.9091H119.658V25H116.027ZM117.851 10.2216C117.311 10.2216 116.848 10.0426 116.462 9.68466C116.081 9.32102 115.891 8.88636 115.891 8.38068C115.891 7.88068 116.081 7.4517 116.462 7.09375C116.848 6.73011 117.311 6.54829 117.851 6.54829C118.391 6.54829 118.851 6.73011 119.232 7.09375C119.618 7.4517 119.811 7.88068 119.811 8.38068C119.811 8.88636 119.618 9.32102 119.232 9.68466C118.851 10.0426 118.391 10.2216 117.851 10.2216ZM133.458 15.642L130.134 15.8466C130.077 15.5625 129.955 15.3068 129.768 15.0795C129.58 14.8466 129.333 14.6619 129.026 14.5256C128.725 14.3835 128.364 14.3125 127.944 14.3125C127.381 14.3125 126.907 14.4318 126.521 14.6705C126.134 14.9034 125.941 15.2159 125.941 15.608C125.941 15.9205 126.066 16.1847 126.316 16.4006C126.566 16.6165 126.995 16.7898 127.603 16.9205L129.972 17.3977C131.245 17.6591 132.194 18.0795 132.819 18.6591C133.444 19.2386 133.756 20 133.756 20.9432C133.756 21.8011 133.504 22.554 132.998 23.2017C132.498 23.8494 131.81 24.3551 130.935 24.7188C130.066 25.0767 129.063 25.2557 127.927 25.2557C126.194 25.2557 124.813 24.8949 123.785 24.1733C122.762 23.446 122.163 22.4574 121.987 21.2074L125.558 21.0199C125.665 21.5483 125.927 21.9517 126.342 22.2301C126.756 22.5028 127.288 22.6392 127.935 22.6392C128.572 22.6392 129.083 22.517 129.469 22.2727C129.862 22.0227 130.06 21.7017 130.066 21.3097C130.06 20.9801 129.921 20.7102 129.648 20.5C129.376 20.2841 128.955 20.1193 128.387 20.0057L126.12 19.554C124.842 19.2983 123.89 18.8551 123.265 18.2244C122.646 17.5937 122.336 16.7898 122.336 15.8125C122.336 14.9716 122.563 14.2472 123.018 13.6392C123.478 13.0312 124.123 12.5625 124.952 12.233C125.788 11.9034 126.765 11.7386 127.884 11.7386C129.538 11.7386 130.839 12.0881 131.788 12.7869C132.742 13.4858 133.299 14.4375 133.458 15.642ZM145.33 25.2472C144.495 25.2472 143.751 25.1023 143.097 24.8125C142.444 24.517 141.927 24.0824 141.546 23.5085C141.171 22.929 140.984 22.2074 140.984 21.3438C140.984 20.6165 141.117 20.0057 141.384 19.5114C141.651 19.017 142.015 18.6193 142.475 18.3182C142.935 18.017 143.458 17.7898 144.043 17.6364C144.634 17.483 145.254 17.375 145.901 17.3125C146.663 17.233 147.276 17.1591 147.742 17.0909C148.208 17.017 148.546 16.9091 148.756 16.767C148.967 16.625 149.072 16.4148 149.072 16.1364V16.0852C149.072 15.5455 148.901 15.1278 148.56 14.8324C148.225 14.5369 147.748 14.3892 147.129 14.3892C146.475 14.3892 145.955 14.5341 145.569 14.8239C145.183 15.108 144.927 15.4659 144.802 15.8977L141.444 15.625C141.614 14.8295 141.95 14.142 142.45 13.5625C142.95 12.9773 143.594 12.5284 144.384 12.2159C145.18 11.8977 146.1 11.7386 147.146 11.7386C147.873 11.7386 148.569 11.8239 149.234 11.9943C149.904 12.1648 150.498 12.429 151.015 12.7869C151.538 13.1449 151.95 13.6051 152.251 14.1676C152.552 14.7244 152.702 15.392 152.702 16.1705V25H149.259V23.1847H149.157C148.947 23.5938 148.665 23.9545 148.313 24.267C147.961 24.5739 147.538 24.8153 147.043 24.9915C146.549 25.1619 145.978 25.2472 145.33 25.2472ZM146.37 22.7415C146.904 22.7415 147.376 22.6364 147.785 22.4261C148.194 22.2102 148.515 21.9205 148.748 21.5568C148.981 21.1932 149.097 20.7812 149.097 20.321V18.9318C148.984 19.0057 148.827 19.0739 148.629 19.1364C148.435 19.1932 148.217 19.2472 147.972 19.2983C147.728 19.3437 147.484 19.3864 147.239 19.4261C146.995 19.4602 146.773 19.4915 146.575 19.5199C146.148 19.5824 145.776 19.6818 145.458 19.8182C145.14 19.9545 144.893 20.1392 144.717 20.3722C144.54 20.5994 144.452 20.8835 144.452 21.2244C144.452 21.7188 144.631 22.0966 144.989 22.358C145.353 22.6136 145.813 22.7415 146.37 22.7415ZM160.477 10.5881V7.54545H174.812V10.5881H169.469V25H165.821V10.5881H160.477ZM181.173 25.2557C179.826 25.2557 178.667 24.983 177.695 24.4375C176.729 23.8864 175.985 23.108 175.462 22.1023C174.94 21.0909 174.678 19.8949 174.678 18.5142C174.678 17.1676 174.94 15.9858 175.462 14.9688C175.985 13.9517 176.721 13.1591 177.67 12.5909C178.624 12.0227 179.744 11.7386 181.028 11.7386C181.891 11.7386 182.695 11.8778 183.44 12.1562C184.19 12.429 184.843 12.8409 185.4 13.392C185.962 13.9432 186.4 14.6364 186.712 15.4716C187.025 16.3011 187.181 17.2727 187.181 18.3864V19.3835H176.127V17.1335H183.763C183.763 16.6108 183.65 16.1477 183.423 15.7443C183.195 15.3409 182.88 15.0256 182.477 14.7983C182.079 14.5653 181.616 14.4489 181.087 14.4489C180.536 14.4489 180.048 14.5767 179.621 14.8324C179.201 15.0824 178.871 15.4205 178.633 15.8466C178.394 16.267 178.272 16.7358 178.266 17.2528V19.392C178.266 20.0398 178.386 20.5994 178.624 21.071C178.869 21.5426 179.212 21.9062 179.656 22.1619C180.099 22.4176 180.624 22.5455 181.232 22.5455C181.636 22.5455 182.005 22.4886 182.34 22.375C182.675 22.2614 182.962 22.0909 183.201 21.8636C183.44 21.6364 183.621 21.358 183.746 21.0284L187.104 21.25C186.934 22.0568 186.585 22.7614 186.056 23.3636C185.533 23.9602 184.857 24.4261 184.028 24.7614C183.204 25.0909 182.252 25.2557 181.173 25.2557ZM192.35 11.9091L194.754 16.4858L197.217 11.9091H200.941L197.148 18.4545L201.043 25H197.336L194.754 20.4744L192.214 25H188.464L192.35 18.4545L188.6 11.9091H192.35ZM210.06 11.9091V14.6364H202.177V11.9091H210.06ZM203.967 8.77273H207.597V20.9773C207.597 21.3125 207.648 21.5739 207.751 21.7614C207.853 21.9432 207.995 22.071 208.177 22.1449C208.364 22.2187 208.58 22.2557 208.825 22.2557C208.995 22.2557 209.165 22.2415 209.336 22.2131C209.506 22.179 209.637 22.1534 209.728 22.1364L210.299 24.8381C210.117 24.8949 209.862 24.9602 209.532 25.0341C209.202 25.1136 208.802 25.1619 208.33 25.179C207.455 25.2131 206.688 25.0966 206.029 24.8295C205.376 24.5625 204.867 24.1477 204.504 23.5852C204.14 23.0227 203.961 22.3125 203.967 21.4545V8.77273ZM65.3636 54.2557C64.0227 54.2557 62.8693 53.9716 61.9034 53.4034C60.9432 52.8295 60.2045 52.0341 59.6875 51.017C59.1761 50 58.9205 48.8295 58.9205 47.5057C58.9205 46.1648 59.179 44.9886 59.696 43.9773C60.2188 42.9602 60.9602 42.1676 61.9205 41.5994C62.8807 41.0256 64.0227 40.7386 65.3466 40.7386C66.4886 40.7386 67.4886 40.946 68.3466 41.3608C69.2045 41.7756 69.8835 42.358 70.3835 43.108C70.8835 43.858 71.1591 44.7386 71.2102 45.75H67.7841C67.6875 45.0966 67.4318 44.571 67.017 44.1733C66.608 43.7699 66.071 43.5682 65.4062 43.5682C64.8438 43.5682 64.3523 43.7216 63.9318 44.0284C63.517 44.3295 63.1932 44.7699 62.9602 45.3494C62.7273 45.929 62.6108 46.6307 62.6108 47.4545C62.6108 48.2898 62.7244 49 62.9517 49.5852C63.1847 50.1705 63.5114 50.6165 63.9318 50.9233C64.3523 51.2301 64.8438 51.3835 65.4062 51.3835C65.821 51.3835 66.1932 51.2983 66.5227 51.1278C66.858 50.9574 67.1335 50.7102 67.3494 50.3864C67.571 50.0568 67.7159 49.6619 67.7841 49.2017H71.2102C71.1534 50.2017 70.8807 51.0824 70.392 51.8438C69.9091 52.5994 69.2415 53.1903 68.3892 53.6165C67.5369 54.0426 66.5284 54.2557 65.3636 54.2557ZM79.4496 54.2557C78.1257 54.2557 76.9808 53.9744 76.0149 53.4119C75.0547 52.8437 74.3132 52.054 73.7905 51.0426C73.2678 50.0256 73.0064 48.8466 73.0064 47.5057C73.0064 46.1534 73.2678 44.9716 73.7905 43.9602C74.3132 42.9432 75.0547 42.1534 76.0149 41.5909C76.9808 41.0227 78.1257 40.7386 79.4496 40.7386C80.7734 40.7386 81.9155 41.0227 82.8757 41.5909C83.8416 42.1534 84.5859 42.9432 85.1087 43.9602C85.6314 44.9716 85.8928 46.1534 85.8928 47.5057C85.8928 48.8466 85.6314 50.0256 85.1087 51.0426C84.5859 52.054 83.8416 52.8437 82.8757 53.4119C81.9155 53.9744 80.7734 54.2557 79.4496 54.2557ZM79.4666 51.4432C80.0689 51.4432 80.5717 51.2727 80.9751 50.9318C81.3786 50.5852 81.6825 50.1136 81.8871 49.517C82.0973 48.9205 82.2024 48.2415 82.2024 47.4801C82.2024 46.7188 82.0973 46.0398 81.8871 45.4432C81.6825 44.8466 81.3786 44.375 80.9751 44.0284C80.5717 43.6818 80.0689 43.5085 79.4666 43.5085C78.8587 43.5085 78.3473 43.6818 77.9325 44.0284C77.5234 44.375 77.2138 44.8466 77.0036 45.4432C76.799 46.0398 76.6967 46.7188 76.6967 47.4801C76.6967 48.2415 76.799 48.9205 77.0036 49.517C77.2138 50.1136 77.5234 50.5852 77.9325 50.9318C78.3473 51.2727 78.8587 51.4432 79.4666 51.4432ZM88.2536 54V40.9091H91.7138V43.2188H91.8672C92.1399 42.4517 92.5945 41.8466 93.2308 41.4034C93.8672 40.9602 94.6286 40.7386 95.5149 40.7386C96.4126 40.7386 97.1768 40.9631 97.8075 41.4119C98.4382 41.8551 98.8587 42.4574 99.0689 43.2188H99.2053C99.4723 42.4688 99.9553 41.8693 100.654 41.4205C101.359 40.9659 102.191 40.7386 103.151 40.7386C104.373 40.7386 105.364 41.1278 106.126 41.9062C106.893 42.679 107.276 43.7756 107.276 45.196V54H103.654V45.9119C103.654 45.1847 103.461 44.6392 103.075 44.2756C102.688 43.9119 102.205 43.7301 101.626 43.7301C100.967 43.7301 100.452 43.9403 100.083 44.3608C99.7138 44.7756 99.5291 45.3239 99.5291 46.0057V54H96.0092V45.8352C96.0092 45.1932 95.8246 44.6818 95.4553 44.3011C95.0916 43.9205 94.6115 43.7301 94.0149 43.7301C93.6115 43.7301 93.2479 43.8324 92.924 44.0369C92.6058 44.2358 92.353 44.517 92.1655 44.8807C91.978 45.2386 91.8842 45.6591 91.8842 46.142V54H88.2536ZM110.144 58.9091V40.9091H113.724V43.108H113.886C114.045 42.7557 114.275 42.3977 114.576 42.0341C114.883 41.6648 115.281 41.358 115.769 41.1136C116.263 40.8636 116.877 40.7386 117.61 40.7386C118.565 40.7386 119.445 40.9886 120.252 41.4886C121.059 41.983 121.704 42.7301 122.187 43.7301C122.67 44.7244 122.911 45.9716 122.911 47.4716C122.911 48.9318 122.675 50.1648 122.204 51.1705C121.738 52.1705 121.102 52.929 120.295 53.446C119.494 53.9574 118.596 54.2131 117.602 54.2131C116.897 54.2131 116.298 54.0966 115.803 53.8636C115.315 53.6307 114.914 53.3381 114.602 52.9858C114.289 52.6278 114.05 52.267 113.886 51.9034H113.775V58.9091H110.144ZM113.698 47.4545C113.698 48.233 113.806 48.9119 114.022 49.4915C114.238 50.071 114.55 50.5227 114.96 50.8466C115.369 51.1648 115.866 51.3239 116.451 51.3239C117.042 51.3239 117.542 51.1619 117.951 50.8381C118.36 50.5085 118.67 50.054 118.88 49.4744C119.096 48.8892 119.204 48.2159 119.204 47.4545C119.204 46.6989 119.099 46.0341 118.888 45.4602C118.678 44.8864 118.369 44.4375 117.96 44.1136C117.55 43.7898 117.048 43.6278 116.451 43.6278C115.86 43.6278 115.36 43.7841 114.951 44.0966C114.548 44.4091 114.238 44.8523 114.022 45.4261C113.806 46 113.698 46.6761 113.698 47.4545ZM131.246 54.2557C129.923 54.2557 128.778 53.9744 127.812 53.4119C126.852 52.8437 126.11 52.054 125.587 51.0426C125.065 50.0256 124.803 48.8466 124.803 47.5057C124.803 46.1534 125.065 44.9716 125.587 43.9602C126.11 42.9432 126.852 42.1534 127.812 41.5909C128.778 41.0227 129.923 40.7386 131.246 40.7386C132.57 40.7386 133.712 41.0227 134.673 41.5909C135.638 42.1534 136.383 42.9432 136.906 43.9602C137.428 44.9716 137.69 46.1534 137.69 47.5057C137.69 48.8466 137.428 50.0256 136.906 51.0426C136.383 52.054 135.638 52.8437 134.673 53.4119C133.712 53.9744 132.57 54.2557 131.246 54.2557ZM131.263 51.4432C131.866 51.4432 132.369 51.2727 132.772 50.9318C133.175 50.5852 133.479 50.1136 133.684 49.517C133.894 48.9205 133.999 48.2415 133.999 47.4801C133.999 46.7188 133.894 46.0398 133.684 45.4432C133.479 44.8466 133.175 44.375 132.772 44.0284C132.369 43.6818 131.866 43.5085 131.263 43.5085C130.656 43.5085 130.144 43.6818 129.729 44.0284C129.32 44.375 129.011 44.8466 128.8 45.4432C128.596 46.0398 128.494 46.7188 128.494 47.4801C128.494 48.2415 128.596 48.9205 128.8 49.517C129.011 50.1136 129.32 50.5852 129.729 50.9318C130.144 51.2727 130.656 51.4432 131.263 51.4432ZM150.942 44.642L147.619 44.8466C147.562 44.5625 147.44 44.3068 147.252 44.0795C147.065 43.8466 146.817 43.6619 146.511 43.5256C146.21 43.3835 145.849 43.3125 145.428 43.3125C144.866 43.3125 144.391 43.4318 144.005 43.6705C143.619 43.9034 143.425 44.2159 143.425 44.608C143.425 44.9205 143.55 45.1847 143.8 45.4006C144.05 45.6165 144.479 45.7898 145.087 45.9205L147.457 46.3977C148.729 46.6591 149.678 47.0795 150.303 47.6591C150.928 48.2386 151.241 49 151.241 49.9432C151.241 50.8011 150.988 51.554 150.482 52.2017C149.982 52.8494 149.295 53.3551 148.42 53.7188C147.55 54.0767 146.548 54.2557 145.411 54.2557C143.678 54.2557 142.298 53.8949 141.269 53.1733C140.246 52.446 139.647 51.4574 139.471 50.2074L143.042 50.0199C143.15 50.5483 143.411 50.9517 143.826 51.2301C144.241 51.5028 144.772 51.6392 145.42 51.6392C146.056 51.6392 146.567 51.517 146.954 51.2727C147.346 51.0227 147.545 50.7017 147.55 50.3097C147.545 49.9801 147.406 49.7102 147.133 49.5C146.86 49.2841 146.44 49.1193 145.871 49.0057L143.604 48.554C142.326 48.2983 141.374 47.8551 140.749 47.2244C140.13 46.5937 139.82 45.7898 139.82 44.8125C139.82 43.9716 140.048 43.2472 140.502 42.6392C140.962 42.0312 141.607 41.5625 142.437 41.233C143.272 40.9034 144.249 40.7386 145.369 40.7386C147.022 40.7386 148.323 41.0881 149.272 41.7869C150.227 42.4858 150.783 43.4375 150.942 44.642ZM157.26 54.2472C156.425 54.2472 155.68 54.1023 155.027 53.8125C154.374 53.517 153.857 53.0824 153.476 52.5085C153.101 51.929 152.913 51.2074 152.913 50.3438C152.913 49.6165 153.047 49.0057 153.314 48.5114C153.581 48.017 153.945 47.6193 154.405 47.3182C154.865 47.017 155.388 46.7898 155.973 46.6364C156.564 46.483 157.183 46.375 157.831 46.3125C158.592 46.233 159.206 46.1591 159.672 46.0909C160.138 46.017 160.476 45.9091 160.686 45.767C160.896 45.625 161.001 45.4148 161.001 45.1364V45.0852C161.001 44.5455 160.831 44.1278 160.49 43.8324C160.155 43.5369 159.678 43.3892 159.058 43.3892C158.405 43.3892 157.885 43.5341 157.499 43.8239C157.112 44.108 156.857 44.4659 156.732 44.8977L153.374 44.625C153.544 43.8295 153.879 43.142 154.379 42.5625C154.879 41.9773 155.524 41.5284 156.314 41.2159C157.109 40.8977 158.03 40.7386 159.075 40.7386C159.803 40.7386 160.499 40.8239 161.163 40.9943C161.834 41.1648 162.428 41.429 162.945 41.7869C163.467 42.1449 163.879 42.6051 164.18 43.1676C164.482 43.7244 164.632 44.392 164.632 45.1705V54H161.189V52.1847H161.087C160.876 52.5938 160.595 52.9545 160.243 53.267C159.891 53.5739 159.467 53.8153 158.973 53.9915C158.479 54.1619 157.908 54.2472 157.26 54.2472ZM158.3 51.7415C158.834 51.7415 159.305 51.6364 159.714 51.4261C160.124 51.2102 160.445 50.9205 160.678 50.5568C160.911 50.1932 161.027 49.7812 161.027 49.321V47.9318C160.913 48.0057 160.757 48.0739 160.558 48.1364C160.365 48.1932 160.146 48.2472 159.902 48.2983C159.658 48.3437 159.413 48.3864 159.169 48.4261C158.925 48.4602 158.703 48.4915 158.504 48.5199C158.078 48.5824 157.706 48.6818 157.388 48.8182C157.07 48.9545 156.822 49.1392 156.646 49.3722C156.47 49.5994 156.382 49.8835 156.382 50.2244C156.382 50.7188 156.561 51.0966 156.919 51.358C157.283 51.6136 157.743 51.7415 158.3 51.7415ZM167.517 54V36.5455H171.148V43.108H171.259C171.418 42.7557 171.648 42.3977 171.949 42.0341C172.256 41.6648 172.653 41.358 173.142 41.1136C173.636 40.8636 174.25 40.7386 174.983 40.7386C175.938 40.7386 176.818 40.9886 177.625 41.4886C178.432 41.983 179.077 42.7301 179.56 43.7301C180.043 44.7244 180.284 45.9716 180.284 47.4716C180.284 48.9318 180.048 50.1648 179.577 51.1705C179.111 52.1705 178.474 52.929 177.668 53.446C176.866 53.9574 175.969 54.2131 174.974 54.2131C174.27 54.2131 173.67 54.0966 173.176 53.8636C172.688 53.6307 172.287 53.3381 171.974 52.9858C171.662 52.6278 171.423 52.267 171.259 51.9034H171.097V54H167.517ZM171.071 47.4545C171.071 48.233 171.179 48.9119 171.395 49.4915C171.611 50.071 171.923 50.5227 172.332 50.8466C172.741 51.1648 173.239 51.3239 173.824 51.3239C174.415 51.3239 174.915 51.1619 175.324 50.8381C175.733 50.5085 176.043 50.054 176.253 49.4744C176.469 48.8892 176.577 48.2159 176.577 47.4545C176.577 46.6989 176.472 46.0341 176.261 45.4602C176.051 44.8864 175.741 44.4375 175.332 44.1136C174.923 43.7898 174.42 43.6278 173.824 43.6278C173.233 43.6278 172.733 43.7841 172.324 44.0966C171.92 44.4091 171.611 44.8523 171.395 45.4261C171.179 46 171.071 46.6761 171.071 47.4545ZM186.337 36.5455V54H182.707V36.5455H186.337ZM195.212 54.2557C193.865 54.2557 192.706 53.983 191.734 53.4375C190.768 52.8864 190.024 52.108 189.501 51.1023C188.979 50.0909 188.717 48.8949 188.717 47.5142C188.717 46.1676 188.979 44.9858 189.501 43.9688C190.024 42.9517 190.76 42.1591 191.709 41.5909C192.663 41.0227 193.783 40.7386 195.067 40.7386C195.93 40.7386 196.734 40.8778 197.479 41.1562C198.229 41.429 198.882 41.8409 199.439 42.392C200.001 42.9432 200.439 43.6364 200.751 44.4716C201.064 45.3011 201.22 46.2727 201.22 47.3864V48.3835H190.166V46.1335H197.803C197.803 45.6108 197.689 45.1477 197.462 44.7443C197.234 44.3409 196.919 44.0256 196.516 43.7983C196.118 43.5653 195.655 43.4489 195.126 43.4489C194.575 43.4489 194.087 43.5767 193.661 43.8324C193.24 44.0824 192.911 44.4205 192.672 44.8466C192.433 45.267 192.311 45.7358 192.305 46.2528V48.392C192.305 49.0398 192.425 49.5994 192.663 50.071C192.908 50.5426 193.251 50.9062 193.695 51.1619C194.138 51.4176 194.663 51.5455 195.271 51.5455C195.675 51.5455 196.044 51.4886 196.379 51.375C196.714 51.2614 197.001 51.0909 197.24 50.8636C197.479 50.6364 197.661 50.358 197.786 50.0284L201.143 50.25C200.973 51.0568 200.624 51.7614 200.095 52.3636C199.572 52.9602 198.896 53.4261 198.067 53.7614C197.243 54.0909 196.291 54.2557 195.212 54.2557ZM65.3636 83.2557C64.0227 83.2557 62.8693 82.9716 61.9034 82.4034C60.9432 81.8295 60.2045 81.0341 59.6875 80.017C59.1761 79 58.9205 77.8295 58.9205 76.5057C58.9205 75.1648 59.179 73.9886 59.696 72.9773C60.2188 71.9602 60.9602 71.1676 61.9205 70.5994C62.8807 70.0256 64.0227 69.7386 65.3466 69.7386C66.4886 69.7386 67.4886 69.946 68.3466 70.3608C69.2045 70.7756 69.8835 71.358 70.3835 72.108C70.8835 72.858 71.1591 73.7386 71.2102 74.75H67.7841C67.6875 74.0966 67.4318 73.571 67.017 73.1733C66.608 72.7699 66.071 72.5682 65.4062 72.5682C64.8438 72.5682 64.3523 72.7216 63.9318 73.0284C63.517 73.3295 63.1932 73.7699 62.9602 74.3494C62.7273 74.929 62.6108 75.6307 62.6108 76.4545C62.6108 77.2898 62.7244 78 62.9517 78.5852C63.1847 79.1705 63.5114 79.6165 63.9318 79.9233C64.3523 80.2301 64.8438 80.3835 65.4062 80.3835C65.821 80.3835 66.1932 80.2983 66.5227 80.1278C66.858 79.9574 67.1335 79.7102 67.3494 79.3864C67.571 79.0568 67.7159 78.6619 67.7841 78.2017H71.2102C71.1534 79.2017 70.8807 80.0824 70.392 80.8438C69.9091 81.5994 69.2415 82.1903 68.3892 82.6165C67.5369 83.0426 66.5284 83.2557 65.3636 83.2557ZM79.4496 83.2557C78.1257 83.2557 76.9808 82.9744 76.0149 82.4119C75.0547 81.8437 74.3132 81.054 73.7905 80.0426C73.2678 79.0256 73.0064 77.8466 73.0064 76.5057C73.0064 75.1534 73.2678 73.9716 73.7905 72.9602C74.3132 71.9432 75.0547 71.1534 76.0149 70.5909C76.9808 70.0227 78.1257 69.7386 79.4496 69.7386C80.7734 69.7386 81.9155 70.0227 82.8757 70.5909C83.8416 71.1534 84.5859 71.9432 85.1087 72.9602C85.6314 73.9716 85.8928 75.1534 85.8928 76.5057C85.8928 77.8466 85.6314 79.0256 85.1087 80.0426C84.5859 81.054 83.8416 81.8437 82.8757 82.4119C81.9155 82.9744 80.7734 83.2557 79.4496 83.2557ZM79.4666 80.4432C80.0689 80.4432 80.5717 80.2727 80.9751 79.9318C81.3786 79.5852 81.6825 79.1136 81.8871 78.517C82.0973 77.9205 82.2024 77.2415 82.2024 76.4801C82.2024 75.7188 82.0973 75.0398 81.8871 74.4432C81.6825 73.8466 81.3786 73.375 80.9751 73.0284C80.5717 72.6818 80.0689 72.5085 79.4666 72.5085C78.8587 72.5085 78.3473 72.6818 77.9325 73.0284C77.5234 73.375 77.2138 73.8466 77.0036 74.4432C76.799 75.0398 76.6967 75.7188 76.6967 76.4801C76.6967 77.2415 76.799 77.9205 77.0036 78.517C77.2138 79.1136 77.5234 79.5852 77.9325 79.9318C78.3473 80.2727 78.8587 80.4432 79.4666 80.4432ZM91.8842 75.4318V83H88.2536V69.9091H91.7138V72.2188H91.8672C92.157 71.4574 92.6428 70.8551 93.3246 70.4119C94.0064 69.9631 94.8331 69.7386 95.8047 69.7386C96.7138 69.7386 97.5064 69.9375 98.1825 70.3352C98.8587 70.733 99.3842 71.3011 99.7592 72.0398C100.134 72.7727 100.322 73.6477 100.322 74.6648V83H96.6911V75.3125C96.6967 74.5114 96.4922 73.8864 96.0774 73.4375C95.6626 72.983 95.0916 72.7557 94.3643 72.7557C93.8757 72.7557 93.4439 72.8608 93.0689 73.071C92.6996 73.2812 92.4098 73.5881 92.1996 73.9915C91.995 74.3892 91.8899 74.8693 91.8842 75.4318ZM110.146 69.9091V72.6364H102.263V69.9091H110.146ZM104.053 66.7727H107.683V78.9773C107.683 79.3125 107.734 79.5739 107.837 79.7614C107.939 79.9432 108.081 80.071 108.263 80.1449C108.45 80.2187 108.666 80.2557 108.911 80.2557C109.081 80.2557 109.251 80.2415 109.422 80.2131C109.592 80.179 109.723 80.1534 109.814 80.1364L110.385 82.8381C110.203 82.8949 109.947 82.9602 109.618 83.0341C109.288 83.1136 108.888 83.1619 108.416 83.179C107.541 83.2131 106.774 83.0966 106.115 82.8295C105.462 82.5625 104.953 82.1477 104.589 81.5852C104.226 81.0227 104.047 80.3125 104.053 79.4545V66.7727ZM116.244 83.2472C115.409 83.2472 114.665 83.1023 114.011 82.8125C113.358 82.517 112.841 82.0824 112.46 81.5085C112.085 80.929 111.898 80.2074 111.898 79.3438C111.898 78.6165 112.031 78.0057 112.298 77.5114C112.565 77.017 112.929 76.6193 113.389 76.3182C113.849 76.017 114.372 75.7898 114.957 75.6364C115.548 75.483 116.168 75.375 116.815 75.3125C117.577 75.233 118.19 75.1591 118.656 75.0909C119.122 75.017 119.46 74.9091 119.67 74.767C119.881 74.625 119.986 74.4148 119.986 74.1364V74.0852C119.986 73.5455 119.815 73.1278 119.474 72.8324C119.139 72.5369 118.662 72.3892 118.043 72.3892C117.389 72.3892 116.869 72.5341 116.483 72.8239C116.097 73.108 115.841 73.4659 115.716 73.8977L112.358 73.625C112.528 72.8295 112.864 72.142 113.364 71.5625C113.864 70.9773 114.509 70.5284 115.298 70.2159C116.094 69.8977 117.014 69.7386 118.06 69.7386C118.787 69.7386 119.483 69.8239 120.148 69.9943C120.818 70.1648 121.412 70.429 121.929 70.7869C122.452 71.1449 122.864 71.6051 123.165 72.1676C123.466 72.7244 123.616 73.392 123.616 74.1705V83H120.173V81.1847H120.071C119.861 81.5938 119.58 81.9545 119.227 82.267C118.875 82.5739 118.452 82.8153 117.957 82.9915C117.463 83.1619 116.892 83.2472 116.244 83.2472ZM117.284 80.7415C117.818 80.7415 118.29 80.6364 118.699 80.4261C119.108 80.2102 119.429 79.9205 119.662 79.5568C119.895 79.1932 120.011 78.7812 120.011 78.321V76.9318C119.898 77.0057 119.741 77.0739 119.543 77.1364C119.349 77.1932 119.131 77.2472 118.886 77.2983C118.642 77.3437 118.398 77.3864 118.153 77.4261C117.909 77.4602 117.688 77.4915 117.489 77.5199C117.063 77.5824 116.69 77.6818 116.372 77.8182C116.054 77.9545 115.807 78.1392 115.631 78.3722C115.455 78.5994 115.366 78.8835 115.366 79.2244C115.366 79.7188 115.545 80.0966 115.903 80.358C116.267 80.6136 116.727 80.7415 117.284 80.7415ZM126.433 83V69.9091H130.064V83H126.433ZM128.257 68.2216C127.717 68.2216 127.254 68.0426 126.868 67.6847C126.487 67.321 126.297 66.8864 126.297 66.3807C126.297 65.8807 126.487 65.4517 126.868 65.0938C127.254 64.7301 127.717 64.5483 128.257 64.5483C128.797 64.5483 129.257 64.7301 129.638 65.0938C130.024 65.4517 130.217 65.8807 130.217 66.3807C130.217 66.8864 130.024 67.321 129.638 67.6847C129.257 68.0426 128.797 68.2216 128.257 68.2216ZM136.603 75.4318V83H132.972V69.9091H136.433V72.2188H136.586C136.876 71.4574 137.362 70.8551 138.043 70.4119C138.725 69.9631 139.552 69.7386 140.523 69.7386C141.433 69.7386 142.225 69.9375 142.901 70.3352C143.577 70.733 144.103 71.3011 144.478 72.0398C144.853 72.7727 145.04 73.6477 145.04 74.6648V83H141.41V75.3125C141.415 74.5114 141.211 73.8864 140.796 73.4375C140.381 72.983 139.81 72.7557 139.083 72.7557C138.594 72.7557 138.163 72.8608 137.788 73.071C137.418 73.2812 137.129 73.5881 136.918 73.9915C136.714 74.3892 136.609 74.8693 136.603 75.4318ZM147.902 83V69.9091H151.533V83H147.902ZM149.726 68.2216C149.186 68.2216 148.723 68.0426 148.337 67.6847C147.956 67.321 147.766 66.8864 147.766 66.3807C147.766 65.8807 147.956 65.4517 148.337 65.0938C148.723 64.7301 149.186 64.5483 149.726 64.5483C150.266 64.5483 150.726 64.7301 151.107 65.0938C151.493 65.4517 151.686 65.8807 151.686 66.3807C151.686 66.8864 151.493 67.321 151.107 67.6847C150.726 68.0426 150.266 68.2216 149.726 68.2216ZM158.072 75.4318V83H154.441V69.9091H157.901V72.2188H158.055C158.344 71.4574 158.83 70.8551 159.512 70.4119C160.194 69.9631 161.021 69.7386 161.992 69.7386C162.901 69.7386 163.694 69.9375 164.37 70.3352C165.046 70.733 165.572 71.3011 165.947 72.0398C166.322 72.7727 166.509 73.6477 166.509 74.6648V83H162.879V75.3125C162.884 74.5114 162.68 73.8864 162.265 73.4375C161.85 72.983 161.279 72.7557 160.552 72.7557C160.063 72.7557 159.631 72.8608 159.256 73.071C158.887 73.2812 158.597 73.5881 158.387 73.9915C158.183 74.3892 158.077 74.8693 158.072 75.4318ZM175.268 88.1818C174.092 88.1818 173.084 88.0199 172.243 87.696C171.408 87.3778 170.743 86.9432 170.249 86.392C169.754 85.8409 169.433 85.2216 169.286 84.5341L172.643 84.0824C172.746 84.3438 172.908 84.5881 173.129 84.8153C173.351 85.0426 173.643 85.2244 174.007 85.3608C174.376 85.5028 174.825 85.5739 175.354 85.5739C176.143 85.5739 176.794 85.3807 177.305 84.9943C177.822 84.6136 178.081 83.9744 178.081 83.0767V80.6818H177.928C177.768 81.0455 177.53 81.3892 177.212 81.7131C176.893 82.0369 176.484 82.3011 175.984 82.5057C175.484 82.7102 174.888 82.8125 174.195 82.8125C173.212 82.8125 172.317 82.5852 171.51 82.1307C170.709 81.6705 170.07 80.9687 169.592 80.0256C169.121 79.0767 168.885 77.8778 168.885 76.429C168.885 74.946 169.126 73.7074 169.609 72.7131C170.092 71.7187 170.734 70.9744 171.536 70.4801C172.342 69.9858 173.226 69.7386 174.186 69.7386C174.919 69.7386 175.533 69.8636 176.027 70.1136C176.521 70.358 176.919 70.6648 177.22 71.0341C177.527 71.3977 177.763 71.7557 177.928 72.108H178.064V69.9091H181.669V83.1278C181.669 84.2415 181.396 85.1733 180.851 85.9233C180.305 86.6733 179.55 87.2358 178.584 87.6108C177.624 87.9915 176.518 88.1818 175.268 88.1818ZM175.345 80.0852C175.93 80.0852 176.425 79.9403 176.828 79.6506C177.237 79.3551 177.55 78.9347 177.766 78.3892C177.987 77.8381 178.098 77.179 178.098 76.4119C178.098 75.6449 177.99 74.9801 177.774 74.4176C177.558 73.8494 177.246 73.4091 176.837 73.0966C176.428 72.7841 175.93 72.6278 175.345 72.6278C174.749 72.6278 174.246 72.7898 173.837 73.1136C173.428 73.4318 173.118 73.875 172.908 74.4432C172.697 75.0114 172.592 75.6676 172.592 76.4119C172.592 77.1676 172.697 77.821 172.908 78.3722C173.124 78.9176 173.433 79.3409 173.837 79.642C174.246 79.9375 174.749 80.0852 175.345 80.0852ZM193.846 83.2472C193.011 83.2472 192.266 83.1023 191.613 82.8125C190.96 82.517 190.442 82.0824 190.062 81.5085C189.687 80.929 189.499 80.2074 189.499 79.3438C189.499 78.6165 189.633 78.0057 189.9 77.5114C190.167 77.017 190.531 76.6193 190.991 76.3182C191.451 76.017 191.974 75.7898 192.559 75.6364C193.15 75.483 193.769 75.375 194.417 75.3125C195.178 75.233 195.792 75.1591 196.258 75.0909C196.724 75.017 197.062 74.9091 197.272 74.767C197.482 74.625 197.587 74.4148 197.587 74.1364V74.0852C197.587 73.5455 197.417 73.1278 197.076 72.8324C196.741 72.5369 196.263 72.3892 195.644 72.3892C194.991 72.3892 194.471 72.5341 194.085 72.8239C193.698 73.108 193.442 73.4659 193.317 73.8977L189.96 73.625C190.13 72.8295 190.465 72.142 190.965 71.5625C191.465 70.9773 192.11 70.5284 192.9 70.2159C193.695 69.8977 194.616 69.7386 195.661 69.7386C196.388 69.7386 197.085 69.8239 197.749 69.9943C198.42 70.1648 199.013 70.429 199.531 70.7869C200.053 71.1449 200.465 71.6051 200.766 72.1676C201.067 72.7244 201.218 73.392 201.218 74.1705V83H197.775V81.1847H197.673C197.462 81.5938 197.181 81.9545 196.829 82.267C196.477 82.5739 196.053 82.8153 195.559 82.9915C195.065 83.1619 194.494 83.2472 193.846 83.2472ZM194.886 80.7415C195.42 80.7415 195.891 80.6364 196.3 80.4261C196.71 80.2102 197.031 79.9205 197.263 79.5568C197.496 79.1932 197.613 78.7812 197.613 78.321V76.9318C197.499 77.0057 197.343 77.0739 197.144 77.1364C196.951 77.1932 196.732 77.2472 196.488 77.2983C196.244 77.3437 195.999 77.3864 195.755 77.4261C195.511 77.4602 195.289 77.4915 195.09 77.5199C194.664 77.5824 194.292 77.6818 193.974 77.8182C193.656 77.9545 193.408 78.1392 193.232 78.3722C193.056 78.5994 192.968 78.8835 192.968 79.2244C192.968 79.7188 193.147 80.0966 193.505 80.358C193.869 80.6136 194.329 80.7415 194.886 80.7415ZM213.22 65.5455V83H209.589V65.5455H213.22ZM216.129 83V69.9091H219.759V83H216.129ZM217.952 68.2216C217.413 68.2216 216.95 68.0426 216.563 67.6847C216.183 67.321 215.992 66.8864 215.992 66.3807C215.992 65.8807 216.183 65.4517 216.563 65.0938C216.95 64.7301 217.413 64.5483 217.952 64.5483C218.492 64.5483 218.952 64.7301 219.333 65.0938C219.719 65.4517 219.913 65.8807 219.913 66.3807C219.913 66.8864 219.719 67.321 219.333 67.6847C218.952 68.0426 218.492 68.2216 217.952 68.2216ZM226.298 75.4318V83H222.668V69.9091H226.128V72.2188H226.281C226.571 71.4574 227.057 70.8551 227.739 70.4119C228.42 69.9631 229.247 69.7386 230.219 69.7386C231.128 69.7386 231.92 69.9375 232.597 70.3352C233.273 70.733 233.798 71.3011 234.173 72.0398C234.548 72.7727 234.736 73.6477 234.736 74.6648V83H231.105V75.3125C231.111 74.5114 230.906 73.8864 230.491 73.4375C230.077 72.983 229.506 72.7557 228.778 72.7557C228.29 72.7557 227.858 72.8608 227.483 73.071C227.114 73.2812 226.824 73.5881 226.614 73.9915C226.409 74.3892 226.304 74.8693 226.298 75.4318ZM243.563 83.2557C242.217 83.2557 241.058 82.983 240.086 82.4375C239.12 81.8864 238.376 81.108 237.853 80.1023C237.33 79.0909 237.069 77.8949 237.069 76.5142C237.069 75.1676 237.33 73.9858 237.853 72.9688C238.376 71.9517 239.112 71.1591 240.06 70.5909C241.015 70.0227 242.134 69.7386 243.418 69.7386C244.282 69.7386 245.086 69.8778 245.83 70.1562C246.58 70.429 247.234 70.8409 247.79 71.392C248.353 71.9432 248.79 72.6364 249.103 73.4716C249.415 74.3011 249.572 75.2727 249.572 76.3864V77.3835H238.518V75.1335H246.154C246.154 74.6108 246.04 74.1477 245.813 73.7443C245.586 73.3409 245.271 73.0256 244.867 72.7983C244.469 72.5653 244.006 72.4489 243.478 72.4489C242.927 72.4489 242.438 72.5767 242.012 72.8324C241.592 73.0824 241.262 73.4205 241.023 73.8466C240.785 74.267 240.663 74.7358 240.657 75.2528V77.392C240.657 78.0398 240.776 78.5994 241.015 79.071C241.259 79.5426 241.603 79.9062 242.046 80.1619C242.489 80.4176 243.015 80.5455 243.623 80.5455C244.026 80.5455 244.396 80.4886 244.731 80.375C245.066 80.2614 245.353 80.0909 245.592 79.8636C245.83 79.6364 246.012 79.358 246.137 79.0284L249.495 79.25C249.325 80.0568 248.975 80.7614 248.447 81.3636C247.924 81.9602 247.248 82.4261 246.418 82.7614C245.594 83.0909 244.643 83.2557 243.563 83.2557ZM65.3636 112.256C64.0398 112.256 62.8949 111.974 61.929 111.412C60.9688 110.844 60.2273 110.054 59.7045 109.043C59.1818 108.026 58.9205 106.847 58.9205 105.506C58.9205 104.153 59.1818 102.972 59.7045 101.96C60.2273 100.943 60.9688 100.153 61.929 99.5909C62.8949 99.0227 64.0398 98.7386 65.3636 98.7386C66.6875 98.7386 67.8295 99.0227 68.7898 99.5909C69.7557 100.153 70.5 100.943 71.0227 101.96C71.5455 102.972 71.8068 104.153 71.8068 105.506C71.8068 106.847 71.5455 108.026 71.0227 109.043C70.5 110.054 69.7557 110.844 68.7898 111.412C67.8295 111.974 66.6875 112.256 65.3636 112.256ZM65.3807 109.443C65.983 109.443 66.4858 109.273 66.8892 108.932C67.2926 108.585 67.5966 108.114 67.8011 107.517C68.0114 106.92 68.1165 106.241 68.1165 105.48C68.1165 104.719 68.0114 104.04 67.8011 103.443C67.5966 102.847 67.2926 102.375 66.8892 102.028C66.4858 101.682 65.983 101.509 65.3807 101.509C64.7727 101.509 64.2614 101.682 63.8466 102.028C63.4375 102.375 63.1278 102.847 62.9176 103.443C62.7131 104.04 62.6108 104.719 62.6108 105.48C62.6108 106.241 62.7131 106.92 62.9176 107.517C63.1278 108.114 63.4375 108.585 63.8466 108.932C64.2614 109.273 64.7727 109.443 65.3807 109.443ZM81.2074 98.9091V101.636H73.1278V98.9091H81.2074ZM74.9773 112V97.9631C74.9773 97.0142 75.1619 96.2273 75.5312 95.6023C75.9062 94.9773 76.4176 94.5085 77.0653 94.196C77.7131 93.8835 78.4489 93.7273 79.2727 93.7273C79.8295 93.7273 80.3381 93.7699 80.7983 93.8551C81.2642 93.9403 81.6108 94.017 81.8381 94.0852L81.1903 96.8125C81.0483 96.767 80.8722 96.7244 80.6619 96.6847C80.4574 96.6449 80.2472 96.625 80.0312 96.625C79.4972 96.625 79.125 96.75 78.9148 97C78.7045 97.2443 78.5994 97.5881 78.5994 98.0312V112H74.9773ZM95.9432 98.9091V101.636H88.0597V98.9091H95.9432ZM89.8494 95.7727H93.4801V107.977C93.4801 108.312 93.5313 108.574 93.6335 108.761C93.7358 108.943 93.8778 109.071 94.0597 109.145C94.2472 109.219 94.4631 109.256 94.7074 109.256C94.8778 109.256 95.0483 109.241 95.2188 109.213C95.3892 109.179 95.5199 109.153 95.6108 109.136L96.1818 111.838C96 111.895 95.7443 111.96 95.4148 112.034C95.0852 112.114 94.6847 112.162 94.2131 112.179C93.3381 112.213 92.571 112.097 91.9119 111.83C91.2585 111.562 90.75 111.148 90.3864 110.585C90.0227 110.023 89.8438 109.312 89.8494 108.455V95.7727ZM104.134 112.256C102.787 112.256 101.628 111.983 100.656 111.438C99.6903 110.886 98.946 110.108 98.4233 109.102C97.9006 108.091 97.6392 106.895 97.6392 105.514C97.6392 104.168 97.9006 102.986 98.4233 101.969C98.946 100.952 99.6818 100.159 100.631 99.5909C101.585 99.0227 102.705 98.7386 103.989 98.7386C104.852 98.7386 105.656 98.8778 106.401 99.1562C107.151 99.429 107.804 99.8409 108.361 100.392C108.923 100.943 109.361 101.636 109.673 102.472C109.986 103.301 110.142 104.273 110.142 105.386V106.384H99.0881V104.134H106.724C106.724 103.611 106.611 103.148 106.384 102.744C106.156 102.341 105.841 102.026 105.438 101.798C105.04 101.565 104.577 101.449 104.048 101.449C103.497 101.449 103.009 101.577 102.582 101.832C102.162 102.082 101.832 102.42 101.594 102.847C101.355 103.267 101.233 103.736 101.227 104.253V106.392C101.227 107.04 101.347 107.599 101.585 108.071C101.83 108.543 102.173 108.906 102.616 109.162C103.06 109.418 103.585 109.545 104.193 109.545C104.597 109.545 104.966 109.489 105.301 109.375C105.636 109.261 105.923 109.091 106.162 108.864C106.401 108.636 106.582 108.358 106.707 108.028L110.065 108.25C109.895 109.057 109.545 109.761 109.017 110.364C108.494 110.96 107.818 111.426 106.989 111.761C106.165 112.091 105.213 112.256 104.134 112.256ZM115.311 98.9091L117.714 103.486L120.178 98.9091H123.902L120.109 105.455L124.004 112H120.297L117.714 107.474L115.175 112H111.425L115.311 105.455L111.561 98.9091H115.311ZM133.021 98.9091V101.636H125.138V98.9091H133.021ZM126.928 95.7727H130.558V107.977C130.558 108.312 130.609 108.574 130.712 108.761C130.814 108.943 130.956 109.071 131.138 109.145C131.325 109.219 131.541 109.256 131.786 109.256C131.956 109.256 132.126 109.241 132.297 109.213C132.467 109.179 132.598 109.153 132.689 109.136L133.26 111.838C133.078 111.895 132.822 111.96 132.493 112.034C132.163 112.114 131.763 112.162 131.291 112.179C130.416 112.213 129.649 112.097 128.99 111.83C128.337 111.562 127.828 111.148 127.464 110.585C127.101 110.023 126.922 109.312 126.928 108.455V95.7727ZM137.509 112.222C136.946 112.222 136.463 112.023 136.06 111.625C135.662 111.222 135.463 110.739 135.463 110.176C135.463 109.619 135.662 109.142 136.06 108.744C136.463 108.347 136.946 108.148 137.509 108.148C138.054 108.148 138.531 108.347 138.94 108.744C139.349 109.142 139.554 109.619 139.554 110.176C139.554 110.551 139.457 110.895 139.264 111.207C139.077 111.514 138.83 111.761 138.523 111.949C138.216 112.131 137.878 112.222 137.509 112.222Z" fill="black"/>
<path d="M53 126.5L60.5 130.83V122.17L53 126.5ZM281 126.5L273.5 122.17V130.83L281 126.5ZM59.75 127.25H274.25V125.75H59.75V127.25Z" fill="black"/>
<path d="M47 120L51.3301 112.5L42.6699 112.5L47 120ZM47 -7.62939e-06L42.6699 7.49999L51.3301 7.49999L47 -7.62939e-06ZM47.75 113.25L47.75 6.74999L46.25 6.74999L46.25 113.25L47.75 113.25Z" fill="black"/>
<path d="M137.831 133.455V140H136.646V133.455H137.831ZM140.221 137.124V140H139.064V135.091H140.17V135.925H140.228C140.34 135.65 140.521 135.432 140.768 135.27C141.017 135.108 141.325 135.027 141.691 135.027C142.03 135.027 142.325 135.099 142.577 135.244C142.83 135.389 143.026 135.599 143.165 135.874C143.305 136.149 143.375 136.482 143.372 136.874V140H142.215V137.053C142.215 136.725 142.13 136.468 141.96 136.283C141.791 136.098 141.558 136.005 141.26 136.005C141.057 136.005 140.877 136.05 140.72 136.139C140.564 136.227 140.442 136.353 140.352 136.52C140.265 136.686 140.221 136.887 140.221 137.124ZM147 135.091V135.986H144.178V135.091H147ZM144.875 133.915H146.032V138.523C146.032 138.679 146.055 138.798 146.102 138.881C146.151 138.962 146.215 139.018 146.294 139.048C146.372 139.077 146.46 139.092 146.556 139.092C146.628 139.092 146.694 139.087 146.754 139.076C146.816 139.066 146.862 139.056 146.894 139.048L147.089 139.952C147.028 139.973 146.939 139.997 146.824 140.022C146.711 140.048 146.573 140.063 146.409 140.067C146.119 140.076 145.858 140.032 145.626 139.936C145.393 139.838 145.209 139.687 145.073 139.482C144.938 139.278 144.872 139.022 144.875 138.715V133.915ZM147.968 140V135.091H149.089V135.909H149.14C149.23 135.626 149.383 135.407 149.601 135.254C149.82 135.098 150.07 135.021 150.352 135.021C150.416 135.021 150.487 135.024 150.566 135.03C150.647 135.034 150.714 135.042 150.767 135.053V136.117C150.718 136.1 150.64 136.085 150.534 136.072C150.43 136.057 150.328 136.05 150.23 136.05C150.019 136.05 149.83 136.096 149.661 136.187C149.495 136.277 149.364 136.401 149.268 136.561C149.172 136.721 149.124 136.905 149.124 137.114V140H147.968ZM151.536 140V135.091H152.693V140H151.536ZM152.118 134.394C151.934 134.394 151.777 134.333 151.645 134.212C151.512 134.088 151.446 133.94 151.446 133.768C151.446 133.593 151.512 133.445 151.645 133.324C151.777 133.2 151.934 133.138 152.118 133.138C152.303 133.138 152.461 133.2 152.591 133.324C152.723 133.445 152.789 133.593 152.789 133.768C152.789 133.94 152.723 134.088 152.591 134.212C152.461 134.333 152.303 134.394 152.118 134.394ZM156.024 140.096C155.534 140.096 155.113 139.988 154.761 139.773C154.412 139.558 154.142 139.261 153.953 138.881C153.765 138.5 153.672 138.061 153.672 137.565C153.672 137.066 153.767 136.626 153.959 136.245C154.151 135.861 154.422 135.563 154.771 135.35C155.123 135.135 155.538 135.027 156.017 135.027C156.416 135.027 156.769 135.1 157.075 135.248C157.384 135.392 157.63 135.598 157.814 135.864C157.997 136.129 158.101 136.437 158.127 136.791H157.021C156.976 136.555 156.87 136.358 156.701 136.2C156.535 136.04 156.313 135.96 156.033 135.96C155.797 135.96 155.589 136.024 155.41 136.152C155.231 136.278 155.092 136.459 154.992 136.695C154.894 136.932 154.845 137.215 154.845 137.545C154.845 137.88 154.894 138.168 154.992 138.408C155.09 138.647 155.227 138.831 155.404 138.961C155.583 139.089 155.793 139.153 156.033 139.153C156.204 139.153 156.356 139.121 156.491 139.057C156.627 138.991 156.741 138.896 156.832 138.773C156.924 138.649 156.987 138.499 157.021 138.322H158.127C158.099 138.669 157.997 138.977 157.82 139.246C157.643 139.512 157.402 139.721 157.098 139.872C156.793 140.021 156.435 140.096 156.024 140.096ZM162.957 136.388L161.902 136.504C161.872 136.397 161.82 136.297 161.746 136.203C161.673 136.109 161.575 136.034 161.452 135.976C161.328 135.919 161.177 135.89 160.998 135.89C160.757 135.89 160.555 135.942 160.39 136.047C160.229 136.151 160.149 136.286 160.151 136.452C160.149 136.595 160.201 136.711 160.307 136.801C160.416 136.89 160.595 136.964 160.844 137.021L161.682 137.2C162.146 137.3 162.491 137.459 162.717 137.676C162.945 137.894 163.06 138.178 163.062 138.53C163.06 138.839 162.97 139.112 162.791 139.348C162.614 139.582 162.368 139.766 162.052 139.898C161.737 140.03 161.375 140.096 160.966 140.096C160.365 140.096 159.881 139.97 159.515 139.719C159.148 139.465 158.93 139.113 158.86 138.661L159.988 138.552C160.039 138.774 160.148 138.941 160.314 139.054C160.48 139.167 160.696 139.223 160.963 139.223C161.237 139.223 161.458 139.167 161.624 139.054C161.792 138.941 161.877 138.801 161.877 138.635C161.877 138.495 161.822 138.379 161.714 138.287C161.607 138.195 161.441 138.125 161.215 138.076L160.378 137.9C159.907 137.802 159.558 137.637 159.333 137.405C159.107 137.17 158.995 136.874 158.997 136.516C158.995 136.214 159.077 135.952 159.243 135.73C159.411 135.506 159.645 135.334 159.943 135.212C160.243 135.089 160.59 135.027 160.982 135.027C161.557 135.027 162.01 135.15 162.34 135.395C162.672 135.64 162.878 135.971 162.957 136.388ZM164.016 140V135.091H165.173V140H164.016ZM164.598 134.394C164.415 134.394 164.257 134.333 164.125 134.212C163.993 134.088 163.927 133.94 163.927 133.768C163.927 133.593 163.993 133.445 164.125 133.324C164.257 133.2 164.415 133.138 164.598 133.138C164.783 133.138 164.941 133.2 165.071 133.324C165.203 133.445 165.269 133.593 165.269 133.768C165.269 133.94 165.203 134.088 165.071 134.212C164.941 134.333 164.783 134.394 164.598 134.394ZM168.504 140.096C168.014 140.096 167.593 139.988 167.242 139.773C166.892 139.558 166.623 139.261 166.433 138.881C166.246 138.5 166.152 138.061 166.152 137.565C166.152 137.066 166.248 136.626 166.44 136.245C166.631 135.861 166.902 135.563 167.252 135.35C167.603 135.135 168.019 135.027 168.498 135.027C168.896 135.027 169.249 135.1 169.556 135.248C169.865 135.392 170.111 135.598 170.294 135.864C170.477 136.129 170.582 136.437 170.607 136.791H169.502C169.457 136.555 169.35 136.358 169.182 136.2C169.016 136.04 168.793 135.96 168.514 135.96C168.277 135.96 168.07 136.024 167.891 136.152C167.712 136.278 167.572 136.459 167.472 136.695C167.374 136.932 167.325 137.215 167.325 137.545C167.325 137.88 167.374 138.168 167.472 138.408C167.57 138.647 167.707 138.831 167.884 138.961C168.063 139.089 168.273 139.153 168.514 139.153C168.684 139.153 168.837 139.121 168.971 139.057C169.107 138.991 169.221 138.896 169.313 138.773C169.405 138.649 169.467 138.499 169.502 138.322H170.607C170.58 138.669 170.477 138.977 170.301 139.246C170.124 139.512 169.883 139.721 169.578 139.872C169.274 140.021 168.916 140.096 168.504 140.096ZM175.166 135.254C175.136 134.975 175.01 134.757 174.789 134.602C174.569 134.446 174.284 134.369 173.932 134.369C173.685 134.369 173.473 134.406 173.296 134.48C173.119 134.555 172.984 134.656 172.89 134.784C172.796 134.912 172.748 135.058 172.746 135.222C172.746 135.358 172.777 135.477 172.839 135.577C172.903 135.677 172.989 135.762 173.098 135.832C173.206 135.901 173.327 135.958 173.459 136.005C173.591 136.052 173.724 136.091 173.858 136.123L174.472 136.277C174.719 136.334 174.957 136.412 175.185 136.51C175.415 136.608 175.621 136.732 175.802 136.881C175.985 137.03 176.13 137.21 176.236 137.421C176.343 137.632 176.396 137.879 176.396 138.162C176.396 138.546 176.298 138.884 176.102 139.175C175.906 139.465 175.623 139.692 175.252 139.856C174.883 140.018 174.437 140.099 173.913 140.099C173.404 140.099 172.961 140.02 172.586 139.863C172.214 139.705 171.922 139.475 171.711 139.172C171.502 138.87 171.389 138.501 171.372 138.066H172.539C172.556 138.294 172.626 138.484 172.749 138.635C172.873 138.787 173.034 138.9 173.232 138.974C173.432 139.049 173.656 139.086 173.903 139.086C174.161 139.086 174.387 139.048 174.581 138.971C174.777 138.892 174.93 138.783 175.041 138.645C175.152 138.504 175.208 138.34 175.21 138.153C175.208 137.982 175.158 137.842 175.06 137.731C174.962 137.618 174.825 137.524 174.648 137.45C174.473 137.373 174.269 137.305 174.034 137.245L173.29 137.053C172.751 136.915 172.324 136.705 172.011 136.424C171.7 136.14 171.545 135.764 171.545 135.295C171.545 134.91 171.649 134.572 171.858 134.282C172.069 133.993 172.355 133.768 172.718 133.608C173.08 133.446 173.49 133.365 173.948 133.365C174.412 133.365 174.819 133.446 175.169 133.608C175.52 133.768 175.796 133.99 175.997 134.276C176.197 134.559 176.3 134.885 176.307 135.254H175.166ZM177.402 140V135.091H178.559V140H177.402ZM177.984 134.394C177.801 134.394 177.643 134.333 177.511 134.212C177.379 134.088 177.313 133.94 177.313 133.768C177.313 133.593 177.379 133.445 177.511 133.324C177.643 133.2 177.801 133.138 177.984 133.138C178.169 133.138 178.327 133.2 178.457 133.324C178.589 133.445 178.655 133.593 178.655 133.768C178.655 133.94 178.589 134.088 178.457 134.212C178.327 134.333 178.169 134.394 177.984 134.394ZM179.685 140V139.265L182.216 136.091V136.05H179.768V135.091H183.632V135.88L181.222 139V139.041H183.715V140H179.685ZM186.835 140.096C186.343 140.096 185.918 139.994 185.56 139.789C185.204 139.582 184.93 139.29 184.739 138.913C184.547 138.534 184.451 138.088 184.451 137.574C184.451 137.069 184.547 136.626 184.739 136.245C184.932 135.861 185.203 135.563 185.55 135.35C185.898 135.135 186.306 135.027 186.774 135.027C187.077 135.027 187.362 135.076 187.631 135.174C187.902 135.27 188.14 135.419 188.347 135.621C188.556 135.824 188.72 136.082 188.839 136.395C188.958 136.706 189.018 137.077 189.018 137.507V137.862H184.994V137.082H187.909C187.907 136.86 187.859 136.663 187.765 136.491C187.671 136.316 187.54 136.179 187.372 136.078C187.206 135.978 187.012 135.928 186.79 135.928C186.554 135.928 186.346 135.986 186.167 136.101C185.988 136.214 185.849 136.363 185.748 136.548C185.65 136.732 185.6 136.933 185.598 137.152V137.833C185.598 138.119 185.65 138.364 185.755 138.568C185.859 138.771 186.005 138.926 186.193 139.035C186.38 139.141 186.6 139.195 186.851 139.195C187.019 139.195 187.172 139.171 187.308 139.124C187.445 139.075 187.563 139.004 187.663 138.91C187.763 138.816 187.839 138.7 187.89 138.562L188.97 138.683C188.902 138.969 188.772 139.218 188.58 139.431C188.391 139.642 188.148 139.806 187.851 139.923C187.555 140.038 187.217 140.096 186.835 140.096ZM190.71 140.07C190.516 140.07 190.349 140.002 190.211 139.866C190.072 139.729 190.004 139.563 190.006 139.367C190.004 139.175 190.072 139.011 190.211 138.875C190.349 138.739 190.516 138.67 190.71 138.67C190.897 138.67 191.06 138.739 191.199 138.875C191.339 139.011 191.411 139.175 191.413 139.367C191.411 139.497 191.376 139.615 191.31 139.722C191.246 139.828 191.161 139.914 191.055 139.978C190.95 140.039 190.835 140.07 190.71 140.07ZM192.658 133.455H194.109L196.052 138.197H196.129L198.072 133.455H199.523V140H198.386V135.503H198.325L196.516 139.981H195.666L193.857 135.494H193.796V140H192.658V133.455ZM200.763 140V135.091H201.92V140H200.763ZM201.345 134.394C201.162 134.394 201.004 134.333 200.872 134.212C200.74 134.088 200.674 133.94 200.674 133.768C200.674 133.593 200.74 133.445 200.872 133.324C201.004 133.2 201.162 133.138 201.345 133.138C201.53 133.138 201.688 133.2 201.818 133.324C201.95 133.445 202.016 133.593 202.016 133.768C202.016 133.94 201.95 134.088 201.818 134.212C201.688 134.333 201.53 134.394 201.345 134.394ZM204.267 137.124V140H203.11V135.091H204.216V135.925H204.273C204.386 135.65 204.566 135.432 204.814 135.27C205.063 135.108 205.371 135.027 205.737 135.027C206.076 135.027 206.371 135.099 206.623 135.244C206.876 135.389 207.072 135.599 207.211 135.874C207.351 136.149 207.42 136.482 207.418 136.874V140H206.261V137.053C206.261 136.725 206.176 136.468 206.006 136.283C205.837 136.098 205.604 136.005 205.306 136.005C205.103 136.005 204.923 136.05 204.766 136.139C204.61 136.227 204.488 136.353 204.398 136.52C204.311 136.686 204.267 136.887 204.267 137.124Z" fill="black"/>
<path d="M13.4443 55.24H18.3563V55.776H13.4443V55.24ZM13.4443 53.552H14.1003V55.584H13.4443V53.552ZM12.5563 56.688H19.0923V57.216H12.5563V56.688ZM15.4923 55.592H16.1483V57.048H15.4923V55.592ZM13.2843 57.936H18.3723V58.472H13.2843V57.936ZM13.2122 59.992H18.4363V60.528H13.2122V59.992ZM14.3803 58.096H15.0363V60.24H14.3803V58.096ZM16.6123 58.096H17.2683V60.24H16.6123V58.096ZM25.1636 53.384H25.8276V60.632H25.1636V53.384ZM22.0116 53.944C23.0836 53.944 23.8516 54.928 23.8516 56.464C23.8516 58.008 23.0836 58.992 22.0116 58.992C20.9476 58.992 20.1796 58.008 20.1796 56.464C20.1796 54.928 20.9476 53.944 22.0116 53.944ZM22.0116 54.544C21.3076 54.544 20.8116 55.296 20.8116 56.464C20.8116 57.64 21.3076 58.408 22.0116 58.408C22.7236 58.408 23.2116 57.64 23.2116 56.464C23.2116 55.296 22.7236 54.544 22.0116 54.544ZM35.021 53.392H35.661V60.624H35.021V53.392ZM32.389 55.984H33.773V56.536H32.389V55.984ZM33.573 53.56H34.197V60.256H33.573V53.56ZM30.997 54.512H31.509V55.432C31.509 57.016 30.901 58.512 29.837 59.184L29.429 58.688C30.437 58.08 30.997 56.76 30.997 55.432V54.512ZM31.133 54.512H31.645V55.432C31.645 56.688 32.189 57.944 33.181 58.52L32.773 59.008C31.717 58.368 31.133 56.944 31.133 55.432V54.512ZM29.629 54.232H32.933V54.784H29.629V54.232ZM41.8284 53.4H42.4924V58.824H41.8284V53.4ZM42.2844 55.768H43.5644V56.328H42.2844V55.768ZM36.9004 54.272H41.1724V54.808H36.9004V54.272ZM39.0364 55.208C40.0604 55.208 40.7644 55.744 40.7644 56.56C40.7644 57.368 40.0604 57.904 39.0364 57.904C38.0044 57.904 37.3004 57.368 37.3004 56.56C37.3004 55.744 38.0044 55.208 39.0364 55.208ZM39.0364 55.728C38.3804 55.728 37.9324 56.056 37.9324 56.56C37.9324 57.056 38.3804 57.384 39.0364 57.384C39.6844 57.384 40.1324 57.056 40.1324 56.56C40.1324 56.056 39.6844 55.728 39.0364 55.728ZM38.7004 53.392H39.3644V54.552H38.7004V53.392ZM37.9884 59.92H42.8204V60.464H37.9884V59.92ZM37.9884 58.392H38.6524V60.152H37.9884V58.392ZM22.8406 67.84H23.3526V68.232C23.3526 69.176 22.7606 70.128 21.7206 70.528L21.3846 70.032C22.2966 69.704 22.8406 68.928 22.8406 68.232V67.84ZM22.9846 67.84H23.4806V68.232C23.4806 68.96 23.9126 69.736 24.7766 70.088L24.4966 70.592C23.4566 70.184 22.9846 69.192 22.9846 68.232V67.84ZM25.5126 67.84H26.0086V68.232C26.0086 69.08 25.5286 70.152 24.4966 70.592L24.2166 70.088C25.0726 69.696 25.5126 68.856 25.5126 68.232V67.84ZM25.6486 67.84H26.1606V68.232C26.1606 68.976 26.6966 69.72 27.6166 70.032L27.2806 70.528C26.2246 70.144 25.6486 69.232 25.6486 68.232V67.84ZM26.2966 63.4H26.9686V67.528H26.2966V63.4ZM23.0886 63.816C24.1846 63.816 24.9686 64.504 24.9686 65.504C24.9686 66.504 24.1846 67.184 23.0886 67.184C21.9926 67.184 21.2006 66.504 21.2006 65.504C21.2006 64.504 21.9926 63.816 23.0886 63.816ZM23.0886 64.368C22.3686 64.368 21.8486 64.832 21.8486 65.504C21.8486 66.176 22.3686 66.632 23.0886 66.632C23.8086 66.632 24.3286 66.176 24.3286 65.504C24.3286 64.832 23.8086 64.368 23.0886 64.368ZM31.664 63.552C33.224 63.552 34.208 64.064 34.208 64.92C34.208 65.776 33.224 66.28 31.664 66.28C30.096 66.28 29.12 65.776 29.12 64.92C29.12 64.064 30.096 63.552 31.664 63.552ZM31.664 64.08C30.512 64.08 29.8 64.384 29.8 64.92C29.8 65.448 30.512 65.76 31.664 65.76C32.808 65.76 33.528 65.448 33.528 64.92C33.528 64.384 32.808 64.08 31.664 64.08ZM29.192 68.144H34.128V70.528H29.192V68.144ZM33.48 68.68H29.848V69.992H33.48V68.68ZM28.392 66.904H34.928V67.44H28.392V66.904Z" fill="black"/>
</svg>
